font.ufo
<glyph name="exclam" format="1">
  <advance width="263"/>
  <unicode hex="0021"/>
  <outline>
    <contour>
      <point x="181" y="229" type="line"/>
      <point x="190" y="722" type="line"/>
      <point x="74" y="722" type="line"/>
      <point x="83" y="229" type="line"/>
    </contour>
    <contour>
      <point x="190" y="45" type="curve"/>
      <point x="190" y="80"/>
      <point x="165" y="98"/>
      <point x="131" y="98" type="curve"/>
      <point x="97" y="98"/>
      <point x="75" y="79"/>
      <point x="75" y="45" type="curve"/>
      <point x="188" y="45"/>
      <point x="77" y="45"/>
      <point x="190" y="45" type="curve"/>
      <point x="190" y="9"/>
      <point x="165" y="-8"/>
      <point x="131" y="-8" type="curve"/>
      <point x="96" y="-8"/>
      <point x="75" y="10"/>
      <point x="75" y="45" type="curve"/>
      <point x="188" y="45"/>
      <point x="77" y="45"/>
    </contour>
  </outline>
</glyph>
<glyph name="quotedbl" format="1">
  <advance width="428"/>
  <unicode hex="0022"/>
  <outline>
    <contour>
      <point x="168" y="603" type="line"/>
      <point x="176" y="814" type="line"/>
      <point x="67" y="814" type="line"/>
      <point x="74" y="603" type="line"/>
    </contour>
    <contour>
      <point x="354" y="603" type="line"/>
      <point x="362" y="814" type="line"/>
      <point x="253" y="814" type="line"/>
      <point x="260" y="603" type="line"/>
    </contour>
  </outline>
</glyph>
<glyph name="dollar" format="1">
  <advance width="546"/>
  <unicode hex="0024"/>
  <outline>
    <contour>
      <point x="144" y="94" type="curve"/>
      <point x="144" y="214"/>
      <point x="144" y="99"/>
      <point x="144" y="219" type="curve"/>
      <point x="62" y="219"/>
      <point x="144" y="219"/>
      <point x="62" y="219" type="curve"/>
      <point x="62" y="99"/>
      <point x="62" y="214"/>
      <point x="62" y="94" type="curve"/>
      <point x="144" y="94"/>
      <point x="62" y="94"/>
    </contour>
    <contour>
      <point x="384" y="634" type="curve"/>
      <point x="384" y="514"/>
      <point x="384" y="629"/>
      <point x="384" y="509" type="curve"/>
      <point x="465" y="509"/>
      <point x="384" y="509"/>
      <point x="465" y="509" type="curve"/>
      <point x="465" y="629"/>
      <point x="465" y="514"/>
      <point x="465" y="634" type="curve"/>
      <point x="384" y="634"/>
      <point x="465" y="634"/>
    </contour>
    <contour>
      <point x="310" y="-42" type="curve"/>
      <point x="310" y="-10"/>
      <point x="310" y="53"/>
      <point x="310" y="84" type="curve"/>
      <point x="206" y="84"/>
      <point x="310" y="84"/>
      <point x="206" y="84" type="curve"/>
      <point x="206" y="53"/>
      <point x="206" y="-10"/>
      <point x="206" y="-42" type="curve"/>
      <point x="310" y="-42"/>
      <point x="206" y="-42"/>
    </contour>
    <contour>
      <point x="321" y="645" type="curve"/>
      <point x="321" y="677"/>
      <point x="321" y="742"/>
      <point x="321" y="773" type="curve"/>
      <point x="217" y="773"/>
      <point x="321" y="773"/>
      <point x="217" y="773" type="curve"/>
      <point x="217" y="742"/>
      <point x="217" y="677"/>
      <point x="217" y="645" type="curve"/>
      <point x="321" y="645"/>
      <point x="217" y="645"/>
    </contour>
    <contour>
      <point x="62" y="94" type="curve"/>
      <point x="115" y="66"/>
      <point x="179" y="44"/>
      <point x="254" y="44" type="curve"/>
      <point x="392" y="44"/>
      <point x="501" y="100"/>
      <point x="501" y="213" type="curve"/>
      <point x="501" y="314"/>
      <point x="407" y="363"/>
      <point x="302" y="410" type="curve"/>
      <point x="231" y="442"/>
      <point x="169" y="466"/>
      <point x="169" y="528" type="curve"/>
      <point x="169" y="578"/>
      <point x="211" y="607"/>
      <point x="271" y="607" type="curve"/>
      <point x="327" y="607"/>
      <point x="366" y="592"/>
      <point x="414" y="567" type="curve"/>
      <point x="465" y="634"/>
      <point x="414" y="567"/>
      <point x="465" y="634" type="curve"/>
      <point x="403" y="668"/>
      <point x="350" y="686"/>
      <point x="276" y="686" type="curve"/>
      <point x="154" y="686"/>
      <point x="65" y="631"/>
      <point x="65" y="528" type="curve"/>
      <point x="65" y="430"/>
      <point x="140" y="382"/>
      <point x="241" y="337" type="curve"/>
      <point x="318" y="304"/>
      <point x="397" y="278"/>
      <point x="397" y="209" type="curve"/>
      <point x="397" y="150"/>
      <point x="338" y="124"/>
      <point x="263" y="124" type="curve"/>
      <point x="206" y="124"/>
      <point x="159" y="146"/>
      <point x="118" y="165" type="curve"/>
      <point x="62" y="94"/>
      <point x="118" y="166"/>
    </contour>
  </outline>
</glyph>
<glyph name="percent" format="1">
  <advance width="1028"/>
  <unicode hex="0025"/>
  <outline>
    <contour>
      <point x="379" y="-55" type="line"/>
      <point x="757" y="724" type="line"/>
      <point x="661" y="724" type="line"/>
      <point x="283" y="-55" type="line"/>
    </contour>
    <contour>
      <point x="129" y="513" type="curve"/>
      <point x="129" y="593"/>
      <point x="154" y="653"/>
      <point x="226" y="653" type="curve"/>
      <point x="299" y="654"/>
      <point x="324" y="593"/>
      <point x="324" y="513" type="curve"/>
      <point x="324" y="432"/>
      <point x="303" y="369"/>
      <point x="232" y="369" type="curve"/>
      <point x="156" y="369"/>
      <point x="129" y="430"/>
      <point x="129" y="513" type="curve"/>
      <point x="95" y="513"/>
      <point x="72" y="513"/>
      <point x="38" y="513" type="curve"/>
      <point x="38" y="384"/>
      <point x="103" y="295"/>
      <point x="227" y="295" type="curve"/>
      <point x="353" y="295"/>
      <point x="420" y="384"/>
      <point x="420" y="516" type="curve"/>
      <point x="420" y="643"/>
      <point x="353" y="729"/>
      <point x="231" y="728" type="curve"/>
      <point x="106" y="728"/>
      <point x="38" y="642"/>
      <point x="38" y="513" type="curve"/>
      <point x="72" y="513"/>
      <point x="95" y="513"/>
    </contour>
    <contour>
      <point x="699" y="160" type="curve"/>
      <point x="699" y="239"/>
      <point x="724" y="300"/>
      <point x="796" y="300" type="curve"/>
      <point x="869" y="301"/>
      <point x="894" y="239"/>
      <point x="894" y="159" type="curve"/>
      <point x="894" y="79"/>
      <point x="873" y="16"/>
      <point x="802" y="16" type="curve"/>
      <point x="726" y="16"/>
      <point x="699" y="77"/>
      <point x="699" y="160" type="curve"/>
      <point x="665" y="160"/>
      <point x="642" y="160"/>
      <point x="608" y="160" type="curve"/>
      <point x="608" y="30"/>
      <point x="673" y="-58"/>
      <point x="797" y="-58" type="curve"/>
      <point x="924" y="-58"/>
      <point x="990" y="31"/>
      <point x="990" y="163" type="curve"/>
      <point x="990" y="290"/>
      <point x="924" y="375"/>
      <point x="801" y="375" type="curve"/>
      <point x="676" y="375"/>
      <point x="608" y="289"/>
      <point x="608" y="160" type="curve"/>
      <point x="642" y="160"/>
      <point x="665" y="160"/>
    </contour>
  </outline>
</glyph>
<glyph name="ampersand" format="1">
  <advance width="650"/>
  <unicode hex="0026"/>
  <outline>
    <contour>
      <point x="628" y="39" type="line"/>
      <point x="535" y="140"/>
      <point x="432" y="263"/>
      <point x="336" y="368" type="curve"/>
      <point x="284" y="428"/>
      <point x="215" y="476"/>
      <point x="215" y="558" type="curve"/>
      <point x="215" y="607"/>
      <point x="237" y="647"/>
      <point x="282" y="647" type="curve"/>
      <point x="330" y="647"/>
      <point x="356" y="612"/>
      <point x="356" y="560" type="curve"/>
      <point x="356" y="486"/>
      <point x="303" y="448"/>
      <point x="239" y="409" type="curve"/>
      <point x="143" y="351"/>
      <point x="56" y="302"/>
      <point x="56" y="192" type="curve"/>
      <point x="56" y="69"/>
      <point x="148" y="-5"/>
      <point x="276" y="-5" type="curve"/>
      <point x="459" y="-5"/>
      <point x="551" y="132"/>
      <point x="606" y="314" type="curve"/>
      <point x="517" y="334"/>
      <point x="606" y="314"/>
      <point x="517" y="334" type="curve"/>
      <point x="474" y="193"/>
      <point x="417" y="76"/>
      <point x="281" y="76" type="curve"/>
      <point x="208" y="76"/>
      <point x="160" y="119"/>
      <point x="160" y="192" type="curve"/>
      <point x="160" y="269"/>
      <point x="216" y="304"/>
      <point x="283" y="345" type="curve"/>
      <point x="376" y="403"/>
      <point x="459" y="453"/>
      <point x="460" y="561" type="curve"/>
      <point x="460" y="664"/>
      <point x="389" y="727"/>
      <point x="285" y="727" type="curve"/>
      <point x="183" y="727"/>
      <point x="117" y="661"/>
      <point x="117" y="558" type="curve"/>
      <point x="117" y="455"/>
      <point x="194" y="395"/>
      <point x="264" y="320" type="curve"/>
      <point x="355" y="216"/>
      <point x="470" y="85"/>
      <point x="559" y="-15" type="curve"/>
    </contour>
  </outline>
</glyph>
<glyph name="quotesingle" format="1">
  <advance width="242"/>
  <unicode hex="0027"/>
  <outline>
    <contour>
      <point x="168" y="603" type="line"/>
      <point x="176" y="814" type="line"/>
      <point x="67" y="814" type="line"/>
      <point x="74" y="603" type="line"/>
    </contour>
  </outline>
</glyph>
<glyph name="parenleft" format="1">
  <advance width="351"/>
  <unicode hex="0028"/>
  <outline>
    <contour>
      <point x="345" y="-215" type="curve"/>
      <point x="200" y="-50"/>
      <point x="148" y="105"/>
      <point x="148" y="326" type="curve"/>
      <point x="148" y="548"/>
      <point x="200" y="702"/>
      <point x="343" y="870" type="curve"/>
      <point x="281" y="922"/>
      <point x="343" y="870"/>
      <point x="281" y="922" type="curve"/>
      <point x="120" y="738"/>
      <point x="46" y="573"/>
      <point x="46" y="326" type="curve"/>
      <point x="46" y="78"/>
      <point x="120" y="-86"/>
      <point x="282" y="-272" type="curve"/>
      <point x="345" y="-215"/>
      <point x="282" y="-272"/>
    </contour>
  </outline>
</glyph>
<glyph name="parenright" format="1">
  <advance width="358"/>
  <unicode hex="0029"/>
  <outline>
    <contour>
      <point x="63" y="-286" type="curve"/>
      <point x="228" y="-93"/>
      <point x="312" y="73"/>
      <point x="312" y="328" type="curve"/>
      <point x="312" y="578"/>
      <point x="235" y="741"/>
      <point x="67" y="924" type="curve"/>
      <point x="5" y="867"/>
      <point x="67" y="924"/>
      <point x="5" y="867" type="curve"/>
      <point x="153" y="701"/>
      <point x="210" y="548"/>
      <point x="210" y="325" type="curve"/>
      <point x="210" y="97"/>
      <point x="145" y="-58"/>
      <point x="1" y="-233" type="curve"/>
      <point x="63" y="-286"/>
      <point x="1" y="-233"/>
    </contour>
  </outline>
</glyph>
<glyph name="asterisk" format="1">
  <advance width="565"/>
  <unicode hex="002A"/>
  <outline>
    <contour>
      <point x="316" y="560" type="line"/>
      <point x="322" y="770" type="line"/>
      <point x="242" y="770" type="line"/>
      <point x="248" y="560" type="line"/>
    </contour>
    <contour>
      <point x="305" y="520" type="line"/>
      <point x="506" y="585" type="line"/>
      <point x="478" y="659" type="line"/>
      <point x="282" y="584" type="line"/>
    </contour>
    <contour>
      <point x="264" y="517" type="line"/>
      <point x="391" y="350" type="line"/>
      <point x="453" y="401" type="line"/>
      <point x="317" y="561" type="line"/>
    </contour>
    <contour>
      <point x="250" y="560" type="line"/>
      <point x="115" y="400" type="line"/>
      <point x="175" y="349" type="line"/>
      <point x="303" y="517" type="line"/>
    </contour>
    <contour>
      <point x="283" y="583" type="line"/>
      <point x="86" y="658" type="line"/>
      <point x="59" y="583" type="line"/>
      <point x="260" y="519" type="line"/>
    </contour>
  </outline>
</glyph>
<glyph name="plus" format="1">
  <advance width="633"/>
  <unicode hex="002B"/>
  <outline>
    <contour>
      <point x="45" y="269" type="curve"/>
      <point x="588" y="269" type="line"/>
      <point x="588" y="356"/>
      <point x="588" y="269"/>
      <point x="588" y="356" type="curve"/>
      <point x="45" y="356" type="line"/>
      <point x="45" y="269"/>
      <point x="45" y="356"/>
    </contour>
    <contour>
      <point x="366" y="37" type="curve"/>
      <point x="366" y="583" type="line"/>
      <point x="262" y="583"/>
      <point x="372" y="583"/>
      <point x="268" y="583" type="curve"/>
      <point x="268" y="37" type="line"/>
      <point x="372" y="37"/>
      <point x="262" y="37"/>
    </contour>
  </outline>
</glyph>
<glyph name="comma" format="1">
  <advance width="263"/>
  <unicode hex="002C"/>
  <outline>
    <contour>
      <point x="57" y="-115" type="line"/>
      <point x="133" y="-107"/>
      <point x="186" y="-51"/>
      <point x="186" y="36" type="curve"/>
      <point x="186" y="100"/>
      <point x="161" y="139"/>
      <point x="120" y="139" type="curve"/>
      <point x="87" y="139"/>
      <point x="63" y="120"/>
      <point x="63" y="85" type="curve"/>
      <point x="63" y="55"/>
      <point x="82" y="34"/>
      <point x="114" y="32" type="curve"/>
      <point x="113" y="4"/>
      <point x="105" y="-42"/>
      <point x="51" y="-58" type="curve"/>
    </contour>
  </outline>
</glyph>
<glyph name="period" format="1">
  <advance width="252"/>
  <unicode hex="002E"/>
  <outline>
    <contour>
      <point x="184" y="45" type="curve"/>
      <point x="184" y="80"/>
      <point x="159" y="98"/>
      <point x="125" y="98" type="curve"/>
      <point x="91" y="98"/>
      <point x="69" y="79"/>
      <point x="69" y="45" type="curve"/>
      <point x="182" y="45"/>
      <point x="71" y="45"/>
      <point x="184" y="45" type="curve"/>
      <point x="184" y="9"/>
      <point x="160" y="-8"/>
      <point x="125" y="-8" type="curve"/>
      <point x="90" y="-8"/>
      <point x="69" y="10"/>
      <point x="69" y="45" type="curve"/>
      <point x="182" y="45"/>
      <point x="71" y="45"/>
    </contour>
  </outline>
</glyph>
<glyph name="slash" format="1">
  <advance width="541"/>
  <unicode hex="002F"/>
  <outline>
    <contour>
      <point x="133" y="-32" type="curve"/>
      <point x="259" y="246"/>
      <point x="386" y="525"/>
      <point x="512" y="803" type="curve"/>
      <point x="408" y="803"/>
      <point x="512" y="803"/>
      <point x="408" y="803" type="curve"/>
      <point x="282" y="525"/>
      <point x="156" y="246"/>
      <point x="30" y="-32" type="curve"/>
      <point x="133" y="-32"/>
      <point x="30" y="-32"/>
    </contour>
  </outline>
</glyph>
<glyph name="one" format="1">
  <advance width="438"/>
  <unicode hex="0031"/>
  <outline>
    <contour>
      <point x="259" y="0" type="curve"/>
      <point x="306" y="0"/>
      <point x="353" y="0"/>
      <point x="402" y="0" type="curve"/>
      <point x="402" y="81"/>
      <point x="402" y="0"/>
      <point x="402" y="81" type="curve"/>
      <point x="259" y="81"/>
      <point x="402" y="81"/>
      <point x="259" y="81" type="curve"/>
      <point x="259" y="0"/>
      <point x="259" y="81"/>
    </contour>
    <contour>
      <point x="259" y="81" type="curve"/>
      <point x="112" y="81"/>
      <point x="259" y="81"/>
      <point x="112" y="81" type="curve"/>
      <point x="112" y="0"/>
      <point x="112" y="81"/>
      <point x="112" y="0" type="curve"/>
      <point x="161" y="0"/>
      <point x="209" y="0"/>
      <point x="259" y="0" type="curve"/>
      <point x="259" y="81"/>
      <point x="259" y="0"/>
    </contour>
    <contour>
      <point x="85" y="495" type="curve"/>
      <point x="282" y="670"/>
      <point x="85" y="495"/>
      <point x="282" y="670" type="curve"/>
      <point x="205" y="722"/>
      <point x="282" y="670"/>
      <point x="205" y="722" type="curve"/>
      <point x="28" y="562"/>
      <point x="205" y="722"/>
      <point x="28" y="562" type="curve"/>
      <point x="85" y="495"/>
      <point x="28" y="562"/>
    </contour>
    <contour>
      <point x="308" y="0" type="curve"/>
      <point x="308" y="241"/>
      <point x="308" y="481"/>
      <point x="308" y="722" type="curve"/>
      <point x="205" y="722"/>
      <point x="308" y="722"/>
      <point x="205" y="722" type="curve"/>
      <point x="205" y="481"/>
      <point x="205" y="241"/>
      <point x="205" y="0" type="curve"/>
      <point x="308" y="0"/>
      <point x="205" y="0"/>
    </contour>
  </outline>
</glyph>
<glyph name="three" format="1">
  <advance width="525"/>
  <unicode hex="0033"/>
  <outline>
    <contour>
      <point x="48" y="57" type="curve"/>
      <point x="101" y="20"/>
      <point x="154" y="-5"/>
      <point x="227" y="-5" type="curve"/>
      <point x="374" y="-5"/>
      <point x="468" y="62"/>
      <point x="468" y="207" type="curve"/>
      <point x="468" y="339"/>
      <point x="339" y="404"/>
      <point x="152" y="404" type="curve"/>
      <point x="152" y="339"/>
      <point x="152" y="401"/>
      <point x="152" y="336" type="curve"/>
      <point x="270" y="336"/>
      <point x="369" y="291"/>
      <point x="369" y="204" type="curve"/>
      <point x="369" y="118"/>
      <point x="308" y="80"/>
      <point x="231" y="80" type="curve"/>
      <point x="184" y="80"/>
      <point x="145" y="94"/>
      <point x="101" y="120" type="curve"/>
      <point x="48" y="57"/>
      <point x="101" y="120"/>
    </contour>
    <contour>
      <point x="112" y="583" type="curve"/>
      <point x="135" y="611"/>
      <point x="176" y="643"/>
      <point x="225" y="643" type="curve"/>
      <point x="296" y="643"/>
      <point x="340" y="607"/>
      <point x="340" y="534" type="curve"/>
      <point x="340" y="457"/>
      <point x="257" y="417"/>
      <point x="152" y="417" type="curve"/>
      <point x="152" y="352"/>
      <point x="152" y="413"/>
      <point x="152" y="349" type="curve"/>
      <point x="315" y="349"/>
      <point x="438" y="411"/>
      <point x="438" y="537" type="curve"/>
      <point x="438" y="661"/>
      <point x="358" y="727"/>
      <point x="233" y="727" type="curve"/>
      <point x="153" y="727"/>
      <point x="84" y="684"/>
      <point x="50" y="637" type="curve"/>
      <point x="112" y="583"/>
      <point x="50" y="637"/>
    </contour>
  </outline>
</glyph>
<glyph name="seven" format="1">
  <advance width="518"/>
  <unicode hex="0037"/>
  <outline>
    <contour>
      <point x="137" y="545" type="line"/>
      <point x="137" y="648" type="line"/>
      <point x="56" y="648" type="line"/>
      <point x="56" y="545" type="line"/>
    </contour>
    <contour>
      <point x="56" y="642" type="line"/>
      <point x="498" y="642" type="line"/>
      <point x="498" y="722" type="line"/>
      <point x="56" y="722" type="line"/>
    </contour>
    <contour>
      <point x="438" y="722" type="line"/>
      <point x="69" y="0" type="line"/>
      <point x="178" y="0" type="line"/>
      <point x="498" y="642" type="line"/>
    </contour>
  </outline>
</glyph>
<glyph name="eight" format="1">
  <advance width="564"/>
  <unicode hex="0038"/>
  <outline>
    <contour>
      <point x="76" y="545" type="curve"/>
      <point x="76" y="437"/>
      <point x="153" y="400"/>
      <point x="252" y="349" type="curve"/>
      <point x="335" y="305"/>
      <point x="400" y="273"/>
      <point x="400" y="186" type="curve"/>
      <point x="400" y="115"/>
      <point x="356" y="79"/>
      <point x="282" y="79" type="curve"/>
      <point x="208" y="79"/>
      <point x="163" y="115"/>
      <point x="163" y="186" type="curve"/>
      <point x="163" y="275"/>
      <point x="230" y="304"/>
      <point x="315" y="349" type="curve"/>
      <point x="410" y="401"/>
      <point x="487" y="437"/>
      <point x="487" y="544" type="curve"/>
      <point x="487" y="667"/>
      <point x="411" y="727"/>
      <point x="282" y="727" type="curve"/>
      <point x="157" y="727"/>
      <point x="76" y="666"/>
      <point x="76" y="545" type="curve"/>
      <point x="180" y="545"/>
      <point x="76" y="545"/>
      <point x="180" y="545" type="curve"/>
      <point x="180" y="607"/>
      <point x="216" y="644"/>
      <point x="279" y="644" type="curve"/>
      <point x="346" y="644"/>
      <point x="384" y="610"/>
      <point x="384" y="544" type="curve"/>
      <point x="384" y="468"/>
      <point x="324" y="443"/>
      <point x="251" y="406" type="curve"/>
      <point x="142" y="348"/>
      <point x="59" y="307"/>
      <point x="59" y="186" type="curve"/>
      <point x="59" y="58"/>
      <point x="144" y="-5"/>
      <point x="277" y="-5" type="curve"/>
      <point x="414" y="-5"/>
      <point x="504" y="55"/>
      <point x="504" y="186" type="curve"/>
      <point x="504" y="305"/>
      <point x="422" y="349"/>
      <point x="315" y="406" type="curve"/>
      <point x="242" y="446"/>
      <point x="180" y="469"/>
      <point x="180" y="545" type="curve"/>
      <point x="76" y="545"/>
      <point x="180" y="545"/>
    </contour>
  </outline>
</glyph>
<glyph name="nine" format="1">
  <advance width="575"/>
  <unicode hex="0039"/>
  <outline>
    <contour>
      <point x="441" y="484" type="curve"/>
      <point x="409" y="410"/>
      <point x="364" y="369"/>
      <point x="283" y="369" type="curve"/>
      <point x="201" y="369"/>
      <point x="156" y="423"/>
      <point x="156" y="508" type="curve"/>
      <point x="156" y="586"/>
      <point x="199" y="637"/>
      <point x="274" y="637" type="curve"/>
      <point x="372" y="637"/>
      <point x="420" y="570"/>
      <point x="420" y="468" type="curve"/>
      <point x="420" y="253"/>
      <point x="292" y="136"/>
      <point x="80" y="68" type="curve"/>
      <point x="115" y="-13"/>
      <point x="80" y="68"/>
      <point x="115" y="-13" type="curve"/>
      <point x="355" y="58"/>
      <point x="520" y="208"/>
      <point x="520" y="473" type="curve"/>
      <point x="520" y="631"/>
      <point x="433" y="732"/>
      <point x="278" y="732" type="curve"/>
      <point x="138" y="732"/>
      <point x="55" y="645"/>
      <point x="55" y="504" type="curve"/>
      <point x="55" y="367"/>
      <point x="137" y="285"/>
      <point x="274" y="285" type="curve"/>
      <point x="392" y="285"/>
      <point x="456" y="368"/>
      <point x="492" y="462" type="curve"/>
      <point x="441" y="484"/>
      <point x="492" y="462"/>
    </contour>
  </outline>
</glyph>
<glyph name="colon" format="1">
  <advance width="264"/>
  <unicode hex="003A"/>
  <outline>
    <contour>
      <point x="189" y="382" type="curve"/>
      <point x="189" y="418"/>
      <point x="165" y="436"/>
      <point x="131" y="436" type="curve"/>
      <point x="97" y="436"/>
      <point x="74" y="417"/>
      <point x="74" y="382" type="curve"/>
      <point x="187" y="382"/>
      <point x="77" y="382"/>
      <point x="189" y="382" type="curve"/>
      <point x="189" y="346"/>
      <point x="165" y="330"/>
      <point x="131" y="330" type="curve"/>
      <point x="97" y="330"/>
      <point x="74" y="348"/>
      <point x="74" y="382" type="curve"/>
      <point x="187" y="382"/>
      <point x="77" y="382"/>
    </contour>
    <contour>
      <point x="189" y="47" type="curve"/>
      <point x="189" y="83"/>
      <point x="165" y="100"/>
      <point x="131" y="100" type="curve"/>
      <point x="97" y="100"/>
      <point x="74" y="81"/>
      <point x="74" y="47" type="curve"/>
      <point x="187" y="47"/>
      <point x="76" y="47"/>
      <point x="189" y="47" type="curve"/>
      <point x="189" y="11"/>
      <point x="165" y="-6"/>
      <point x="130" y="-6" type="curve"/>
      <point x="96" y="-6"/>
      <point x="74" y="12"/>
      <point x="74" y="47" type="curve"/>
      <point x="187" y="47"/>
      <point x="76" y="47"/>
    </contour>
  </outline>
</glyph>
<glyph name="semicolon" format="1">
  <advance width="289"/>
  <unicode hex="003B"/>
  <outline>
    <contour>
      <point x="76" y="-165" type="line"/>
      <point x="156" y="-156"/>
      <point x="212" y="-100"/>
      <point x="212" y="-13" type="curve"/>
      <point x="212" y="50"/>
      <point x="185" y="90"/>
      <point x="143" y="90" type="curve"/>
      <point x="107" y="90"/>
      <point x="82" y="71"/>
      <point x="82" y="36" type="curve"/>
      <point x="82" y="5"/>
      <point x="102" y="-15"/>
      <point x="136" y="-17" type="curve"/>
      <point x="135" y="-47"/>
      <point x="128" y="-92"/>
      <point x="71" y="-108" type="curve"/>
    </contour>
    <contour>
      <point x="201" y="395" type="curve"/>
      <point x="201" y="430"/>
      <point x="176" y="448"/>
      <point x="142" y="448" type="curve"/>
      <point x="108" y="448"/>
      <point x="86" y="428"/>
      <point x="86" y="395" type="curve"/>
      <point x="199" y="395"/>
      <point x="88" y="395"/>
      <point x="201" y="395" type="curve"/>
      <point x="201" y="358"/>
      <point x="177" y="342"/>
      <point x="142" y="342" type="curve"/>
      <point x="108" y="342"/>
      <point x="86" y="360"/>
      <point x="86" y="395" type="curve"/>
      <point x="199" y="395"/>
      <point x="88" y="395"/>
    </contour>
  </outline>
</glyph>
<glyph name="equal" format="1">
  <advance width="713"/>
  <unicode hex="003D"/>
  <outline>
    <contour>
      <point x="78" y="175" type="curve"/>
      <point x="263" y="175"/>
      <point x="449" y="175"/>
      <point x="635" y="175" type="curve"/>
      <point x="635" y="260"/>
      <point x="635" y="175"/>
      <point x="635" y="260" type="curve"/>
      <point x="449" y="260"/>
      <point x="263" y="260"/>
      <point x="78" y="260" type="curve"/>
      <point x="78" y="175"/>
      <point x="78" y="260"/>
    </contour>
    <contour>
      <point x="78" y="397" type="curve"/>
      <point x="263" y="397"/>
      <point x="449" y="397"/>
      <point x="635" y="397" type="curve"/>
      <point x="635" y="482"/>
      <point x="635" y="397"/>
      <point x="635" y="482" type="curve"/>
      <point x="449" y="482"/>
      <point x="263" y="482"/>
      <point x="78" y="482" type="curve"/>
      <point x="78" y="397"/>
      <point x="78" y="482"/>
    </contour>
  </outline>
</glyph>
<glyph name="greater" format="1">
  <advance width="649"/>
  <unicode hex="003E"/>
  <outline>
    <contour>
      <point x="70" y="-8" type="curve"/>
      <point x="249" y="82"/>
      <point x="431" y="172"/>
      <point x="610" y="262" type="curve"/>
      <point x="610" y="350"/>
      <point x="610" y="262"/>
      <point x="610" y="350" type="curve"/>
      <point x="431" y="260"/>
      <point x="249" y="170"/>
      <point x="70" y="80" type="curve"/>
      <point x="70" y="-8"/>
      <point x="70" y="80"/>
    </contour>
    <contour>
      <point x="61" y="526" type="curve"/>
      <point x="243" y="438"/>
      <point x="427" y="350"/>
      <point x="610" y="262" type="curve"/>
      <point x="610" y="350"/>
      <point x="610" y="262"/>
      <point x="610" y="350" type="curve"/>
      <point x="427" y="438"/>
      <point x="243" y="526"/>
      <point x="61" y="614" type="curve"/>
      <point x="61" y="526"/>
      <point x="61" y="614"/>
    </contour>
  </outline>
</glyph>
<glyph name="question" format="1">
  <advance width="503"/>
  <unicode hex="003F"/>
  <outline>
    <contour>
      <point x="181" y="364" type="curve"/>
      <point x="181" y="327"/>
      <point x="181" y="258"/>
      <point x="181" y="221" type="curve"/>
      <point x="279" y="221"/>
      <point x="181" y="221"/>
      <point x="279" y="221" type="curve"/>
      <point x="279" y="258"/>
      <point x="279" y="327"/>
      <point x="279" y="364" type="curve"/>
      <point x="181" y="364"/>
      <point x="279" y="364"/>
    </contour>
    <contour>
      <point x="99" y="592" type="line"/>
      <point x="130" y="628"/>
      <point x="170" y="654"/>
      <point x="224" y="654" type="curve"/>
      <point x="305" y="654"/>
      <point x="352" y="600"/>
      <point x="352" y="518" type="curve"/>
      <point x="352" y="425"/>
      <point x="291" y="364"/>
      <point x="193" y="364" type="curve"/>
      <point x="193" y="332"/>
      <point x="192" y="318"/>
      <point x="192" y="286" type="curve"/>
      <point x="348" y="286"/>
      <point x="451" y="374"/>
      <point x="451" y="518" type="curve"/>
      <point x="451" y="655"/>
      <point x="362" y="738"/>
      <point x="229" y="738" type="curve"/>
      <point x="148" y="738"/>
      <point x="89" y="709"/>
      <point x="44" y="656" type="curve"/>
    </contour>
    <contour>
      <point x="288" y="36" type="curve"/>
      <point x="288" y="72"/>
      <point x="264" y="89"/>
      <point x="230" y="89" type="curve"/>
      <point x="196" y="89"/>
      <point x="174" y="70"/>
      <point x="174" y="36" type="curve"/>
      <point x="288" y="36"/>
      <point x="174" y="36"/>
      <point x="288" y="36" type="curve"/>
      <point x="288" y="0"/>
      <point x="265" y="-16"/>
      <point x="230" y="-16" type="curve"/>
      <point x="196" y="-16"/>
      <point x="174" y="3"/>
      <point x="174" y="36" type="curve"/>
      <point x="288" y="36"/>
      <point x="174" y="36"/>
    </contour>
  </outline>
</glyph>
<glyph name="at" format="1">
  <advance width="794"/>
  <unicode hex="0040"/>
  <outline>
    <contour>
      <point x="534" y="-35" type="curve"/>
      <point x="492" y="-58"/>
      <point x="459" y="-66"/>
      <point x="412" y="-66" type="curve"/>
      <point x="244" y="-66"/>
      <point x="146" y="38"/>
      <point x="146" y="208" type="curve"/>
      <point x="146" y="373"/>
      <point x="242" y="473"/>
      <point x="404" y="473" type="curve"/>
      <point x="557" y="473"/>
      <point x="646" y="372"/>
      <point x="646" y="213" type="curve"/>
      <point x="646" y="153"/>
      <point x="643" y="101"/>
      <point x="607" y="101" type="curve"/>
      <point x="570" y="101"/>
      <point x="564" y="151"/>
      <point x="564" y="213" type="curve"/>
      <point x="564" y="325"/>
      <point x="505" y="399"/>
      <point x="397" y="399" type="curve"/>
      <point x="279" y="399"/>
      <point x="221" y="328"/>
      <point x="221" y="210" type="curve"/>
      <point x="221" y="90"/>
      <point x="273" y="13"/>
      <point x="386" y="13" type="curve"/>
      <point x="490" y="13"/>
      <point x="533" y="88"/>
      <point x="548" y="196" type="curve"/>
      <point x="483" y="212"/>
      <point x="548" y="196"/>
      <point x="483" y="212" type="curve"/>
      <point x="469" y="148"/>
      <point x="458" y="93"/>
      <point x="399" y="93" type="curve"/>
      <point x="339" y="93"/>
      <point x="315" y="143"/>
      <point x="315" y="214" type="curve"/>
      <point x="315" y="276"/>
      <point x="334" y="319"/>
      <point x="390" y="319" type="curve"/>
      <point x="451" y="319"/>
      <point x="470" y="273"/>
      <point x="470" y="209" type="curve"/>
      <point x="470" y="103"/>
      <point x="502" y="25"/>
      <point x="599" y="25" type="curve"/>
      <point x="701" y="25"/>
      <point x="737" y="105"/>
      <point x="737" y="217" type="curve"/>
      <point x="737" y="429"/>
      <point x="617" y="557"/>
      <point x="407" y="557" type="curve"/>
      <point x="183" y="557"/>
      <point x="53" y="427"/>
      <point x="53" y="204" type="curve"/>
      <point x="53" y="-17"/>
      <point x="185" y="-147"/>
      <point x="406" y="-147" type="curve"/>
      <point x="474" y="-147"/>
      <point x="519" y="-135"/>
      <point x="572" y="-103" type="curve"/>
      <point x="534" y="-35"/>
      <point x="572" y="-103"/>
    </contour>
  </outline>
</glyph>
<glyph name="F" format="1">
  <advance width="584"/>
  <unicode hex="0046"/>
  <outline>
    <contour>
      <point x="195" y="0" type="curve"/>
      <point x="243" y="0"/>
      <point x="195" y="0"/>
      <point x="339" y="0" type="curve"/>
      <point x="339" y="80"/>
      <point x="339" y="0"/>
      <point x="339" y="80" type="curve"/>
      <point x="195" y="80"/>
      <point x="339" y="80"/>
      <point x="195" y="80" type="curve"/>
      <point x="195" y="0"/>
      <point x="195" y="80"/>
    </contour>
    <contour>
      <point x="195" y="722" type="curve"/>
      <point x="148" y="722"/>
      <point x="105" y="722"/>
      <point x="57" y="722" type="curve"/>
      <point x="57" y="642"/>
      <point x="57" y="722"/>
      <point x="57" y="642" type="curve"/>
      <point x="200" y="642"/>
      <point x="52" y="642"/>
      <point x="195" y="642" type="curve"/>
      <point x="195" y="722"/>
      <point x="195" y="642"/>
    </contour>
    <contour>
      <point x="195" y="80" type="curve"/>
      <point x="52" y="80"/>
      <point x="200" y="80"/>
      <point x="57" y="80" type="curve"/>
      <point x="57" y="0"/>
      <point x="57" y="80"/>
      <point x="57" y="0" type="curve"/>
      <point x="105" y="0"/>
      <point x="148" y="0"/>
      <point x="195" y="0" type="curve"/>
      <point x="195" y="80"/>
      <point x="195" y="0"/>
    </contour>
    <contour>
      <point x="468" y="682" type="curve"/>
      <point x="468" y="562"/>
      <point x="468" y="685"/>
      <point x="468" y="565" type="curve"/>
      <point x="549" y="565"/>
      <point x="468" y="565"/>
      <point x="549" y="565" type="curve"/>
      <point x="549" y="685"/>
      <point x="549" y="562"/>
      <point x="549" y="682" type="curve"/>
      <point x="468" y="682"/>
      <point x="549" y="682"/>
    </contour>
    <contour>
      <point x="199" y="333" type="curve"/>
      <point x="294" y="333"/>
      <point x="389" y="333"/>
      <point x="485" y="333" type="curve"/>
      <point x="485" y="413"/>
      <point x="485" y="333"/>
      <point x="485" y="413" type="curve"/>
      <point x="389" y="413"/>
      <point x="294" y="413"/>
      <point x="199" y="413" type="curve"/>
      <point x="199" y="333"/>
      <point x="199" y="413"/>
    </contour>
    <contour>
      <point x="248" y="0" type="curve"/>
      <point x="248" y="722" type="line"/>
      <point x="144" y="722"/>
      <point x="248" y="722"/>
      <point x="144" y="722" type="curve"/>
      <point x="144" y="481"/>
      <point x="144" y="241"/>
      <point x="144" y="0" type="curve"/>
      <point x="248" y="0"/>
      <point x="144" y="0"/>
    </contour>
    <contour>
      <point x="186" y="642" type="curve"/>
      <point x="307" y="642"/>
      <point x="428" y="642"/>
      <point x="549" y="642" type="curve"/>
      <point x="549" y="722"/>
      <point x="549" y="642"/>
      <point x="549" y="722" type="curve"/>
      <point x="428" y="722"/>
      <point x="307" y="722"/>
      <point x="186" y="722" type="curve"/>
      <point x="186" y="642"/>
      <point x="186" y="722"/>
    </contour>
  </outline>
</glyph>
<glyph name="G" format="1">
  <advance width="735"/>
  <unicode hex="0047"/>
  <outline>
    <contour>
      <point x="386" y="796" type="move" name="top"/>
    </contour>
    <contour>
      <point x="426" y="-18" type="move" name="bottom"/>
    </contour>
    <contour>
      <point x="573" y="644" type="curve"/>
      <point x="573" y="515"/>
      <point x="573" y="640"/>
      <point x="573" y="510" type="curve"/>
      <point x="655" y="510"/>
      <point x="573" y="510"/>
      <point x="655" y="510" type="curve"/>
      <point x="655" y="640"/>
      <point x="655" y="515"/>
      <point x="655" y="644" type="curve"/>
      <point x="573" y="644"/>
      <point x="655" y="644"/>
    </contour>
    <contour>
      <point x="642" y="352" type="curve"/>
      <point x="577" y="352"/>
      <point x="512" y="352"/>
      <point x="446" y="352" type="curve"/>
      <point x="446" y="273"/>
      <point x="446" y="352"/>
      <point x="446" y="273" type="curve"/>
      <point x="512" y="273"/>
      <point x="577" y="273"/>
      <point x="642" y="273" type="curve"/>
      <point x="642" y="352"/>
      <point x="642" y="273"/>
    </contour>
    <contour>
      <point x="670" y="78" type="curve"/>
      <point x="670" y="170"/>
      <point x="670" y="261"/>
      <point x="670" y="352" type="curve"/>
      <point x="575" y="352"/>
      <point x="670" y="352"/>
      <point x="575" y="352" type="curve"/>
      <point x="575" y="261"/>
      <point x="575" y="170"/>
      <point x="575" y="78" type="curve"/>
      <point x="670" y="78"/>
      <point x="575" y="78"/>
    </contour>
    <contour>
      <point x="655" y="644" type="curve"/>
      <point x="571" y="701"/>
      <point x="491" y="727"/>
      <point x="389" y="727" type="curve"/>
      <point x="171" y="727"/>
      <point x="55" y="587"/>
      <point x="55" y="362" type="curve"/>
      <point x="55" y="133"/>
      <point x="177" y="-5"/>
      <point x="399" y="-5" type="curve"/>
      <point x="507" y="-5"/>
      <point x="576" y="24"/>
      <point x="670" y="78" type="curve"/>
      <point x="617" y="139"/>
      <point x="670" y="78"/>
      <point x="617" y="139" type="curve"/>
      <point x="547" y="98"/>
      <point x="485" y="80"/>
      <point x="399" y="80" type="curve"/>
      <point x="233" y="80"/>
      <point x="160" y="194"/>
      <point x="160" y="370" type="curve"/>
      <point x="160" y="534"/>
      <point x="233" y="643"/>
      <point x="389" y="643" type="curve"/>
      <point x="471" y="643"/>
      <point x="535" y="621"/>
      <point x="603" y="576" type="curve"/>
      <point x="655" y="644"/>
      <point x="603" y="576"/>
    </contour>
  </outline>
</glyph>
<glyph name="H" format="1">
  <advance width="801"/>
  <unicode hex="0048"/>
  <outline>
    <contour>
      <point x="623" y="642" type="curve"/>
      <point x="772" y="642"/>
      <point x="613" y="642"/>
      <point x="761" y="642" type="curve"/>
      <point x="761" y="722"/>
      <point x="761" y="642"/>
      <point x="761" y="722" type="curve"/>
      <point x="712" y="722"/>
      <point x="672" y="722"/>
      <point x="623" y="722" type="curve"/>
      <point x="623" y="642"/>
      <point x="623" y="722"/>
    </contour>
    <contour>
      <point x="623" y="0" type="curve"/>
      <point x="672" y="0"/>
      <point x="712" y="0"/>
      <point x="761" y="0" type="curve"/>
      <point x="761" y="80"/>
      <point x="761" y="0"/>
      <point x="761" y="80" type="curve"/>
      <point x="613" y="80"/>
      <point x="772" y="80"/>
      <point x="623" y="80" type="curve"/>
      <point x="623" y="0"/>
      <point x="623" y="80"/>
    </contour>
    <contour>
      <point x="623" y="80" type="curve"/>
      <point x="475" y="80"/>
      <point x="634" y="80"/>
      <point x="485" y="80" type="curve"/>
      <point x="485" y="0"/>
      <point x="485" y="80"/>
      <point x="485" y="0" type="curve"/>
      <point x="534" y="0"/>
      <point x="574" y="0"/>
      <point x="623" y="0" type="curve"/>
      <point x="623" y="80"/>
      <point x="623" y="0"/>
    </contour>
    <contour>
      <point x="623" y="722" type="curve"/>
      <point x="574" y="722"/>
      <point x="534" y="722"/>
      <point x="485" y="722" type="curve"/>
      <point x="485" y="642"/>
      <point x="485" y="722"/>
      <point x="485" y="642" type="curve"/>
      <point x="634" y="642"/>
      <point x="475" y="642"/>
      <point x="623" y="642" type="curve"/>
      <point x="623" y="722"/>
      <point x="623" y="642"/>
    </contour>
    <contour>
      <point x="179" y="642" type="curve"/>
      <point x="327" y="642"/>
      <point x="168" y="642"/>
      <point x="317" y="642" type="curve"/>
      <point x="317" y="722"/>
      <point x="317" y="642"/>
      <point x="317" y="722" type="curve"/>
      <point x="268" y="722"/>
      <point x="229" y="722"/>
      <point x="179" y="722" type="curve"/>
      <point x="179" y="642"/>
      <point x="179" y="722"/>
    </contour>
    <contour>
      <point x="179" y="722" type="curve"/>
      <point x="130" y="722"/>
      <point x="90" y="722"/>
      <point x="40" y="722" type="curve"/>
      <point x="40" y="642"/>
      <point x="40" y="722"/>
      <point x="40" y="642" type="curve"/>
      <point x="188" y="642"/>
      <point x="30" y="642"/>
      <point x="179" y="642" type="curve"/>
      <point x="179" y="722"/>
      <point x="179" y="642"/>
    </contour>
    <contour>
      <point x="179" y="0" type="curve"/>
      <point x="229" y="0"/>
      <point x="168" y="0"/>
      <point x="317" y="0" type="curve"/>
      <point x="317" y="80"/>
      <point x="317" y="0"/>
      <point x="317" y="80" type="curve"/>
      <point x="168" y="80"/>
      <point x="327" y="80"/>
      <point x="179" y="80" type="curve"/>
      <point x="179" y="0"/>
      <point x="179" y="80"/>
    </contour>
    <contour>
      <point x="179" y="80" type="curve"/>
      <point x="30" y="80"/>
      <point x="188" y="80"/>
      <point x="40" y="80" type="curve"/>
      <point x="40" y="0"/>
      <point x="40" y="80"/>
      <point x="40" y="0" type="curve"/>
      <point x="90" y="0"/>
      <point x="130" y="0"/>
      <point x="179" y="0" type="curve"/>
      <point x="179" y="80"/>
      <point x="179" y="0"/>
    </contour>
    <contour>
      <point x="231" y="0" type="curve"/>
      <point x="231" y="722" type="line"/>
      <point x="127" y="722"/>
      <point x="231" y="722"/>
      <point x="127" y="722" type="curve"/>
      <point x="127" y="481"/>
      <point x="127" y="241"/>
      <point x="127" y="0" type="curve"/>
      <point x="231" y="0"/>
      <point x="127" y="0"/>
    </contour>
    <contour>
      <point x="620" y="403" type="curve"/>
      <point x="473" y="403"/>
      <point x="326" y="403"/>
      <point x="179" y="403" type="curve"/>
      <point x="179" y="322"/>
      <point x="179" y="403"/>
      <point x="179" y="322" type="curve"/>
      <point x="326" y="322"/>
      <point x="473" y="322"/>
      <point x="620" y="322" type="curve"/>
      <point x="620" y="403"/>
      <point x="620" y="322"/>
    </contour>
    <contour>
      <point x="674" y="31" type="curve"/>
      <point x="674" y="251"/>
      <point x="674" y="471"/>
      <point x="674" y="691" type="curve"/>
      <point x="570" y="691"/>
      <point x="674" y="691"/>
      <point x="570" y="691" type="curve"/>
      <point x="570" y="31" type="line"/>
      <point x="674" y="31"/>
      <point x="570" y="31"/>
    </contour>
  </outline>
</glyph>
<glyph name="J" format="1">
  <advance width="445"/>
  <unicode hex="004A"/>
  <outline>
    <contour>
      <point x="286" y="722" type="curve"/>
      <point x="238" y="722"/>
      <point x="200" y="722"/>
      <point x="151" y="722" type="curve"/>
      <point x="151" y="642"/>
      <point x="151" y="722"/>
      <point x="151" y="642" type="curve"/>
      <point x="297" y="642"/>
      <point x="141" y="642"/>
      <point x="286" y="642" type="curve"/>
      <point x="286" y="722"/>
      <point x="286" y="642"/>
    </contour>
    <contour>
      <point x="286" y="642" type="curve"/>
      <point x="431" y="642"/>
      <point x="276" y="642"/>
      <point x="421" y="642" type="curve"/>
      <point x="421" y="722"/>
      <point x="421" y="642"/>
      <point x="421" y="722" type="curve"/>
      <point x="373" y="722"/>
      <point x="335" y="722"/>
      <point x="286" y="722" type="curve"/>
      <point x="286" y="642"/>
      <point x="286" y="722"/>
    </contour>
    <contour>
      <point x="9" y="43" type="curve"/>
      <point x="39" y="21"/>
      <point x="80" y="-4"/>
      <point x="134" y="-4" type="curve"/>
      <point x="272" y="-4"/>
      <point x="338" y="82"/>
      <point x="338" y="235" type="curve"/>
      <point x="338" y="402"/>
      <point x="338" y="554"/>
      <point x="338" y="722" type="curve"/>
      <point x="238" y="722"/>
      <point x="334" y="722"/>
      <point x="234" y="722" type="curve"/>
      <point x="234" y="554"/>
      <point x="234" y="402"/>
      <point x="234" y="235" type="curve"/>
      <point x="234" y="145"/>
      <point x="214" y="77"/>
      <point x="134" y="77" type="curve"/>
      <point x="101" y="77"/>
      <point x="80" y="91"/>
      <point x="56" y="106" type="curve"/>
      <point x="11" y="46"/>
      <point x="54" y="103"/>
    </contour>
  </outline>
</glyph>
<glyph name="K" format="1">
  <advance width="693"/>
  <unicode hex="004B"/>
  <outline>
    <contour>
      <point x="385" y="-19" type="move" name="bottom"/>
    </contour>
    <contour>
      <point x="532" y="722" type="curve"/>
      <point x="481" y="722"/>
      <point x="421" y="722"/>
      <point x="372" y="722" type="curve"/>
      <point x="372" y="642"/>
      <point x="372" y="722"/>
      <point x="372" y="642" type="curve"/>
      <point x="522" y="642"/>
      <point x="381" y="642"/>
      <point x="532" y="642" type="curve"/>
      <point x="532" y="722"/>
      <point x="532" y="642"/>
    </contour>
    <contour>
      <point x="539" y="0" type="curve"/>
      <point x="598" y="0"/>
      <point x="611" y="0"/>
      <point x="670" y="0" type="curve"/>
      <point x="670" y="80"/>
      <point x="670" y="0"/>
      <point x="670" y="80" type="curve"/>
      <point x="494" y="80"/>
      <point x="714" y="80"/>
      <point x="539" y="80" type="curve"/>
      <point x="539" y="0"/>
      <point x="539" y="80"/>
    </contour>
    <contour>
      <point x="518" y="642" type="curve"/>
      <point x="663" y="642"/>
      <point x="495" y="642"/>
      <point x="641" y="642" type="curve"/>
      <point x="641" y="722"/>
      <point x="641" y="642"/>
      <point x="641" y="722" type="curve"/>
      <point x="592" y="722"/>
      <point x="567" y="722"/>
      <point x="518" y="722" type="curve"/>
      <point x="518" y="642"/>
      <point x="518" y="722"/>
    </contour>
    <contour>
      <point x="177" y="722" type="curve"/>
      <point x="128" y="722"/>
      <point x="89" y="722"/>
      <point x="40" y="722" type="curve"/>
      <point x="40" y="642"/>
      <point x="40" y="722"/>
      <point x="40" y="642" type="curve"/>
      <point x="187" y="642"/>
      <point x="30" y="642"/>
      <point x="177" y="642" type="curve"/>
      <point x="177" y="722"/>
      <point x="177" y="642"/>
    </contour>
    <contour>
      <point x="177" y="642" type="curve"/>
      <point x="322" y="642"/>
      <point x="149" y="642"/>
      <point x="294" y="642" type="curve"/>
      <point x="294" y="722"/>
      <point x="294" y="642"/>
      <point x="294" y="722" type="curve"/>
      <point x="245" y="722"/>
      <point x="225" y="722"/>
      <point x="177" y="722" type="curve"/>
      <point x="177" y="642"/>
      <point x="177" y="722"/>
    </contour>
    <contour>
      <point x="177" y="0" type="curve"/>
      <point x="229" y="0"/>
      <point x="146" y="0"/>
      <point x="302" y="0" type="curve"/>
      <point x="302" y="80"/>
      <point x="302" y="0"/>
      <point x="302" y="80" type="curve"/>
      <point x="146" y="80"/>
      <point x="332" y="80"/>
      <point x="177" y="80" type="curve"/>
      <point x="177" y="0"/>
      <point x="177" y="80"/>
    </contour>
    <contour>
      <point x="177" y="80" type="curve"/>
      <point x="30" y="80"/>
      <point x="187" y="80"/>
      <point x="40" y="80" type="curve"/>
      <point x="40" y="0"/>
      <point x="40" y="80"/>
      <point x="40" y="0" type="curve"/>
      <point x="89" y="0"/>
      <point x="128" y="0"/>
      <point x="177" y="0" type="curve"/>
      <point x="177" y="80"/>
      <point x="177" y="0"/>
    </contour>
    <contour>
      <point x="506" y="722" type="curve"/>
      <point x="208" y="380" type="line"/>
      <point x="327" y="380"/>
      <point x="207" y="380"/>
      <point x="326" y="380" type="curve"/>
      <point x="591" y="683" type="line"/>
      <point x="489" y="683"/>
      <point x="607" y="722"/>
    </contour>
    <contour>
      <point x="229" y="0" type="curve"/>
      <point x="229" y="722" type="line"/>
      <point x="125" y="722"/>
      <point x="229" y="722"/>
      <point x="125" y="722" type="curve"/>
      <point x="125" y="481"/>
      <point x="125" y="241"/>
      <point x="125" y="0" type="curve"/>
      <point x="229" y="0"/>
      <point x="125" y="0"/>
    </contour>
    <contour>
      <point x="620" y="33" type="curve"/>
      <point x="326" y="380" type="line"/>
      <point x="207" y="380"/>
      <point x="327" y="380"/>
      <point x="208" y="380" type="curve"/>
      <point x="525" y="0" type="line"/>
      <point x="636" y="0"/>
      <point x="509" y="33"/>
    </contour>
  </outline>
</glyph>
<glyph name="M" format="1">
  <advance width="917"/>
  <unicode hex="004D"/>
  <outline>
    <contour>
      <point x="763" y="0" type="curve"/>
      <point x="811" y="0"/>
      <point x="849" y="0"/>
      <point x="897" y="0" type="curve"/>
      <point x="897" y="80"/>
      <point x="897" y="0"/>
      <point x="897" y="80" type="curve"/>
      <point x="752" y="80"/>
      <point x="907" y="80"/>
      <point x="763" y="80" type="curve"/>
      <point x="763" y="0"/>
      <point x="763" y="80"/>
    </contour>
    <contour>
      <point x="763" y="80" type="curve"/>
      <point x="624" y="80"/>
      <point x="773" y="80"/>
      <point x="634" y="80" type="curve"/>
      <point x="634" y="0"/>
      <point x="634" y="80"/>
      <point x="634" y="0" type="curve"/>
      <point x="680" y="0"/>
      <point x="717" y="0"/>
      <point x="763" y="0" type="curve"/>
      <point x="763" y="80"/>
      <point x="763" y="0"/>
    </contour>
    <contour>
      <point x="156" y="80" type="curve"/>
      <point x="11" y="80"/>
      <point x="166" y="80"/>
      <point x="21" y="80" type="curve"/>
      <point x="21" y="0"/>
      <point x="21" y="80"/>
      <point x="21" y="0" type="curve"/>
      <point x="70" y="0"/>
      <point x="108" y="0"/>
      <point x="156" y="0" type="curve"/>
      <point x="156" y="80"/>
      <point x="156" y="0"/>
    </contour>
    <contour>
      <point x="206" y="722" type="curve"/>
      <point x="158" y="722"/>
      <point x="120" y="722"/>
      <point x="72" y="722" type="curve"/>
      <point x="72" y="642"/>
      <point x="72" y="722"/>
      <point x="72" y="642" type="curve"/>
      <point x="216" y="642"/>
      <point x="62" y="642"/>
      <point x="206" y="642" type="curve"/>
      <point x="206" y="722"/>
      <point x="206" y="642"/>
    </contour>
    <contour>
      <point x="711" y="642" type="curve"/>
      <point x="855" y="642"/>
      <point x="701" y="642"/>
      <point x="844" y="642" type="curve"/>
      <point x="844" y="722"/>
      <point x="844" y="642"/>
      <point x="844" y="722" type="curve"/>
      <point x="796" y="722"/>
      <point x="759" y="722"/>
      <point x="711" y="722" type="curve"/>
      <point x="711" y="642"/>
      <point x="711" y="722"/>
    </contour>
    <contour>
      <point x="156" y="0" type="curve"/>
      <point x="202" y="0"/>
      <point x="145" y="0"/>
      <point x="284" y="0" type="curve"/>
      <point x="284" y="80"/>
      <point x="284" y="0"/>
      <point x="284" y="80" type="curve"/>
      <point x="145" y="80"/>
      <point x="294" y="80"/>
      <point x="156" y="80" type="curve"/>
      <point x="156" y="0"/>
      <point x="156" y="80"/>
    </contour>
    <contour>
      <point x="820" y="0" type="curve"/>
      <point x="801" y="241"/>
      <point x="780" y="481"/>
      <point x="761" y="722" type="curve"/>
      <point x="666" y="722"/>
      <point x="761" y="722"/>
      <point x="666" y="722" type="curve"/>
      <point x="684" y="481"/>
      <point x="698" y="241"/>
      <point x="716" y="0" type="curve"/>
      <point x="820" y="0"/>
      <point x="716" y="0"/>
    </contour>
    <contour>
      <point x="200" y="0" type="curve"/>
      <point x="216" y="241"/>
      <point x="233" y="481"/>
      <point x="249" y="722" type="curve"/>
      <point x="158" y="722"/>
      <point x="249" y="722"/>
      <point x="158" y="722" type="curve"/>
      <point x="140" y="481"/>
      <point x="123" y="241"/>
      <point x="105" y="0" type="curve"/>
      <point x="200" y="0"/>
      <point x="105" y="0"/>
    </contour>
    <contour>
      <point x="501" y="0" type="curve"/>
      <point x="419" y="241"/>
      <point x="335" y="481"/>
      <point x="252" y="722" type="curve"/>
      <point x="160" y="722"/>
      <point x="251" y="722"/>
      <point x="160" y="722" type="curve"/>
      <point x="243" y="481"/>
      <point x="325" y="241"/>
      <point x="408" y="0" type="curve"/>
      <point x="501" y="0"/>
      <point x="408" y="0"/>
    </contour>
    <contour>
      <point x="510" y="0" type="curve"/>
      <point x="591" y="241"/>
      <point x="673" y="481"/>
      <point x="754" y="722" type="curve"/>
      <point x="662" y="722"/>
      <point x="753" y="722"/>
      <point x="662" y="722" type="curve"/>
      <point x="580" y="481"/>
      <point x="498" y="241"/>
      <point x="415" y="0" type="curve"/>
      <point x="510" y="0"/>
      <point x="415" y="0"/>
    </contour>
  </outline>
</glyph>
<glyph name="O" format="1">
  <advance width="726"/>
  <unicode hex="004F"/>
  <outline>
    <contour>
      <point x="364" y="796" type="move" name="top"/>
    </contour>
    <contour>
      <point x="161" y="360" type="curve"/>
      <point x="161" y="519"/>
      <point x="212" y="643"/>
      <point x="360" y="643" type="curve"/>
      <point x="506" y="643"/>
      <point x="566" y="522"/>
      <point x="566" y="363" type="curve"/>
      <point x="566" y="204"/>
      <point x="513" y="79"/>
      <point x="366" y="79" type="curve"/>
      <point x="218" y="79"/>
      <point x="161" y="200"/>
      <point x="161" y="360" type="curve"/>
      <point x="56" y="360"/>
      <point x="161" y="360"/>
      <point x="56" y="360" type="curve"/>
      <point x="56" y="146"/>
      <point x="158" y="-5"/>
      <point x="361" y="-5" type="curve"/>
      <point x="566" y="-5"/>
      <point x="669" y="147"/>
      <point x="669" y="363" type="curve"/>
      <point x="669" y="575"/>
      <point x="568" y="727"/>
      <point x="365" y="727" type="curve"/>
      <point x="161" y="727"/>
      <point x="56" y="575"/>
      <point x="56" y="360" type="curve"/>
      <point x="161" y="360"/>
      <point x="56" y="360"/>
    </contour>
  </outline>
</glyph>
<glyph name="P" format="1">
  <advance width="610"/>
  <unicode hex="0050"/>
  <outline>
    <contour>
      <point x="195" y="722" type="curve"/>
      <point x="148" y="722"/>
      <point x="106" y="722"/>
      <point x="57" y="722" type="curve"/>
      <point x="57" y="642"/>
      <point x="57" y="722"/>
      <point x="57" y="642" type="curve"/>
      <point x="200" y="642"/>
      <point x="52" y="642"/>
      <point x="195" y="642" type="curve"/>
      <point x="195" y="722"/>
      <point x="195" y="642"/>
    </contour>
    <contour>
      <point x="195" y="80" type="curve"/>
      <point x="52" y="80"/>
      <point x="200" y="80"/>
      <point x="57" y="80" type="curve"/>
      <point x="57" y="0"/>
      <point x="57" y="80"/>
      <point x="57" y="0" type="curve"/>
      <point x="106" y="0"/>
      <point x="148" y="0"/>
      <point x="195" y="0" type="curve"/>
      <point x="195" y="80"/>
      <point x="195" y="0"/>
    </contour>
    <contour>
      <point x="195" y="0" type="curve"/>
      <point x="244" y="0"/>
      <point x="190" y="0"/>
      <point x="334" y="0" type="curve"/>
      <point x="334" y="80"/>
      <point x="334" y="0"/>
      <point x="334" y="80" type="curve"/>
      <point x="190" y="80"/>
      <point x="339" y="80"/>
      <point x="195" y="80" type="curve"/>
      <point x="195" y="0"/>
      <point x="195" y="80"/>
    </contour>
    <contour>
      <point x="181" y="306" type="curve"/>
      <point x="232" y="278"/>
      <point x="289" y="260"/>
      <point x="350" y="260" type="curve"/>
      <point x="484" y="263"/>
      <point x="569" y="341"/>
      <point x="569" y="483" type="curve"/>
      <point x="569" y="631"/>
      <point x="468" y="722"/>
      <point x="318" y="722" type="curve"/>
      <point x="278" y="722"/>
      <point x="238" y="722"/>
      <point x="199" y="722" type="curve"/>
      <point x="199" y="642"/>
      <point x="199" y="722"/>
      <point x="199" y="642" type="curve"/>
      <point x="233" y="642"/>
      <point x="268" y="642"/>
      <point x="304" y="642" type="curve"/>
      <point x="402" y="642"/>
      <point x="465" y="582"/>
      <point x="465" y="485" type="curve"/>
      <point x="465" y="397"/>
      <point x="420" y="338"/>
      <point x="338" y="338" type="curve"/>
      <point x="290" y="338"/>
      <point x="256" y="351"/>
      <point x="213" y="374" type="curve"/>
      <point x="181" y="307"/>
      <point x="213" y="374"/>
    </contour>
    <contour>
      <point x="247" y="0" type="curve"/>
      <point x="247" y="241"/>
      <point x="247" y="481"/>
      <point x="247" y="722" type="curve"/>
      <point x="143" y="722"/>
      <point x="247" y="722"/>
      <point x="143" y="722" type="curve"/>
      <point x="143" y="481"/>
      <point x="143" y="241"/>
      <point x="143" y="0" type="curve"/>
      <point x="247" y="0"/>
      <point x="143" y="0"/>
    </contour>
  </outline>
</glyph>
<glyph name="Q" format="1">
  <advance width="727"/>
  <unicode hex="0051"/>
  <outline>
    <contour>
      <point x="326" y="19" type="curve"/>
      <point x="421" y="-154"/>
      <point x="535" y="-221"/>
      <point x="721" y="-221" type="curve"/>
      <point x="721" y="-137"/>
      <point x="721" y="-221"/>
      <point x="721" y="-137" type="curve"/>
      <point x="575" y="-137"/>
      <point x="491" y="-78"/>
      <point x="415" y="59" type="curve"/>
      <point x="326" y="19"/>
      <point x="415" y="59"/>
    </contour>
    <contour>
      <point x="160" y="360" type="curve"/>
      <point x="160" y="519"/>
      <point x="216" y="640"/>
      <point x="361" y="640" type="curve"/>
      <point x="507" y="640"/>
      <point x="567" y="521"/>
      <point x="567" y="361" type="curve"/>
      <point x="567" y="202"/>
      <point x="513" y="79"/>
      <point x="367" y="79" type="curve"/>
      <point x="219" y="80"/>
      <point x="160" y="200"/>
      <point x="160" y="360" type="curve"/>
      <point x="56" y="360"/>
      <point x="160" y="360"/>
      <point x="56" y="360" type="curve"/>
      <point x="56" y="146"/>
      <point x="161" y="-5"/>
      <point x="362" y="-5" type="curve"/>
      <point x="567" y="-5"/>
      <point x="671" y="149"/>
      <point x="671" y="365" type="curve"/>
      <point x="671" y="578"/>
      <point x="569" y="730"/>
      <point x="368" y="730" type="curve"/>
      <point x="163" y="730"/>
      <point x="56" y="576"/>
      <point x="56" y="360" type="curve"/>
      <point x="160" y="360"/>
      <point x="56" y="360"/>
    </contour>
  </outline>
</glyph>
<glyph name="R" format="1">
  <advance width="712"/>
  <unicode hex="0052"/>
  <outline>
    <contour>
      <point x="317" y="796" type="move" name="top"/>
    </contour>
    <contour>
      <point x="417" y="-21" type="move" name="bottom"/>
    </contour>
    <contour>
      <point x="577" y="0" type="curve"/>
      <point x="617" y="0"/>
      <point x="653" y="0"/>
      <point x="696" y="0" type="curve"/>
      <point x="696" y="80"/>
      <point x="696" y="0"/>
      <point x="696" y="80" type="curve"/>
      <point x="572" y="80"/>
      <point x="701" y="80"/>
      <point x="577" y="80" type="curve"/>
      <point x="577" y="0"/>
      <point x="577" y="80"/>
    </contour>
    <contour>
      <point x="194" y="722" type="curve"/>
      <point x="145" y="722"/>
      <point x="104" y="722"/>
      <point x="57" y="722" type="curve"/>
      <point x="57" y="642"/>
      <point x="57" y="722"/>
      <point x="57" y="642" type="curve"/>
      <point x="199" y="642"/>
      <point x="51" y="642"/>
      <point x="194" y="642" type="curve"/>
      <point x="194" y="722"/>
      <point x="194" y="642"/>
    </contour>
    <contour>
      <point x="194" y="80" type="curve"/>
      <point x="51" y="80"/>
      <point x="199" y="80"/>
      <point x="57" y="80" type="curve"/>
      <point x="57" y="0"/>
      <point x="57" y="80"/>
      <point x="57" y="0" type="curve"/>
      <point x="104" y="0"/>
      <point x="145" y="0"/>
      <point x="194" y="0" type="curve"/>
      <point x="194" y="80"/>
      <point x="194" y="0"/>
    </contour>
    <contour>
      <point x="194" y="0" type="curve"/>
      <point x="240" y="0"/>
      <point x="189" y="0"/>
      <point x="329" y="0" type="curve"/>
      <point x="329" y="80"/>
      <point x="329" y="0"/>
      <point x="329" y="80" type="curve"/>
      <point x="189" y="80"/>
      <point x="335" y="80"/>
      <point x="194" y="80" type="curve"/>
      <point x="194" y="0"/>
      <point x="194" y="80"/>
    </contour>
    <contour>
      <point x="321" y="354" type="curve"/>
      <point x="386" y="247"/>
      <point x="478" y="107"/>
      <point x="544" y="0" type="curve"/>
      <point x="651" y="0"/>
      <point x="543" y="6"/>
      <point x="651" y="6" type="curve"/>
      <point x="589" y="111"/>
      <point x="498" y="249"/>
      <point x="434" y="354" type="curve"/>
      <point x="320" y="354"/>
      <point x="435" y="354"/>
    </contour>
    <contour>
      <point x="246" y="0" type="curve"/>
      <point x="246" y="241"/>
      <point x="246" y="481"/>
      <point x="246" y="722" type="curve"/>
      <point x="143" y="722"/>
      <point x="246" y="722"/>
      <point x="143" y="722" type="curve"/>
      <point x="143" y="481"/>
      <point x="143" y="241"/>
      <point x="143" y="0" type="curve"/>
      <point x="246" y="0"/>
      <point x="143" y="0"/>
    </contour>
    <contour>
      <point x="196" y="312" type="curve"/>
      <point x="248" y="312"/>
      <point x="300" y="312"/>
      <point x="351" y="312" type="curve"/>
      <point x="493" y="312"/>
      <point x="583" y="383"/>
      <point x="583" y="525" type="curve"/>
      <point x="583" y="657"/>
      <point x="495" y="722"/>
      <point x="359" y="722" type="curve"/>
      <point x="304" y="722"/>
      <point x="252" y="722"/>
      <point x="196" y="722" type="curve"/>
      <point x="196" y="642"/>
      <point x="196" y="722"/>
      <point x="196" y="642" type="curve"/>
      <point x="245" y="642"/>
      <point x="292" y="642"/>
      <point x="340" y="642" type="curve"/>
      <point x="427" y="642"/>
      <point x="479" y="600"/>
      <point x="479" y="517" type="curve"/>
      <point x="479" y="437"/>
      <point x="434" y="392"/>
      <point x="354" y="392" type="curve"/>
      <point x="301" y="392"/>
      <point x="248" y="392"/>
      <point x="196" y="392" type="curve"/>
      <point x="196" y="312"/>
      <point x="196" y="392"/>
    </contour>
  </outline>
</glyph>
<glyph name="V" format="1">
  <advance width="734"/>
  <unicode hex="0056"/>
  <outline>
    <contour>
      <point x="590" y="722" type="curve"/>
      <point x="541" y="722"/>
      <point x="495" y="722"/>
      <point x="446" y="722" type="curve"/>
      <point x="446" y="642"/>
      <point x="446" y="722"/>
      <point x="446" y="642" type="curve"/>
      <point x="592" y="642"/>
      <point x="444" y="642"/>
      <point x="590" y="642" type="curve"/>
      <point x="590" y="722"/>
      <point x="590" y="642"/>
    </contour>
    <contour>
      <point x="121" y="722" type="curve"/>
      <point x="79" y="722"/>
      <point x="38" y="722"/>
      <point x="-5" y="722" type="curve"/>
      <point x="-5" y="642"/>
      <point x="-5" y="722"/>
      <point x="-5" y="642" type="curve"/>
      <point x="123" y="642"/>
      <point x="-7" y="642"/>
      <point x="121" y="642" type="curve"/>
      <point x="121" y="722"/>
      <point x="121" y="642"/>
    </contour>
    <contour>
      <point x="598" y="642" type="curve"/>
      <point x="726" y="642"/>
      <point x="596" y="642"/>
      <point x="723" y="642" type="curve"/>
      <point x="723" y="722"/>
      <point x="723" y="642"/>
      <point x="723" y="722" type="curve"/>
      <point x="682" y="722"/>
      <point x="640" y="722"/>
      <point x="598" y="722" type="curve"/>
      <point x="598" y="642"/>
      <point x="598" y="722"/>
    </contour>
    <contour>
      <point x="129" y="642" type="curve"/>
      <point x="276" y="642"/>
      <point x="127" y="642"/>
      <point x="273" y="642" type="curve"/>
      <point x="273" y="722"/>
      <point x="273" y="642"/>
      <point x="273" y="722" type="curve"/>
      <point x="225" y="722"/>
      <point x="178" y="722"/>
      <point x="129" y="722" type="curve"/>
      <point x="129" y="642"/>
      <point x="129" y="722"/>
    </contour>
    <contour>
      <point x="558" y="722" type="curve"/>
      <point x="477" y="480"/>
      <point x="398" y="242"/>
      <point x="319" y="0" type="curve"/>
      <point x="425" y="0"/>
      <point x="312" y="0"/>
      <point x="418" y="0" type="curve"/>
      <point x="500" y="241"/>
      <point x="581" y="481"/>
      <point x="664" y="722" type="curve"/>
      <point x="558" y="722"/>
      <point x="664" y="722"/>
    </contour>
    <contour>
      <point x="56" y="722" type="curve"/>
      <point x="138" y="481"/>
      <point x="222" y="241"/>
      <point x="306" y="0" type="curve"/>
      <point x="412" y="0"/>
      <point x="299" y="0"/>
      <point x="406" y="0" type="curve"/>
      <point x="326" y="242"/>
      <point x="245" y="482"/>
      <point x="162" y="722" type="curve"/>
      <point x="56" y="722"/>
      <point x="162" y="722"/>
    </contour>
  </outline>
</glyph>
<glyph name="W" format="1">
  <advance width="918"/>
  <unicode hex="0057"/>
  <outline>
    <contour>
      <point x="138" y="642" type="curve"/>
      <point x="263" y="642"/>
      <point x="136" y="642"/>
      <point x="261" y="642" type="curve"/>
      <point x="261" y="722"/>
      <point x="261" y="642"/>
      <point x="261" y="722" type="curve"/>
      <point x="219" y="722"/>
      <point x="180" y="722"/>
      <point x="138" y="722" type="curve"/>
      <point x="138" y="642"/>
      <point x="138" y="722"/>
    </contour>
    <contour>
      <point x="133" y="722" type="curve"/>
      <point x="90" y="722"/>
      <point x="48" y="722"/>
      <point x="5" y="722" type="curve"/>
      <point x="5" y="642"/>
      <point x="5" y="722"/>
      <point x="5" y="642" type="curve"/>
      <point x="136" y="642"/>
      <point x="2" y="642"/>
      <point x="133" y="642" type="curve"/>
      <point x="133" y="722"/>
      <point x="133" y="642"/>
    </contour>
    <contour>
      <point x="777" y="722" type="curve"/>
      <point x="736" y="722"/>
      <point x="696" y="722"/>
      <point x="656" y="722" type="curve"/>
      <point x="656" y="642"/>
      <point x="656" y="722"/>
      <point x="656" y="642" type="curve"/>
      <point x="780" y="642"/>
      <point x="653" y="642"/>
      <point x="777" y="642" type="curve"/>
      <point x="777" y="722"/>
      <point x="777" y="642"/>
    </contour>
    <contour>
      <point x="780" y="642" type="curve"/>
      <point x="910" y="642"/>
      <point x="778" y="642"/>
      <point x="908" y="642" type="curve"/>
      <point x="908" y="722"/>
      <point x="908" y="642"/>
      <point x="908" y="722" type="curve"/>
      <point x="866" y="722"/>
      <point x="823" y="722"/>
      <point x="780" y="722" type="curve"/>
      <point x="780" y="642"/>
      <point x="780" y="722"/>
    </contour>
    <contour>
      <point x="327" y="0" type="curve"/>
      <point x="386" y="241"/>
      <point x="445" y="481"/>
      <point x="504" y="722" type="curve"/>
      <point x="411" y="722"/>
      <point x="505" y="722"/>
      <point x="412" y="722" type="curve"/>
      <point x="357" y="481"/>
      <point x="301" y="242"/>
      <point x="245" y="0" type="curve"/>
      <point x="333" y="0"/>
      <point x="239" y="0"/>
    </contour>
    <contour>
      <point x="421" y="722" type="curve"/>
      <point x="474" y="481"/>
      <point x="526" y="241"/>
      <point x="580" y="0" type="curve"/>
      <point x="667" y="0"/>
      <point x="571" y="0"/>
      <point x="659" y="0" type="curve"/>
      <point x="609" y="243"/>
      <point x="562" y="481"/>
      <point x="511" y="722" type="curve"/>
      <point x="419" y="722"/>
      <point x="513" y="722"/>
    </contour>
    <contour>
      <point x="72" y="722" type="curve"/>
      <point x="126" y="481"/>
      <point x="179" y="241"/>
      <point x="233" y="0" type="curve"/>
      <point x="321" y="0"/>
      <point x="233" y="0"/>
      <point x="321" y="0" type="curve"/>
      <point x="268" y="241"/>
      <point x="218" y="481"/>
      <point x="166" y="722" type="curve"/>
      <point x="72" y="722"/>
      <point x="166" y="722"/>
    </contour>
    <contour>
      <point x="747" y="722" type="curve"/>
      <point x="693" y="481"/>
      <point x="640" y="241"/>
      <point x="587" y="0" type="curve"/>
      <point x="675" y="0"/>
      <point x="585" y="0"/>
      <point x="673" y="0" type="curve"/>
      <point x="729" y="241"/>
      <point x="785" y="481"/>
      <point x="842" y="722" type="curve"/>
      <point x="747" y="722"/>
      <point x="842" y="722"/>
    </contour>
  </outline>
</glyph>
<glyph name="X" format="1">
  <advance width="686"/>
  <unicode hex="0058"/>
  <outline>
    <contour>
      <point x="150" y="0" type="curve"/>
      <point x="197" y="0"/>
      <point x="148" y="0"/>
      <point x="288" y="0" type="curve"/>
      <point x="288" y="80"/>
      <point x="288" y="0"/>
      <point x="288" y="80" type="curve"/>
      <point x="148" y="80"/>
      <point x="291" y="80"/>
      <point x="150" y="80" type="curve"/>
      <point x="150" y="0"/>
      <point x="150" y="80"/>
    </contour>
    <contour>
      <point x="140" y="80" type="curve"/>
      <point x="8" y="80"/>
      <point x="143" y="80"/>
      <point x="10" y="80" type="curve"/>
      <point x="10" y="0"/>
      <point x="10" y="80"/>
      <point x="10" y="0" type="curve"/>
      <point x="54" y="0"/>
      <point x="96" y="0"/>
      <point x="140" y="0" type="curve"/>
      <point x="140" y="80"/>
      <point x="140" y="0"/>
    </contour>
    <contour>
      <point x="542" y="0" type="curve"/>
      <point x="586" y="0"/>
      <point x="628" y="0"/>
      <point x="672" y="0" type="curve"/>
      <point x="672" y="80"/>
      <point x="672" y="0"/>
      <point x="672" y="80" type="curve"/>
      <point x="540" y="80"/>
      <point x="675" y="80"/>
      <point x="542" y="80" type="curve"/>
      <point x="542" y="0"/>
      <point x="542" y="80"/>
    </contour>
    <contour>
      <point x="532" y="80" type="curve"/>
      <point x="391" y="80"/>
      <point x="535" y="80"/>
      <point x="394" y="80" type="curve"/>
      <point x="394" y="0"/>
      <point x="394" y="80"/>
      <point x="394" y="0" type="curve"/>
      <point x="440" y="0"/>
      <point x="486" y="0"/>
      <point x="532" y="0" type="curve"/>
      <point x="532" y="80"/>
      <point x="532" y="0"/>
    </contour>
    <contour>
      <point x="521" y="642" type="curve"/>
      <point x="654" y="642"/>
      <point x="519" y="642"/>
      <point x="652" y="642" type="curve"/>
      <point x="652" y="722"/>
      <point x="652" y="642"/>
      <point x="652" y="722" type="curve"/>
      <point x="607" y="722"/>
      <point x="565" y="722"/>
      <point x="521" y="722" type="curve"/>
      <point x="521" y="642"/>
      <point x="521" y="722"/>
    </contour>
    <contour>
      <point x="528" y="722" type="curve"/>
      <point x="480" y="722"/>
      <point x="433" y="722"/>
      <point x="384" y="722" type="curve"/>
      <point x="384" y="642"/>
      <point x="384" y="722"/>
      <point x="384" y="642" type="curve"/>
      <point x="531" y="642"/>
      <point x="382" y="642"/>
      <point x="528" y="642" type="curve"/>
      <point x="528" y="722"/>
      <point x="528" y="642"/>
    </contour>
    <contour>
      <point x="166" y="722" type="curve"/>
      <point x="122" y="722"/>
      <point x="80" y="722"/>
      <point x="36" y="722" type="curve"/>
      <point x="36" y="642"/>
      <point x="36" y="722"/>
      <point x="36" y="642" type="curve"/>
      <point x="168" y="642"/>
      <point x="33" y="642"/>
      <point x="166" y="642" type="curve"/>
      <point x="166" y="722"/>
      <point x="166" y="642"/>
    </contour>
    <contour>
      <point x="159" y="642" type="curve"/>
      <point x="305" y="642"/>
      <point x="157" y="642"/>
      <point x="303" y="642" type="curve"/>
      <point x="303" y="722"/>
      <point x="303" y="642"/>
      <point x="303" y="722" type="curve"/>
      <point x="254" y="722"/>
      <point x="208" y="722"/>
      <point x="159" y="722" type="curve"/>
      <point x="159" y="642"/>
      <point x="159" y="722"/>
    </contour>
    <contour>
      <point x="501" y="722" type="curve"/>
      <point x="356" y="484"/>
      <point x="210" y="247"/>
      <point x="65" y="9" type="curve"/>
      <point x="169" y="9"/>
      <point x="65" y="0"/>
      <point x="169" y="0" type="curve"/>
      <point x="313" y="238"/>
      <point x="457" y="476"/>
      <point x="601" y="715" type="curve"/>
      <point x="501" y="715"/>
      <point x="601" y="722"/>
    </contour>
    <contour>
      <point x="88" y="714" type="curve"/>
      <point x="232" y="476"/>
      <point x="374" y="238"/>
      <point x="517" y="0" type="curve"/>
      <point x="620" y="0"/>
      <point x="517" y="6"/>
      <point x="620" y="6" type="curve"/>
      <point x="476" y="245"/>
      <point x="331" y="483"/>
      <point x="187" y="722" type="curve"/>
      <point x="88" y="722"/>
      <point x="187" y="714"/>
    </contour>
  </outline>
</glyph>
<glyph name="Y" format="1">
  <advance width="637"/>
  <unicode hex="0059"/>
  <outline>
    <contour>
      <point x="314" y="796" type="move" name="top"/>
    </contour>
    <contour>
      <point x="310" y="80" type="curve"/>
      <point x="169" y="80"/>
      <point x="312" y="80"/>
      <point x="172" y="80" type="curve"/>
      <point x="172" y="0"/>
      <point x="172" y="80"/>
      <point x="172" y="0" type="curve"/>
      <point x="218" y="0"/>
      <point x="263" y="0"/>
      <point x="310" y="0" type="curve"/>
      <point x="310" y="80"/>
      <point x="310" y="0"/>
    </contour>
    <contour>
      <point x="310" y="0" type="curve"/>
      <point x="357" y="0"/>
      <point x="402" y="0"/>
      <point x="448" y="0" type="curve"/>
      <point x="448" y="80"/>
      <point x="448" y="0"/>
      <point x="448" y="80" type="curve"/>
      <point x="307" y="80"/>
      <point x="450" y="80"/>
      <point x="310" y="80" type="curve"/>
      <point x="310" y="0"/>
      <point x="310" y="80"/>
    </contour>
    <contour>
      <point x="497" y="722" type="curve"/>
      <point x="452" y="722"/>
      <point x="409" y="722"/>
      <point x="364" y="722" type="curve"/>
      <point x="364" y="642"/>
      <point x="364" y="722"/>
      <point x="364" y="642" type="curve"/>
      <point x="499" y="642"/>
      <point x="361" y="642"/>
      <point x="497" y="642" type="curve"/>
      <point x="497" y="722"/>
      <point x="497" y="642"/>
    </contour>
    <contour>
      <point x="124" y="722" type="curve"/>
      <point x="84" y="722"/>
      <point x="47" y="722"/>
      <point x="7" y="722" type="curve"/>
      <point x="6" y="642"/>
      <point x="7" y="722"/>
      <point x="6" y="642" type="curve"/>
      <point x="126" y="642"/>
      <point x="4" y="642"/>
      <point x="124" y="642" type="curve"/>
      <point x="124" y="722"/>
      <point x="124" y="642"/>
    </contour>
    <contour>
      <point x="133" y="642" type="curve"/>
      <point x="269" y="642"/>
      <point x="131" y="642"/>
      <point x="267" y="642" type="curve"/>
      <point x="267" y="722"/>
      <point x="267" y="642"/>
      <point x="267" y="722" type="curve"/>
      <point x="222" y="722"/>
      <point x="179" y="722"/>
      <point x="133" y="722" type="curve"/>
      <point x="133" y="642"/>
      <point x="133" y="722"/>
    </contour>
    <contour>
      <point x="507" y="642" type="curve"/>
      <point x="629" y="642"/>
      <point x="504" y="642"/>
      <point x="627" y="642" type="curve"/>
      <point x="627" y="722"/>
      <point x="627" y="642"/>
      <point x="627" y="722" type="curve"/>
      <point x="586" y="722"/>
      <point x="547" y="722"/>
      <point x="507" y="722" type="curve"/>
      <point x="507" y="642"/>
      <point x="507" y="722"/>
    </contour>
    <contour>
      <point x="54" y="715" type="curve"/>
      <point x="122" y="589"/>
      <point x="187" y="464"/>
      <point x="254" y="337" type="curve"/>
      <point x="360" y="337"/>
      <point x="244" y="337"/>
      <point x="350" y="337" type="curve"/>
      <point x="285" y="468"/>
      <point x="221" y="593"/>
      <point x="154" y="722" type="curve"/>
      <point x="54" y="722"/>
      <point x="154" y="715"/>
    </contour>
    <contour>
      <point x="477" y="722" type="curve"/>
      <point x="405" y="591"/>
      <point x="338" y="467"/>
      <point x="265" y="337" type="curve"/>
      <point x="371" y="337"/>
      <point x="259" y="337"/>
      <point x="365" y="337" type="curve"/>
      <point x="436" y="464"/>
      <point x="506" y="589"/>
      <point x="578" y="716" type="curve"/>
      <point x="477" y="716"/>
      <point x="578" y="722"/>
    </contour>
    <contour>
      <point x="366" y="0" type="curve"/>
      <point x="366" y="115"/>
      <point x="366" y="226"/>
      <point x="366" y="341" type="curve"/>
      <point x="253" y="341"/>
      <point x="366" y="341"/>
      <point x="253" y="341" type="curve"/>
      <point x="253" y="226"/>
      <point x="253" y="115"/>
      <point x="253" y="0" type="curve"/>
      <point x="366" y="0"/>
      <point x="253" y="0"/>
    </contour>
  </outline>
</glyph>
<glyph name="bracketleft" format="1">
  <advance width="301"/>
  <unicode hex="005B"/>
  <outline>
    <contour>
      <point x="257" y="770" type="curve"/>
      <point x="211" y="770"/>
      <point x="166" y="770"/>
      <point x="121" y="770" type="curve"/>
      <point x="109" y="770"/>
      <point x="87" y="770"/>
      <point x="76" y="770" type="curve"/>
      <point x="76" y="758"/>
      <point x="76" y="743"/>
      <point x="76" y="732" type="curve"/>
      <point x="76" y="461"/>
      <point x="76" y="190"/>
      <point x="76" y="-80" type="curve"/>
      <point x="76" y="-92"/>
      <point x="76" y="-102"/>
      <point x="76" y="-117" type="curve"/>
      <point x="86" y="-117"/>
      <point x="108" y="-117"/>
      <point x="120" y="-117" type="curve"/>
      <point x="165" y="-117"/>
      <point x="211" y="-117"/>
      <point x="257" y="-117" type="curve"/>
      <point x="257" y="-29"/>
      <point x="257" y="-117"/>
      <point x="257" y="-29" type="curve"/>
      <point x="211" y="-29"/>
      <point x="165" y="-29"/>
      <point x="120" y="-29" type="curve"/>
      <point x="179" y="-29"/>
      <point x="120" y="-29"/>
      <point x="179" y="-29" type="curve"/>
      <point x="179" y="-80"/>
      <point x="179" y="-29"/>
      <point x="179" y="-80" type="curve"/>
      <point x="179" y="190"/>
      <point x="179" y="461"/>
      <point x="179" y="732" type="curve"/>
      <point x="179" y="682"/>
      <point x="179" y="732"/>
      <point x="179" y="682" type="curve"/>
      <point x="121" y="682"/>
      <point x="179" y="682"/>
      <point x="121" y="682" type="curve"/>
      <point x="166" y="682"/>
      <point x="211" y="682"/>
      <point x="257" y="682" type="curve"/>
      <point x="257" y="770"/>
      <point x="257" y="682"/>
    </contour>
  </outline>
</glyph>
<glyph name="backslash" format="1">
  <advance width="519"/>
  <unicode hex="005C"/>
  <outline>
    <contour>
      <point x="488" y="-68" type="curve"/>
      <point x="372" y="236"/>
      <point x="256" y="540"/>
      <point x="140" y="844" type="curve"/>
      <point x="32" y="844"/>
      <point x="140" y="844"/>
      <point x="32" y="844" type="curve"/>
      <point x="148" y="540"/>
      <point x="264" y="236"/>
      <point x="379" y="-68" type="curve"/>
      <point x="488" y="-68"/>
      <point x="379" y="-68"/>
    </contour>
  </outline>
</glyph>
<glyph name="bracketright" format="1">
  <advance width="302"/>
  <unicode hex="005D"/>
  <outline>
    <contour>
      <point x="45" y="682" type="curve"/>
      <point x="90" y="682"/>
      <point x="135" y="682"/>
      <point x="180" y="682" type="curve"/>
      <point x="171" y="690"/>
      <point x="157" y="693"/>
      <point x="147" y="702" type="curve"/>
      <point x="138" y="711"/>
      <point x="132" y="722"/>
      <point x="122" y="732" type="curve"/>
      <point x="122" y="461"/>
      <point x="122" y="190"/>
      <point x="122" y="-80" type="curve"/>
      <point x="132" y="-70"/>
      <point x="141" y="-60"/>
      <point x="150" y="-50" type="curve"/>
      <point x="160" y="-42"/>
      <point x="173" y="-38"/>
      <point x="181" y="-29" type="curve"/>
      <point x="135" y="-29"/>
      <point x="90" y="-29"/>
      <point x="45" y="-29" type="curve"/>
      <point x="45" y="-117"/>
      <point x="45" y="-29"/>
      <point x="45" y="-117" type="curve"/>
      <point x="90" y="-117"/>
      <point x="135" y="-117"/>
      <point x="181" y="-117" type="curve"/>
      <point x="226" y="-117"/>
      <point x="181" y="-117"/>
      <point x="226" y="-117" type="curve"/>
      <point x="226" y="-80"/>
      <point x="226" y="-117"/>
      <point x="226" y="-80" type="curve"/>
      <point x="226" y="190"/>
      <point x="226" y="461"/>
      <point x="226" y="732" type="curve"/>
      <point x="226" y="770"/>
      <point x="226" y="732"/>
      <point x="226" y="770" type="curve"/>
      <point x="180" y="770"/>
      <point x="226" y="770"/>
      <point x="180" y="770" type="curve"/>
      <point x="135" y="770"/>
      <point x="90" y="770"/>
      <point x="45" y="770" type="curve"/>
      <point x="45" y="682"/>
      <point x="45" y="770"/>
    </contour>
  </outline>
</glyph>
<glyph name="asciicircum" format="1">
  <advance width="524"/>
  <unicode hex="005E"/>
  <outline>
    <contour>
      <point x="158" y="458" type="curve"/>
      <point x="210" y="563"/>
      <point x="262" y="668"/>
      <point x="313" y="773" type="curve"/>
      <point x="210" y="773"/>
      <point x="313" y="773"/>
      <point x="210" y="773" type="curve"/>
      <point x="157" y="668"/>
      <point x="106" y="563"/>
      <point x="55" y="458" type="curve"/>
      <point x="158" y="458"/>
      <point x="55" y="458"/>
    </contour>
    <contour>
      <point x="469" y="458" type="curve"/>
      <point x="418" y="561"/>
      <point x="364" y="669"/>
      <point x="313" y="773" type="curve"/>
      <point x="210" y="773"/>
      <point x="313" y="773"/>
      <point x="210" y="773" type="curve"/>
      <point x="260" y="669"/>
      <point x="315" y="561"/>
      <point x="366" y="458" type="curve"/>
      <point x="469" y="458"/>
      <point x="366" y="458"/>
    </contour>
  </outline>
</glyph>
<glyph name="underscore" format="1">
  <advance width="605"/>
  <unicode hex="005F"/>
  <outline>
    <contour>
      <point x="0" y="-192" type="curve"/>
      <point x="201" y="-192"/>
      <point x="403" y="-192"/>
      <point x="604" y="-192" type="curve"/>
      <point x="604" y="-112"/>
      <point x="604" y="-192"/>
      <point x="604" y="-112" type="curve"/>
      <point x="403" y="-112"/>
      <point x="201" y="-112"/>
      <point x="0" y="-112" type="curve"/>
      <point x="0" y="-192"/>
      <point x="0" y="-112"/>
    </contour>
  </outline>
</glyph>
<glyph name="grave" format="1">
  <advance width="367"/>
  <unicode hex="0060"/>
  <outline>
    <contour>
      <point x="233" y="580" type="move" name="_top"/>
    </contour>
    <contour>
      <point x="287" y="580" type="line"/>
      <point x="186" y="746" type="line"/>
      <point x="56" y="746" type="line"/>
      <point x="186" y="580" type="line"/>
    </contour>
  </outline>
</glyph>
<glyph name="f" format="1">
  <advance width="447"/>
  <unicode hex="0066"/>
  <outline>
    <contour>
      <point x="347" y="771" type="curve"/>
      <point x="347" y="649"/>
      <point x="347" y="773"/>
      <point x="347" y="651" type="curve"/>
      <point x="428" y="651"/>
      <point x="347" y="651"/>
      <point x="428" y="651" type="curve"/>
      <point x="428" y="773"/>
      <point x="428" y="649"/>
      <point x="428" y="771" type="curve"/>
      <point x="347" y="771"/>
      <point x="428" y="771"/>
    </contour>
    <contour>
      <point x="190" y="-1" type="curve"/>
      <point x="239" y="-1"/>
      <point x="279" y="0"/>
      <point x="328" y="0" type="curve"/>
      <point x="328" y="81"/>
      <point x="328" y="0"/>
      <point x="328" y="81" type="curve"/>
      <point x="183" y="80"/>
      <point x="335" y="81"/>
      <point x="190" y="80" type="curve"/>
      <point x="190" y="-1"/>
      <point x="190" y="80"/>
    </contour>
    <contour>
      <point x="190" y="80" type="curve"/>
      <point x="46" y="81"/>
      <point x="198" y="80"/>
      <point x="53" y="81" type="curve"/>
      <point x="53" y="0"/>
      <point x="53" y="81"/>
      <point x="53" y="0" type="curve"/>
      <point x="102" y="0"/>
      <point x="142" y="-1"/>
      <point x="190" y="-1" type="curve"/>
      <point x="190" y="80"/>
      <point x="190" y="-1"/>
    </contour>
    <contour>
      <point x="30" y="453" type="curve"/>
      <point x="389" y="453" type="line"/>
      <point x="389" y="533"/>
      <point x="389" y="453"/>
      <point x="389" y="533" type="curve"/>
      <point x="30" y="533" type="line"/>
      <point x="30" y="453"/>
      <point x="30" y="533"/>
    </contour>
    <contour>
      <point x="242" y="0" type="curve"/>
      <point x="242" y="616" type="line"/>
      <point x="242" y="679"/>
      <point x="260" y="727"/>
      <point x="317" y="727" type="curve"/>
      <point x="342" y="727"/>
      <point x="365" y="718"/>
      <point x="387" y="707" type="curve"/>
      <point x="428" y="771"/>
      <point x="387" y="707"/>
      <point x="428" y="771" type="curve"/>
      <point x="395" y="789"/>
      <point x="356" y="804"/>
      <point x="317" y="804" type="curve"/>
      <point x="204" y="804"/>
      <point x="138" y="730"/>
      <point x="138" y="616" type="curve"/>
      <point x="138" y="0" type="line"/>
      <point x="242" y="0"/>
      <point x="138" y="0"/>
    </contour>
  </outline>
</glyph>
<glyph name="h" format="1">
  <advance width="617"/>
  <unicode hex="0068"/>
  <outline>
    <contour>
      <point x="475" y="-1" type="curve"/>
      <point x="524" y="-1"/>
      <point x="565" y="0"/>
      <point x="613" y="0" type="curve"/>
      <point x="613" y="80"/>
      <point x="613" y="0"/>
      <point x="613" y="80" type="curve"/>
      <point x="468" y="80"/>
      <point x="621" y="80"/>
      <point x="475" y="80" type="curve"/>
      <point x="475" y="-1"/>
      <point x="475" y="80"/>
    </contour>
    <contour>
      <point x="146" y="-1" type="curve"/>
      <point x="188" y="-1"/>
      <point x="138" y="-1"/>
      <point x="266" y="0" type="curve"/>
      <point x="266" y="80"/>
      <point x="266" y="0"/>
      <point x="266" y="80" type="curve"/>
      <point x="138" y="80"/>
      <point x="274" y="80"/>
      <point x="146" y="80" type="curve"/>
      <point x="146" y="-1"/>
      <point x="146" y="80"/>
    </contour>
    <contour>
      <point x="146" y="799" type="curve"/>
      <point x="97" y="799"/>
      <point x="56" y="800"/>
      <point x="8" y="800" type="curve"/>
      <point x="8" y="720"/>
      <point x="8" y="800"/>
      <point x="8" y="720" type="curve"/>
      <point x="153" y="719"/>
      <point x="0" y="720"/>
      <point x="146" y="719" type="curve"/>
      <point x="146" y="799"/>
      <point x="146" y="719"/>
    </contour>
    <contour>
      <point x="146" y="80" type="curve"/>
      <point x="0" y="80"/>
      <point x="153" y="80"/>
      <point x="8" y="80" type="curve"/>
      <point x="8" y="0"/>
      <point x="8" y="80"/>
      <point x="8" y="0" type="curve"/>
      <point x="56" y="0"/>
      <point x="97" y="-1"/>
      <point x="146" y="-1" type="curve"/>
      <point x="146" y="80"/>
      <point x="146" y="-1"/>
    </contour>
    <contour>
      <point x="174" y="314" type="curve"/>
      <point x="198" y="388"/>
      <point x="252" y="455"/>
      <point x="325" y="455" type="curve"/>
      <point x="401" y="455"/>
      <point x="424" y="397"/>
      <point x="424" y="317" type="curve"/>
      <point x="424" y="211"/>
      <point x="424" y="107"/>
      <point x="424" y="0" type="curve"/>
      <point x="528" y="0"/>
      <point x="424" y="0"/>
      <point x="528" y="0" type="curve"/>
      <point x="528" y="109"/>
      <point x="528" y="218"/>
      <point x="528" y="327" type="curve"/>
      <point x="528" y="455"/>
      <point x="477" y="535"/>
      <point x="350" y="535" type="curve"/>
      <point x="250" y="535"/>
      <point x="168" y="458"/>
      <point x="139" y="354" type="curve"/>
      <point x="176" y="313"/>
      <point x="138" y="354"/>
    </contour>
    <contour>
      <point x="198" y="0" type="curve"/>
      <point x="198" y="267"/>
      <point x="198" y="533"/>
      <point x="198" y="800" type="curve"/>
      <point x="94" y="800"/>
      <point x="198" y="800"/>
      <point x="94" y="800" type="curve"/>
      <point x="94" y="533"/>
      <point x="94" y="267"/>
      <point x="94" y="0" type="curve"/>
      <point x="198" y="0"/>
      <point x="94" y="0"/>
    </contour>
  </outline>
</glyph>
<glyph name="k" format="1">
  <advance width="573"/>
  <unicode hex="006B"/>
  <outline>
    <contour>
      <point x="353" y="-21" type="move" name="bottom"/>
    </contour>
    <contour>
      <point x="144" y="80" type="curve"/>
      <point x="-1" y="80"/>
      <point x="152" y="80"/>
      <point x="7" y="80" type="curve"/>
      <point x="7" y="0"/>
      <point x="7" y="80"/>
      <point x="7" y="0" type="curve"/>
      <point x="55" y="0"/>
      <point x="96" y="-1"/>
      <point x="144" y="-1" type="curve"/>
      <point x="144" y="80"/>
      <point x="144" y="-1"/>
    </contour>
    <contour>
      <point x="424" y="0" type="curve"/>
      <point x="471" y="0"/>
      <point x="509" y="0"/>
      <point x="556" y="0" type="curve"/>
      <point x="556" y="80"/>
      <point x="556" y="0"/>
      <point x="556" y="80" type="curve"/>
      <point x="415" y="80"/>
      <point x="567" y="80"/>
      <point x="425" y="80" type="curve"/>
      <point x="425" y="0"/>
      <point x="424" y="80"/>
    </contour>
    <contour>
      <point x="423" y="453" type="curve"/>
      <point x="541" y="453"/>
      <point x="413" y="453"/>
      <point x="531" y="453" type="curve"/>
      <point x="531" y="533"/>
      <point x="531" y="453"/>
      <point x="531" y="533" type="curve"/>
      <point x="491" y="533"/>
      <point x="462" y="533"/>
      <point x="423" y="533" type="curve"/>
      <point x="423" y="453"/>
      <point x="423" y="533"/>
    </contour>
    <contour>
      <point x="144" y="-1" type="curve"/>
      <point x="186" y="-1"/>
      <point x="142" y="-1"/>
      <point x="264" y="0" type="curve"/>
      <point x="264" y="80"/>
      <point x="264" y="0"/>
      <point x="264" y="80" type="curve"/>
      <point x="142" y="80"/>
      <point x="266" y="80"/>
      <point x="144" y="80" type="curve"/>
      <point x="144" y="-1"/>
      <point x="144" y="80"/>
    </contour>
    <contour>
      <point x="441" y="533" type="curve"/>
      <point x="381" y="533"/>
      <point x="326" y="533"/>
      <point x="266" y="533" type="curve"/>
      <point x="266" y="453"/>
      <point x="266" y="533"/>
      <point x="266" y="453" type="curve"/>
      <point x="445" y="453"/>
      <point x="262" y="453"/>
      <point x="441" y="453" type="curve"/>
      <point x="441" y="533"/>
      <point x="441" y="453"/>
    </contour>
    <contour>
      <point x="147" y="799" type="curve"/>
      <point x="98" y="799"/>
      <point x="57" y="800"/>
      <point x="8" y="800" type="curve"/>
      <point x="8" y="720"/>
      <point x="8" y="800"/>
      <point x="8" y="720" type="curve"/>
      <point x="154" y="719"/>
      <point x="1" y="720"/>
      <point x="147" y="719" type="curve"/>
      <point x="147" y="799"/>
      <point x="147" y="719"/>
    </contour>
    <contour>
      <point x="197" y="0" type="curve"/>
      <point x="197" y="800" type="line"/>
      <point x="93" y="800"/>
      <point x="197" y="800"/>
      <point x="93" y="800" type="curve"/>
      <point x="93" y="533"/>
      <point x="93" y="267"/>
      <point x="93" y="0" type="curve"/>
      <point x="197" y="0"/>
      <point x="93" y="0"/>
    </contour>
    <contour>
      <point x="397" y="533" type="curve"/>
      <point x="174" y="275" type="line"/>
      <point x="285" y="275"/>
      <point x="173" y="275"/>
      <point x="284" y="275" type="curve"/>
      <point x="492" y="500" type="line"/>
      <point x="385" y="500"/>
      <point x="503" y="533"/>
    </contour>
    <contour>
      <point x="507" y="43" type="curve"/>
      <point x="284" y="275" type="line"/>
      <point x="173" y="275"/>
      <point x="285" y="275"/>
      <point x="174" y="275" type="curve"/>
      <point x="419" y="0" type="line"/>
      <point x="521" y="0"/>
      <point x="406" y="43"/>
    </contour>
  </outline>
</glyph>
<glyph name="l" format="1">
  <advance width="323"/>
  <unicode hex="006C"/>
  <outline>
    <contour>
      <point x="163" y="885" type="move" name="top"/>
    </contour>
    <contour>
      <point x="201" y="-17" type="move" name="bottom"/>
    </contour>
    <contour>
      <point x="161" y="80" type="curve"/>
      <point x="16" y="80"/>
      <point x="161" y="80"/>
      <point x="16" y="80" type="curve"/>
      <point x="16" y="0"/>
      <point x="16" y="80"/>
      <point x="16" y="0" type="curve"/>
      <point x="65" y="0"/>
      <point x="112" y="0"/>
      <point x="161" y="0" type="curve"/>
      <point x="161" y="80"/>
      <point x="161" y="-1"/>
    </contour>
    <contour>
      <point x="164" y="800" type="curve"/>
      <point x="115" y="800"/>
      <point x="67" y="800"/>
      <point x="18" y="800" type="curve"/>
      <point x="18" y="720"/>
      <point x="18" y="800"/>
      <point x="18" y="720" type="curve"/>
      <point x="164" y="719"/>
      <point x="18" y="720"/>
      <point x="164" y="719" type="curve"/>
      <point x="164" y="799"/>
      <point x="164" y="720"/>
    </contour>
    <contour>
      <point x="161" y="0" type="curve"/>
      <point x="211" y="0"/>
      <point x="259" y="0"/>
      <point x="308" y="0" type="curve"/>
      <point x="308" y="80"/>
      <point x="308" y="0"/>
      <point x="308" y="80" type="curve"/>
      <point x="161" y="80"/>
      <point x="308" y="80"/>
      <point x="161" y="80" type="curve"/>
      <point x="161" y="-1"/>
      <point x="161" y="80"/>
    </contour>
    <contour>
      <point x="213" y="0" type="curve"/>
      <point x="213" y="267"/>
      <point x="213" y="533"/>
      <point x="213" y="800" type="curve"/>
      <point x="109" y="800"/>
      <point x="213" y="800"/>
      <point x="109" y="800" type="curve"/>
      <point x="109" y="533"/>
      <point x="109" y="267"/>
      <point x="109" y="0" type="curve"/>
      <point x="213" y="0"/>
      <point x="109" y="0"/>
    </contour>
  </outline>
</glyph>
<glyph name="m" format="1">
  <advance width="934"/>
  <unicode hex="006D"/>
  <outline>
    <contour>
      <point x="479" y="0" type="curve"/>
      <point x="599" y="0"/>
      <point x="479" y="0"/>
      <point x="600" y="0" type="curve"/>
      <point x="600" y="80"/>
      <point x="600" y="0"/>
      <point x="600" y="80" type="curve"/>
      <point x="479" y="80"/>
      <point x="599" y="80"/>
      <point x="479" y="80" type="curve"/>
      <point x="479" y="0"/>
      <point x="479" y="80"/>
    </contour>
    <contour>
      <point x="775" y="0" type="curve"/>
      <point x="819" y="0"/>
      <point x="862" y="0"/>
      <point x="908" y="0" type="curve"/>
      <point x="908" y="80"/>
      <point x="908" y="0"/>
      <point x="908" y="80" type="curve"/>
      <point x="773" y="80"/>
      <point x="910" y="80"/>
      <point x="775" y="80" type="curve"/>
      <point x="775" y="0"/>
      <point x="775" y="80"/>
    </contour>
    <contour>
      <point x="185" y="80" type="curve"/>
      <point x="44" y="80"/>
      <point x="187" y="80"/>
      <point x="47" y="80" type="curve"/>
      <point x="46" y="0"/>
      <point x="47" y="80"/>
      <point x="46" y="0" type="curve"/>
      <point x="93" y="0"/>
      <point x="138" y="0"/>
      <point x="185" y="0" type="curve"/>
      <point x="185" y="80"/>
      <point x="185" y="0"/>
    </contour>
    <contour>
      <point x="185" y="0" type="curve"/>
      <point x="225" y="0"/>
      <point x="180" y="0"/>
      <point x="302" y="0" type="curve"/>
      <point x="302" y="80"/>
      <point x="302" y="0"/>
      <point x="302" y="80" type="curve"/>
      <point x="180" y="80"/>
      <point x="307" y="80"/>
      <point x="185" y="80" type="curve"/>
      <point x="185" y="0"/>
      <point x="185" y="80"/>
    </contour>
    <contour>
      <point x="185" y="533" type="curve"/>
      <point x="138" y="533"/>
      <point x="93" y="533"/>
      <point x="47" y="533" type="curve"/>
      <point x="46" y="453"/>
      <point x="47" y="533"/>
      <point x="46" y="453" type="curve"/>
      <point x="187" y="453"/>
      <point x="43" y="453"/>
      <point x="185" y="453" type="curve"/>
      <point x="185" y="533"/>
      <point x="185" y="453"/>
    </contour>
    <contour>
      <point x="508" y="298" type="curve"/>
      <point x="535" y="379"/>
      <point x="568" y="455"/>
      <point x="639" y="455" type="curve"/>
      <point x="713" y="455"/>
      <point x="722" y="402"/>
      <point x="722" y="319" type="curve"/>
      <point x="722" y="213"/>
      <point x="722" y="107"/>
      <point x="722" y="0" type="curve"/>
      <point x="825" y="0"/>
      <point x="722" y="0"/>
      <point x="825" y="0" type="curve"/>
      <point x="825" y="109"/>
      <point x="825" y="218"/>
      <point x="825" y="327" type="curve"/>
      <point x="825" y="459"/>
      <point x="797" y="538"/>
      <point x="670" y="538" type="curve"/>
      <point x="568" y="538"/>
      <point x="507" y="456"/>
      <point x="472" y="342" type="curve"/>
      <point x="510" y="299"/>
      <point x="469" y="341"/>
    </contour>
    <contour>
      <point x="213" y="299" type="curve"/>
      <point x="238" y="379"/>
      <point x="271" y="455"/>
      <point x="343" y="455" type="curve"/>
      <point x="418" y="455"/>
      <point x="427" y="402"/>
      <point x="427" y="319" type="curve"/>
      <point x="427" y="213"/>
      <point x="427" y="107"/>
      <point x="427" y="0" type="curve"/>
      <point x="531" y="0"/>
      <point x="427" y="0"/>
      <point x="531" y="0" type="curve"/>
      <point x="531" y="109"/>
      <point x="531" y="218"/>
      <point x="531" y="327" type="curve"/>
      <point x="531" y="459"/>
      <point x="503" y="538"/>
      <point x="376" y="538" type="curve"/>
      <point x="272" y="538"/>
      <point x="216" y="459"/>
      <point x="178" y="344" type="curve"/>
      <point x="215" y="301"/>
      <point x="175" y="342"/>
    </contour>
    <contour>
      <point x="236" y="0" type="curve"/>
      <point x="236" y="178"/>
      <point x="236" y="355"/>
      <point x="236" y="533" type="curve"/>
      <point x="133" y="533"/>
      <point x="236" y="533"/>
      <point x="133" y="533" type="curve"/>
      <point x="133" y="355"/>
      <point x="133" y="178"/>
      <point x="133" y="0" type="curve"/>
      <point x="236" y="0"/>
      <point x="133" y="0"/>
    </contour>
  </outline>
</glyph>
<glyph name="q" format="1">
  <advance width="635"/>
  <unicode hex="0071"/>
  <outline>
    <contour>
      <point x="478" y="453" type="curve"/>
      <point x="594" y="453"/>
      <point x="490" y="453"/>
      <point x="607" y="453" type="curve"/>
      <point x="607" y="520"/>
      <point x="607" y="466"/>
      <point x="607" y="533" type="curve"/>
      <point x="560" y="533"/>
      <point x="524" y="533"/>
      <point x="478" y="533" type="curve"/>
      <point x="478" y="466"/>
      <point x="478" y="520"/>
    </contour>
    <contour>
      <point x="477" y="-219" type="curve"/>
      <point x="352" y="-219"/>
      <point x="464" y="-219"/>
      <point x="339" y="-219" type="curve"/>
      <point x="339" y="-287"/>
      <point x="339" y="-232"/>
      <point x="339" y="-300" type="curve"/>
      <point x="389" y="-300"/>
      <point x="428" y="-300"/>
      <point x="477" y="-300" type="curve"/>
      <point x="477" y="-232"/>
      <point x="477" y="-287"/>
    </contour>
    <contour>
      <point x="477" y="-300" type="curve"/>
      <point x="523" y="-300"/>
      <point x="560" y="-300"/>
      <point x="606" y="-300" type="curve"/>
      <point x="606" y="-232"/>
      <point x="606" y="-287"/>
      <point x="606" y="-219" type="curve"/>
      <point x="489" y="-219"/>
      <point x="595" y="-219"/>
      <point x="477" y="-219" type="curve"/>
      <point x="477" y="-287"/>
      <point x="477" y="-232"/>
    </contour>
    <contour>
      <point x="486" y="407" type="curve"/>
      <point x="435" y="488"/>
      <point x="361" y="538"/>
      <point x="271" y="538" type="curve"/>
      <point x="117" y="538"/>
      <point x="48" y="420"/>
      <point x="48" y="264" type="curve"/>
      <point x="49" y="109"/>
      <point x="122" y="-5"/>
      <point x="276" y="-5" type="curve"/>
      <point x="367" y="-5"/>
      <point x="439" y="54"/>
      <point x="490" y="129" type="curve"/>
      <point x="459" y="167"/>
      <point x="480" y="138"/>
      <point x="450" y="176" type="curve"/>
      <point x="413" y="116"/>
      <point x="358" y="75"/>
      <point x="291" y="75" type="curve"/>
      <point x="191" y="75"/>
      <point x="152" y="160"/>
      <point x="152" y="268" type="curve"/>
      <point x="152" y="373"/>
      <point x="192" y="456"/>
      <point x="289" y="456" type="curve"/>
      <point x="353" y="456"/>
      <point x="407" y="424"/>
      <point x="454" y="356" type="curve"/>
      <point x="476" y="398"/>
      <point x="463" y="365"/>
    </contour>
    <contour>
      <point x="530" y="-300" type="curve"/>
      <point x="530" y="-17"/>
      <point x="530" y="250"/>
      <point x="530" y="533" type="curve"/>
      <point x="440" y="533"/>
      <point x="512" y="533"/>
      <point x="422" y="533" type="curve"/>
      <point x="422" y="250"/>
      <point x="422" y="-17"/>
      <point x="422" y="-300" type="curve"/>
      <point x="512" y="-300"/>
      <point x="440" y="-300"/>
    </contour>
  </outline>
</glyph>
<glyph name="t" format="1">
  <advance width="380"/>
  <unicode hex="0074"/>
  <outline>
    <contour>
      <point x="277" y="-16" type="move" name="bottom"/>
    </contour>
    <contour>
      <point x="15" y="452" type="curve"/>
      <point x="354" y="452" type="line"/>
      <point x="354" y="533"/>
      <point x="354" y="452"/>
      <point x="354" y="533" type="curve"/>
      <point x="15" y="533" type="line"/>
      <point x="15" y="452"/>
      <point x="15" y="533"/>
    </contour>
    <contour>
      <point x="324" y="99" type="curve"/>
      <point x="303" y="85"/>
      <point x="286" y="79"/>
      <point x="262" y="79" type="curve"/>
      <point x="216" y="79"/>
      <point x="204" y="113"/>
      <point x="204" y="165" type="curve"/>
      <point x="204" y="682" type="line"/>
      <point x="134" y="638"/>
      <point x="170" y="661"/>
      <point x="100" y="617" type="curve"/>
      <point x="100" y="161" type="line"/>
      <point x="100" y="55"/>
      <point x="149" y="-6"/>
      <point x="248" y="-6" type="curve"/>
      <point x="294" y="-6"/>
      <point x="325" y="8"/>
      <point x="363" y="28" type="curve"/>
      <point x="324" y="99"/>
      <point x="363" y="28"/>
    </contour>
  </outline>
</glyph>
<glyph name="v" format="1">
  <advance width="622"/>
  <unicode hex="0076"/>
  <outline>
    <contour>
      <point x="133" y="533" type="curve"/>
      <point x="92" y="533"/>
      <point x="54" y="533"/>
      <point x="14" y="533" type="curve"/>
      <point x="14" y="453"/>
      <point x="14" y="533"/>
      <point x="14" y="453" type="curve"/>
      <point x="135" y="453"/>
      <point x="11" y="453"/>
      <point x="133" y="453" type="curve"/>
      <point x="133" y="533"/>
      <point x="133" y="453"/>
    </contour>
    <contour>
      <point x="133" y="453" type="curve"/>
      <point x="265" y="453"/>
      <point x="130" y="453"/>
      <point x="263" y="453" type="curve"/>
      <point x="263" y="533"/>
      <point x="263" y="453"/>
      <point x="263" y="533" type="curve"/>
      <point x="219" y="533"/>
      <point x="177" y="533"/>
      <point x="133" y="533" type="curve"/>
      <point x="133" y="453"/>
      <point x="133" y="533"/>
    </contour>
    <contour>
      <point x="498" y="533" type="curve"/>
      <point x="453" y="533"/>
      <point x="410" y="533"/>
      <point x="365" y="533" type="curve"/>
      <point x="365" y="453"/>
      <point x="365" y="533"/>
      <point x="365" y="453" type="curve"/>
      <point x="500" y="453"/>
      <point x="363" y="453"/>
      <point x="498" y="453" type="curve"/>
      <point x="498" y="533"/>
      <point x="498" y="453"/>
    </contour>
    <contour>
      <point x="498" y="453" type="curve"/>
      <point x="618" y="453"/>
      <point x="496" y="453"/>
      <point x="616" y="453" type="curve"/>
      <point x="616" y="533"/>
      <point x="616" y="453"/>
      <point x="616" y="533" type="curve"/>
      <point x="576" y="533"/>
      <point x="538" y="533"/>
      <point x="498" y="533" type="curve"/>
      <point x="498" y="453"/>
      <point x="498" y="533"/>
    </contour>
    <contour>
      <point x="67" y="533" type="curve"/>
      <point x="129" y="355"/>
      <point x="191" y="178"/>
      <point x="252" y="0" type="curve"/>
      <point x="351" y="0"/>
      <point x="252" y="0"/>
      <point x="351" y="0" type="curve"/>
      <point x="290" y="177"/>
      <point x="234" y="356"/>
      <point x="173" y="533" type="curve"/>
      <point x="67" y="533"/>
      <point x="173" y="533"/>
    </contour>
    <contour>
      <point x="458" y="533" type="curve"/>
      <point x="270" y="0" type="line"/>
      <point x="370" y="0"/>
      <point x="270" y="0"/>
      <point x="370" y="0" type="curve"/>
      <point x="434" y="178"/>
      <point x="499" y="355"/>
      <point x="563" y="533" type="curve"/>
      <point x="458" y="533"/>
      <point x="563" y="533"/>
    </contour>
  </outline>
</glyph>
<glyph name="w" format="1">
  <advance width="908"/>
  <unicode hex="0077"/>
  <outline>
    <contour>
      <point x="771" y="453" type="curve"/>
      <point x="900" y="453"/>
      <point x="768" y="453"/>
      <point x="898" y="453" type="curve"/>
      <point x="898" y="533"/>
      <point x="898" y="453"/>
      <point x="898" y="533" type="curve"/>
      <point x="855" y="533"/>
      <point x="814" y="533"/>
      <point x="771" y="533" type="curve"/>
      <point x="771" y="453"/>
      <point x="771" y="533"/>
    </contour>
    <contour>
      <point x="771" y="533" type="curve"/>
      <point x="727" y="533"/>
      <point x="690" y="533"/>
      <point x="646" y="533" type="curve"/>
      <point x="646" y="453"/>
      <point x="646" y="533"/>
      <point x="646" y="453" type="curve"/>
      <point x="778" y="453"/>
      <point x="640" y="453"/>
      <point x="771" y="453" type="curve"/>
      <point x="771" y="533"/>
      <point x="771" y="453"/>
    </contour>
    <contour>
      <point x="139" y="533" type="curve"/>
      <point x="96" y="533"/>
      <point x="55" y="533"/>
      <point x="11" y="533" type="curve"/>
      <point x="11" y="453"/>
      <point x="11" y="533"/>
      <point x="11" y="453" type="curve"/>
      <point x="141" y="453"/>
      <point x="9" y="453"/>
      <point x="139" y="453" type="curve"/>
      <point x="139" y="533"/>
      <point x="139" y="453"/>
    </contour>
    <contour>
      <point x="139" y="453" type="curve"/>
      <point x="267" y="453"/>
      <point x="134" y="453"/>
      <point x="263" y="453" type="curve"/>
      <point x="263" y="533"/>
      <point x="263" y="453"/>
      <point x="263" y="533" type="curve"/>
      <point x="220" y="533"/>
      <point x="181" y="533"/>
      <point x="139" y="533" type="curve"/>
      <point x="139" y="453"/>
      <point x="139" y="533"/>
    </contour>
    <contour>
      <point x="325" y="0" type="curve"/>
      <point x="386" y="178"/>
      <point x="446" y="355"/>
      <point x="506" y="533" type="curve"/>
      <point x="410" y="533"/>
      <point x="506" y="533"/>
      <point x="410" y="533" type="curve"/>
      <point x="351" y="355"/>
      <point x="292" y="178"/>
      <point x="232" y="0" type="curve"/>
      <point x="325" y="0"/>
      <point x="232" y="0"/>
    </contour>
    <contour>
      <point x="744" y="533" type="curve"/>
      <point x="689" y="355"/>
      <point x="634" y="178"/>
      <point x="579" y="0" type="curve"/>
      <point x="671" y="0"/>
      <point x="579" y="0"/>
      <point x="671" y="0" type="curve"/>
      <point x="727" y="178"/>
      <point x="784" y="355"/>
      <point x="840" y="533" type="curve"/>
      <point x="744" y="533"/>
      <point x="840" y="533"/>
    </contour>
    <contour>
      <point x="416" y="533" type="curve"/>
      <point x="469" y="355"/>
      <point x="524" y="178"/>
      <point x="578" y="0" type="curve"/>
      <point x="670" y="0"/>
      <point x="578" y="0"/>
      <point x="670" y="0" type="curve"/>
      <point x="617" y="178"/>
      <point x="563" y="355"/>
      <point x="510" y="533" type="curve"/>
      <point x="416" y="533"/>
      <point x="510" y="533"/>
    </contour>
    <contour>
      <point x="70" y="533" type="curve"/>
      <point x="124" y="355"/>
      <point x="178" y="178"/>
      <point x="232" y="0" type="curve"/>
      <point x="324" y="0"/>
      <point x="232" y="0"/>
      <point x="324" y="0" type="curve"/>
      <point x="271" y="178"/>
      <point x="218" y="355"/>
      <point x="165" y="533" type="curve"/>
      <point x="70" y="533"/>
      <point x="165" y="533"/>
    </contour>
  </outline>
</glyph>
<glyph name="braceleft" format="1">
  <advance width="290"/>
  <unicode hex="007B"/>
  <outline>
    <contour>
      <point x="242" y="-34" type="curve"/>
      <point x="197" y="-34"/>
      <point x="186" y="4"/>
      <point x="186" y="52" type="curve"/>
      <point x="186" y="106"/>
      <point x="186" y="159"/>
      <point x="186" y="213" type="curve"/>
      <point x="186" y="313"/>
      <point x="133" y="382"/>
      <point x="37" y="382" type="curve"/>
      <point x="37" y="298"/>
      <point x="37" y="382"/>
      <point x="37" y="298" type="curve"/>
      <point x="78" y="298"/>
      <point x="92" y="265"/>
      <point x="92" y="221" type="curve"/>
      <point x="92" y="167"/>
      <point x="92" y="111"/>
      <point x="92" y="57" type="curve"/>
      <point x="92" y="-45"/>
      <point x="145" y="-114"/>
      <point x="242" y="-114" type="curve"/>
      <point x="242" y="-34"/>
      <point x="242" y="-114"/>
    </contour>
    <contour>
      <point x="242" y="794" type="curve"/>
      <point x="145" y="794"/>
      <point x="92" y="727"/>
      <point x="92" y="626" type="curve"/>
      <point x="92" y="569"/>
      <point x="92" y="513"/>
      <point x="92" y="456" type="curve"/>
      <point x="92" y="413"/>
      <point x="78" y="382"/>
      <point x="37" y="382" type="curve"/>
      <point x="37" y="298"/>
      <point x="37" y="382"/>
      <point x="37" y="298" type="curve"/>
      <point x="134" y="298"/>
      <point x="186" y="366"/>
      <point x="186" y="468" type="curve"/>
      <point x="186" y="521"/>
      <point x="186" y="573"/>
      <point x="186" y="626" type="curve"/>
      <point x="186" y="675"/>
      <point x="197" y="713"/>
      <point x="242" y="713" type="curve"/>
      <point x="242" y="794"/>
      <point x="242" y="713"/>
    </contour>
  </outline>
</glyph>
<glyph name="braceright" format="1">
  <advance width="291"/>
  <unicode hex="007D"/>
  <outline>
    <contour>
      <point x="49" y="-114" type="curve"/>
      <point x="146" y="-114"/>
      <point x="199" y="-45"/>
      <point x="199" y="57" type="curve"/>
      <point x="199" y="111"/>
      <point x="199" y="167"/>
      <point x="199" y="221" type="curve"/>
      <point x="199" y="265"/>
      <point x="212" y="298"/>
      <point x="254" y="298" type="curve"/>
      <point x="254" y="382"/>
      <point x="254" y="298"/>
      <point x="254" y="382" type="curve"/>
      <point x="157" y="382"/>
      <point x="105" y="313"/>
      <point x="105" y="213" type="curve"/>
      <point x="105" y="159"/>
      <point x="105" y="106"/>
      <point x="105" y="52" type="curve"/>
      <point x="105" y="4"/>
      <point x="93" y="-34"/>
      <point x="49" y="-34" type="curve"/>
      <point x="49" y="-114"/>
      <point x="49" y="-34"/>
    </contour>
    <contour>
      <point x="49" y="713" type="curve"/>
      <point x="94" y="713"/>
      <point x="105" y="675"/>
      <point x="105" y="626" type="curve"/>
      <point x="105" y="573"/>
      <point x="105" y="521"/>
      <point x="105" y="468" type="curve"/>
      <point x="105" y="366"/>
      <point x="157" y="298"/>
      <point x="254" y="298" type="curve"/>
      <point x="254" y="382"/>
      <point x="254" y="298"/>
      <point x="254" y="382" type="curve"/>
      <point x="213" y="382"/>
      <point x="199" y="413"/>
      <point x="199" y="456" type="curve"/>
      <point x="199" y="513"/>
      <point x="199" y="569"/>
      <point x="199" y="626" type="curve"/>
      <point x="199" y="727"/>
      <point x="146" y="794"/>
      <point x="49" y="794" type="curve"/>
      <point x="49" y="713"/>
      <point x="49" y="794"/>
    </contour>
  </outline>
</glyph>
<glyph name="asciitilde" format="1">
  <advance width="648"/>
  <unicode hex="007E"/>
  <outline>
    <contour>
      <point x="498" y="367" type="curve"/>
      <point x="484" y="326"/>
      <point x="469" y="285"/>
      <point x="432" y="285" type="curve"/>
      <point x="398" y="285"/>
      <point x="380" y="296"/>
      <point x="355" y="317" type="curve"/>
      <point x="313" y="355"/>
      <point x="281" y="377"/>
      <point x="223" y="377" type="curve"/>
      <point x="133" y="377"/>
      <point x="92" y="325"/>
      <point x="69" y="237" type="curve"/>
      <point x="105" y="225"/>
      <point x="114" y="220"/>
      <point x="149" y="208" type="curve"/>
      <point x="162" y="254"/>
      <point x="179" y="293"/>
      <point x="220" y="293" type="curve"/>
      <point x="250" y="293"/>
      <point x="266" y="282"/>
      <point x="289" y="263" type="curve"/>
      <point x="335" y="223"/>
      <point x="368" y="202"/>
      <point x="430" y="201" type="curve"/>
      <point x="517" y="201"/>
      <point x="551" y="256"/>
      <point x="579" y="339" type="curve"/>
      <point x="543" y="351"/>
      <point x="534" y="355"/>
    </contour>
  </outline>
</glyph>
<glyph name="exclamdown" format="1">
  <advance width="256"/>
  <unicode hex="00A1"/>
  <outline>
    <contour>
      <point x="80" y="302" type="line"/>
      <point x="70" y="-191" type="line"/>
      <point x="186" y="-192" type="line"/>
      <point x="177" y="301" type="line"/>
    </contour>
    <contour>
      <point x="71" y="486" type="curve"/>
      <point x="71" y="450"/>
      <point x="96" y="433"/>
      <point x="130" y="432" type="curve"/>
      <point x="164" y="432"/>
      <point x="186" y="451"/>
      <point x="186" y="485" type="curve"/>
      <point x="73" y="486"/>
      <point x="183" y="485"/>
      <point x="71" y="486" type="curve"/>
      <point x="71" y="522"/>
      <point x="96" y="538"/>
      <point x="130" y="538" type="curve"/>
      <point x="165" y="538"/>
      <point x="187" y="520"/>
      <point x="186" y="485" type="curve"/>
      <point x="73" y="486"/>
      <point x="183" y="485"/>
    </contour>
  </outline>
</glyph>
<glyph name="cent" format="1">
  <advance width="618"/>
  <unicode hex="00A2"/>
  <outline>
    <contour>
      <point x="378" y="-53" type="curve"/>
      <point x="378" y="-13"/>
      <point x="378" y="27"/>
      <point x="378" y="67" type="curve"/>
      <point x="274" y="67"/>
      <point x="378" y="67"/>
      <point x="274" y="67" type="curve"/>
      <point x="274" y="27"/>
      <point x="274" y="-13"/>
      <point x="274" y="-53" type="curve"/>
      <point x="378" y="-53"/>
      <point x="274" y="-53"/>
    </contour>
    <contour>
      <point x="293" y="778" type="curve"/>
      <point x="293" y="742"/>
      <point x="293" y="706"/>
      <point x="293" y="670" type="curve"/>
      <point x="396" y="670"/>
      <point x="293" y="670"/>
      <point x="396" y="670" type="curve"/>
      <point x="396" y="706"/>
      <point x="396" y="742"/>
      <point x="396" y="778" type="curve"/>
      <point x="293" y="778"/>
      <point x="396" y="778"/>
    </contour>
    <contour>
      <point x="562" y="610" type="curve"/>
      <point x="494" y="664"/>
      <point x="436" y="684"/>
      <point x="352" y="684" type="curve"/>
      <point x="162" y="684"/>
      <point x="52" y="559"/>
      <point x="52" y="364" type="curve"/>
      <point x="52" y="178"/>
      <point x="143" y="48"/>
      <point x="321" y="48" type="curve"/>
      <point x="420" y="48"/>
      <point x="487" y="76"/>
      <point x="561" y="145" type="curve"/>
      <point x="500" y="207"/>
      <point x="561" y="145"/>
      <point x="500" y="207" type="curve"/>
      <point x="444" y="161"/>
      <point x="400" y="132"/>
      <point x="331" y="132" type="curve"/>
      <point x="209" y="132"/>
      <point x="156" y="233"/>
      <point x="156" y="368" type="curve"/>
      <point x="156" y="504"/>
      <point x="220" y="600"/>
      <point x="343" y="600" type="curve"/>
      <point x="408" y="600"/>
      <point x="452" y="582"/>
      <point x="507" y="543" type="curve"/>
      <point x="562" y="610"/>
      <point x="507" y="543"/>
    </contour>
    <contour>
      <point x="480" y="610" type="curve"/>
      <point x="480" y="489"/>
      <point x="480" y="595"/>
      <point x="480" y="473" type="curve"/>
      <point x="562" y="473"/>
      <point x="480" y="473"/>
      <point x="562" y="473" type="curve"/>
      <point x="562" y="595"/>
      <point x="562" y="489"/>
      <point x="562" y="610" type="curve"/>
      <point x="480" y="610"/>
      <point x="562" y="610"/>
    </contour>
  </outline>
</glyph>
<glyph name="currency" format="1">
  <advance width="639"/>
  <unicode hex="00A4"/>
  <outline>
    <contour>
      <point x="237" y="315" type="curve"/>
      <point x="237" y="374"/>
      <point x="262" y="420"/>
      <point x="318" y="420" type="curve"/>
      <point x="376" y="420"/>
      <point x="400" y="377"/>
      <point x="400" y="315" type="curve"/>
      <point x="400" y="253"/>
      <point x="379" y="203"/>
      <point x="322" y="203" type="curve"/>
      <point x="261" y="203"/>
      <point x="237" y="251"/>
      <point x="237" y="315" type="curve"/>
      <point x="134" y="315"/>
      <point x="241" y="315"/>
      <point x="138" y="315" type="curve"/>
      <point x="138" y="197"/>
      <point x="206" y="123"/>
      <point x="321" y="123" type="curve"/>
      <point x="435" y="123"/>
      <point x="501" y="201"/>
      <point x="501" y="317" type="curve"/>
      <point x="501" y="428"/>
      <point x="436" y="500"/>
      <point x="326" y="500" type="curve"/>
      <point x="210" y="500"/>
      <point x="138" y="429"/>
      <point x="138" y="315" type="curve"/>
      <point x="241" y="315"/>
      <point x="134" y="315"/>
    </contour>
    <contour>
      <point x="425" y="360" type="line"/>
      <point x="579" y="503" type="line"/>
      <point x="502" y="580" type="line"/>
      <point x="359" y="426" type="line"/>
    </contour>
    <contour>
      <point x="362" y="204" type="line"/>
      <point x="506" y="50" type="line"/>
      <point x="583" y="127" type="line"/>
      <point x="428" y="270" type="line"/>
    </contour>
    <contour>
      <point x="211" y="271" type="line"/>
      <point x="56" y="127" type="line"/>
      <point x="133" y="50" type="line"/>
      <point x="277" y="204" type="line"/>
    </contour>
    <contour>
      <point x="282" y="427" type="line"/>
      <point x="138" y="582" type="line"/>
      <point x="61" y="504" type="line"/>
      <point x="216" y="361" type="line"/>
    </contour>
  </outline>
</glyph>
<glyph name="yen" format="1">
  <advance width="702"/>
  <unicode hex="00A5"/>
  <outline>
    <contour>
      <point x="545" y="408" type="curve"/>
      <point x="482" y="408"/>
      <point x="420" y="408"/>
      <point x="357" y="408" type="curve"/>
      <point x="357" y="320"/>
      <point x="357" y="408"/>
      <point x="357" y="320" type="curve"/>
      <point x="420" y="320"/>
      <point x="482" y="320"/>
      <point x="545" y="320" type="curve"/>
      <point x="545" y="408"/>
      <point x="545" y="320"/>
    </contour>
    <contour>
      <point x="332" y="408" type="curve"/>
      <point x="270" y="408"/>
      <point x="209" y="408"/>
      <point x="148" y="408" type="curve"/>
      <point x="148" y="320"/>
      <point x="148" y="408"/>
      <point x="148" y="320" type="curve"/>
      <point x="209" y="320"/>
      <point x="270" y="320"/>
      <point x="332" y="320" type="curve"/>
      <point x="332" y="408"/>
      <point x="332" y="320"/>
    </contour>
    <contour>
      <point x="545" y="269" type="curve"/>
      <point x="413" y="269"/>
      <point x="280" y="269"/>
      <point x="148" y="269" type="curve"/>
      <point x="148" y="181"/>
      <point x="148" y="269"/>
      <point x="148" y="181" type="curve"/>
      <point x="280" y="181"/>
      <point x="413" y="181"/>
      <point x="545" y="181" type="curve"/>
      <point x="545" y="269"/>
      <point x="545" y="181"/>
    </contour>
    <contour>
      <point x="343" y="80" type="curve"/>
      <point x="200" y="80"/>
      <point x="346" y="80"/>
      <point x="203" y="80" type="curve"/>
      <point x="203" y="0"/>
      <point x="203" y="80"/>
      <point x="203" y="0" type="curve"/>
      <point x="250" y="0"/>
      <point x="296" y="0"/>
      <point x="343" y="0" type="curve"/>
      <point x="343" y="80"/>
      <point x="343" y="0"/>
    </contour>
    <contour>
      <point x="343" y="0" type="curve"/>
      <point x="392" y="0"/>
      <point x="437" y="0"/>
      <point x="485" y="0" type="curve"/>
      <point x="485" y="80"/>
      <point x="485" y="0"/>
      <point x="485" y="80" type="curve"/>
      <point x="341" y="80"/>
      <point x="487" y="80"/>
      <point x="343" y="80" type="curve"/>
      <point x="343" y="0"/>
      <point x="343" y="80"/>
    </contour>
    <contour>
      <point x="533" y="722" type="curve"/>
      <point x="487" y="722"/>
      <point x="443" y="722"/>
      <point x="397" y="722" type="curve"/>
      <point x="397" y="642"/>
      <point x="397" y="722"/>
      <point x="397" y="642" type="curve"/>
      <point x="535" y="642"/>
      <point x="395" y="642"/>
      <point x="533" y="642" type="curve"/>
      <point x="533" y="722"/>
      <point x="533" y="642"/>
    </contour>
    <contour>
      <point x="156" y="722" type="curve"/>
      <point x="116" y="722"/>
      <point x="76" y="722"/>
      <point x="36" y="722" type="curve"/>
      <point x="36" y="642"/>
      <point x="36" y="722"/>
      <point x="36" y="642" type="curve"/>
      <point x="159" y="642"/>
      <point x="33" y="642"/>
      <point x="156" y="642" type="curve"/>
      <point x="156" y="722"/>
      <point x="156" y="642"/>
    </contour>
    <contour>
      <point x="165" y="642" type="curve"/>
      <point x="304" y="642"/>
      <point x="163" y="642"/>
      <point x="302" y="642" type="curve"/>
      <point x="302" y="722"/>
      <point x="302" y="642"/>
      <point x="302" y="722" type="curve"/>
      <point x="256" y="722"/>
      <point x="211" y="722"/>
      <point x="165" y="722" type="curve"/>
      <point x="165" y="642"/>
      <point x="165" y="722"/>
    </contour>
    <contour>
      <point x="542" y="642" type="curve"/>
      <point x="668" y="642"/>
      <point x="540" y="642"/>
      <point x="666" y="642" type="curve"/>
      <point x="666" y="722"/>
      <point x="666" y="642"/>
      <point x="666" y="722" type="curve"/>
      <point x="625" y="722"/>
      <point x="584" y="722"/>
      <point x="542" y="722" type="curve"/>
      <point x="542" y="642"/>
      <point x="542" y="722"/>
    </contour>
    <contour>
      <point x="88" y="715" type="curve"/>
      <point x="155" y="589"/>
      <point x="222" y="464"/>
      <point x="289" y="337" type="curve"/>
      <point x="393" y="337"/>
      <point x="278" y="337"/>
      <point x="383" y="337" type="curve"/>
      <point x="318" y="468"/>
      <point x="255" y="593"/>
      <point x="188" y="722" type="curve"/>
      <point x="88" y="722"/>
      <point x="188" y="715"/>
    </contour>
    <contour>
      <point x="511" y="722" type="curve"/>
      <point x="439" y="591"/>
      <point x="371" y="467"/>
      <point x="299" y="337" type="curve"/>
      <point x="404" y="337"/>
      <point x="294" y="337"/>
      <point x="399" y="337" type="curve"/>
      <point x="470" y="464"/>
      <point x="540" y="589"/>
      <point x="611" y="716" type="curve"/>
      <point x="511" y="716"/>
      <point x="611" y="722"/>
    </contour>
    <contour>
      <point x="400" y="0" type="curve"/>
      <point x="400" y="115"/>
      <point x="400" y="226"/>
      <point x="400" y="340" type="curve"/>
      <point x="287" y="340"/>
      <point x="400" y="340"/>
      <point x="287" y="340" type="curve"/>
      <point x="287" y="226"/>
      <point x="287" y="115"/>
      <point x="287" y="0" type="curve"/>
      <point x="400" y="0"/>
      <point x="287" y="0"/>
    </contour>
  </outline>
</glyph>
<glyph name="section" format="1">
  <advance width="505"/>
  <unicode hex="00A7"/>
  <outline>
    <contour>
      <point x="403" y="703" type="curve"/>
      <point x="352" y="734"/>
      <point x="314" y="749"/>
      <point x="256" y="749" type="curve"/>
      <point x="154" y="749"/>
      <point x="87" y="698"/>
      <point x="87" y="605" type="curve"/>
      <point x="87" y="522"/>
      <point x="138" y="476"/>
      <point x="217" y="446" type="curve"/>
      <point x="280" y="423"/>
      <point x="348" y="415"/>
      <point x="348" y="360" type="curve"/>
      <point x="348" y="305"/>
      <point x="312" y="275"/>
      <point x="254" y="263" type="curve"/>
      <point x="316" y="199"/>
      <point x="254" y="263"/>
      <point x="316" y="199" type="curve"/>
      <point x="402" y="221"/>
      <point x="451" y="274"/>
      <point x="451" y="361" type="curve"/>
      <point x="450" y="459"/>
      <point x="367" y="489"/>
      <point x="269" y="522" type="curve"/>
      <point x="224" y="539"/>
      <point x="186" y="560"/>
      <point x="186" y="605" type="curve"/>
      <point x="186" y="644"/>
      <point x="211" y="669"/>
      <point x="254" y="669" type="curve"/>
      <point x="296" y="669"/>
      <point x="320" y="658"/>
      <point x="356" y="638" type="curve"/>
      <point x="403" y="703"/>
      <point x="356" y="638"/>
    </contour>
    <contour>
      <point x="189" y="523" type="curve"/>
      <point x="108" y="496"/>
      <point x="57" y="450"/>
      <point x="57" y="366" type="curve"/>
      <point x="57" y="273"/>
      <point x="127" y="234"/>
      <point x="220" y="203" type="curve"/>
      <point x="272" y="184"/>
      <point x="324" y="170"/>
      <point x="324" y="121" type="curve"/>
      <point x="324" y="79"/>
      <point x="296" y="53"/>
      <point x="254" y="53" type="curve"/>
      <point x="207" y="53"/>
      <point x="178" y="68"/>
      <point x="138" y="95" type="curve"/>
      <point x="84" y="36"/>
      <point x="138" y="95"/>
      <point x="84" y="36" type="curve"/>
      <point x="137" y="-9"/>
      <point x="185" y="-27"/>
      <point x="251" y="-27" type="curve"/>
      <point x="353" y="-27"/>
      <point x="425" y="23"/>
      <point x="425" y="122" type="curve"/>
      <point x="424" y="207"/>
      <point x="368" y="251"/>
      <point x="285" y="279" type="curve"/>
      <point x="224" y="301"/>
      <point x="161" y="313"/>
      <point x="161" y="368" type="curve"/>
      <point x="161" y="419"/>
      <point x="191" y="446"/>
      <point x="241" y="463" type="curve"/>
      <point x="189" y="523"/>
      <point x="241" y="463"/>
    </contour>
    <contour>
      <point x="165" y="36" type="curve"/>
      <point x="165" y="156"/>
      <point x="165" y="35"/>
      <point x="165" y="155" type="curve"/>
      <point x="84" y="155"/>
      <point x="165" y="155"/>
      <point x="84" y="155" type="curve"/>
      <point x="84" y="35"/>
      <point x="84" y="156"/>
      <point x="84" y="36" type="curve"/>
      <point x="165" y="36"/>
      <point x="84" y="36"/>
    </contour>
    <contour>
      <point x="403" y="583" type="curve"/>
      <point x="403" y="703"/>
      <point x="403" y="583"/>
      <point x="403" y="703" type="curve"/>
      <point x="321" y="703"/>
      <point x="403" y="703"/>
      <point x="321" y="703" type="curve"/>
      <point x="321" y="583"/>
      <point x="321" y="703"/>
      <point x="321" y="583" type="curve"/>
      <point x="403" y="583"/>
      <point x="321" y="583"/>
    </contour>
  </outline>
</glyph>
<glyph name="dieresis" format="1">
  <advance width="383"/>
  <unicode hex="00A8"/>
  <outline>
    <contour>
      <point x="178" y="604" type="move" name="_top"/>
    </contour>
    <contour>
      <point x="149" y="652" type="curve"/>
      <point x="149" y="688"/>
      <point x="125" y="705"/>
      <point x="91" y="705" type="curve"/>
      <point x="57" y="705"/>
      <point x="35" y="686"/>
      <point x="35" y="652" type="curve"/>
      <point x="147" y="652"/>
      <point x="37" y="652"/>
      <point x="149" y="652" type="curve"/>
      <point x="149" y="616"/>
      <point x="126" y="600"/>
      <point x="91" y="600" type="curve"/>
      <point x="57" y="600"/>
      <point x="35" y="617"/>
      <point x="35" y="652" type="curve"/>
      <point x="147" y="652"/>
      <point x="37" y="652"/>
    </contour>
    <contour>
      <point x="322" y="652" type="curve"/>
      <point x="322" y="688"/>
      <point x="298" y="705"/>
      <point x="264" y="705" type="curve"/>
      <point x="230" y="705"/>
      <point x="207" y="686"/>
      <point x="207" y="652" type="curve"/>
      <point x="320" y="652"/>
      <point x="209" y="652"/>
      <point x="322" y="652" type="curve"/>
      <point x="322" y="616"/>
      <point x="298" y="600"/>
      <point x="264" y="600" type="curve"/>
      <point x="230" y="600"/>
      <point x="207" y="617"/>
      <point x="207" y="652" type="curve"/>
      <point x="320" y="652"/>
      <point x="209" y="652"/>
    </contour>
  </outline>
</glyph>
<glyph name="copyright" format="1">
  <advance width="736"/>
  <unicode hex="00A9"/>
  <outline>
    <contour>
      <point x="142" y="322" type="curve"/>
      <point x="142" y="472"/>
      <point x="227" y="580"/>
      <point x="372" y="580" type="curve"/>
      <point x="513" y="580"/>
      <point x="596" y="470"/>
      <point x="596" y="321" type="curve"/>
      <point x="596" y="176"/>
      <point x="516" y="68"/>
      <point x="378" y="68" type="curve"/>
      <point x="234" y="68"/>
      <point x="142" y="172"/>
      <point x="142" y="322" type="curve"/>
      <point x="56" y="322"/>
      <point x="143" y="322"/>
      <point x="58" y="322" type="curve"/>
      <point x="58" y="132"/>
      <point x="184" y="2"/>
      <point x="375" y="2" type="curve"/>
      <point x="560" y="2"/>
      <point x="679" y="134"/>
      <point x="679" y="324" type="curve"/>
      <point x="679" y="513"/>
      <point x="558" y="645"/>
      <point x="372" y="645" type="curve"/>
      <point x="182" y="645"/>
      <point x="58" y="514"/>
      <point x="58" y="322" type="curve"/>
      <point x="143" y="322"/>
      <point x="56" y="322"/>
    </contour>
    <contour>
      <point x="428" y="428" type="curve"/>
      <point x="428" y="414"/>
      <point x="428" y="392"/>
      <point x="428" y="375" type="curve"/>
      <point x="505" y="375"/>
      <point x="428" y="375"/>
      <point x="505" y="375" type="curve"/>
      <point x="505" y="404"/>
      <point x="505" y="439"/>
      <point x="505" y="464" type="curve"/>
      <point x="428" y="430"/>
      <point x="505" y="463"/>
    </contour>
    <contour>
      <point x="505" y="464" type="curve"/>
      <point x="468" y="495"/>
      <point x="428" y="508"/>
      <point x="378" y="508" type="curve"/>
      <point x="266" y="508"/>
      <point x="204" y="435"/>
      <point x="204" y="322" type="curve"/>
      <point x="204" y="213"/>
      <point x="258" y="141"/>
      <point x="363" y="141" type="curve"/>
      <point x="422" y="141"/>
      <point x="463" y="152"/>
      <point x="507" y="198" type="curve"/>
      <point x="458" y="240"/>
      <point x="507" y="198"/>
      <point x="458" y="240" type="curve"/>
      <point x="427" y="217"/>
      <point x="404" y="206"/>
      <point x="368" y="206" type="curve"/>
      <point x="306" y="206"/>
      <point x="284" y="257"/>
      <point x="284" y="325" type="curve"/>
      <point x="284" y="393"/>
      <point x="310" y="442"/>
      <point x="374" y="442" type="curve"/>
      <point x="397" y="442"/>
      <point x="413" y="437"/>
      <point x="428" y="428" type="curve"/>
      <point x="505" y="463"/>
      <point x="428" y="430"/>
    </contour>
  </outline>
</glyph>
<glyph name="ordfeminine" format="1">
  <advance width="431"/>
  <unicode hex="00AA"/>
  <outline>
    <contour>
      <point x="75" y="722" type="curve"/>
      <point x="75" y="667"/>
      <point x="75" y="708"/>
      <point x="75" y="653" type="curve"/>
      <point x="127" y="653"/>
      <point x="80" y="653"/>
      <point x="131" y="653" type="curve"/>
      <point x="131" y="708"/>
      <point x="131" y="667"/>
      <point x="131" y="722" type="curve"/>
      <point x="80" y="722"/>
      <point x="127" y="722"/>
    </contour>
    <contour>
      <point x="331" y="426" type="curve"/>
      <point x="331" y="511"/>
      <point x="331" y="585"/>
      <point x="331" y="670" type="curve"/>
      <point x="331" y="743"/>
      <point x="276" y="772"/>
      <point x="202" y="772" type="curve"/>
      <point x="146" y="772"/>
      <point x="106" y="751"/>
      <point x="75" y="722" type="curve"/>
      <point x="101" y="680"/>
      <point x="79" y="718"/>
      <point x="104" y="675" type="curve"/>
      <point x="124" y="695"/>
      <point x="152" y="715"/>
      <point x="191" y="715" type="curve"/>
      <point x="231" y="715"/>
      <point x="259" y="698"/>
      <point x="259" y="659" type="curve"/>
      <point x="259" y="578"/>
      <point x="259" y="507"/>
      <point x="259" y="426" type="curve"/>
      <point x="325" y="426"/>
      <point x="265" y="426"/>
    </contour>
    <contour>
      <point x="296" y="426" type="curve"/>
      <point x="322" y="426"/>
      <point x="345" y="426"/>
      <point x="371" y="426" type="curve"/>
      <point x="371" y="476"/>
      <point x="371" y="431"/>
      <point x="371" y="481" type="curve"/>
      <point x="308" y="481"/>
      <point x="359" y="481"/>
      <point x="296" y="481" type="curve"/>
      <point x="296" y="431"/>
      <point x="296" y="476"/>
    </contour>
    <contour>
      <point x="293" y="645" type="curve"/>
      <point x="249" y="639"/>
      <point x="222" y="637"/>
      <point x="178" y="631" type="curve"/>
      <point x="108" y="621"/>
      <point x="57" y="595"/>
      <point x="57" y="527" type="curve"/>
      <point x="57" y="459"/>
      <point x="100" y="423"/>
      <point x="170" y="423" type="curve"/>
      <point x="239" y="423"/>
      <point x="271" y="469"/>
      <point x="312" y="520" type="curve"/>
      <point x="280" y="547"/>
      <point x="308" y="522"/>
      <point x="277" y="549" type="curve"/>
      <point x="252" y="510"/>
      <point x="230" y="478"/>
      <point x="185" y="478" type="curve"/>
      <point x="148" y="478"/>
      <point x="127" y="496"/>
      <point x="127" y="530" type="curve"/>
      <point x="127" y="560"/>
      <point x="149" y="577"/>
      <point x="178" y="582" type="curve"/>
      <point x="224" y="588"/>
      <point x="250" y="591"/>
      <point x="296" y="598" type="curve"/>
      <point x="293" y="640"/>
      <point x="295" y="602"/>
    </contour>
  </outline>
</glyph>
<glyph name="logicalnot" format="1">
  <advance width="624"/>
  <unicode hex="00AC"/>
  <outline>
    <contour>
      <point x="86" y="269" type="curve"/>
      <point x="549" y="269" type="line"/>
      <point x="549" y="356"/>
      <point x="549" y="269"/>
      <point x="549" y="356" type="curve"/>
      <point x="86" y="356" type="line"/>
      <point x="86" y="269"/>
      <point x="86" y="356"/>
    </contour>
    <contour>
      <point x="549" y="143" type="curve"/>
      <point x="549" y="356" type="line"/>
      <point x="445" y="356"/>
      <point x="551" y="356"/>
      <point x="447" y="356" type="curve"/>
      <point x="447" y="143" type="line"/>
      <point x="551" y="143"/>
      <point x="445" y="143"/>
    </contour>
  </outline>
</glyph>
<glyph name="macron" format="1">
  <advance width="294"/>
  <unicode hex="00AF"/>
  <outline>
    <contour>
      <point x="131" y="598" type="move" name="_top"/>
    </contour>
    <contour>
      <point x="230" y="678" type="curve"/>
      <point x="163" y="678"/>
      <point x="96" y="678"/>
      <point x="30" y="678" type="curve"/>
      <point x="30" y="598"/>
      <point x="30" y="678"/>
      <point x="30" y="598" type="curve"/>
      <point x="96" y="598"/>
      <point x="163" y="598"/>
      <point x="230" y="598" type="curve"/>
      <point x="230" y="678"/>
      <point x="230" y="598"/>
    </contour>
  </outline>
</glyph>
<glyph name="degree" format="1">
  <advance width="468"/>
  <unicode hex="00B0"/>
  <outline>
    <contour>
      <point x="408" y="532" type="curve"/>
      <point x="408" y="647"/>
      <point x="346" y="722"/>
      <point x="233" y="722" type="curve"/>
      <point x="122" y="722"/>
      <point x="60" y="647"/>
      <point x="60" y="533" type="curve"/>
      <point x="113" y="533"/>
      <point x="94" y="533"/>
      <point x="147" y="533" type="curve"/>
      <point x="147" y="598"/>
      <point x="171" y="647"/>
      <point x="232" y="647" type="curve"/>
      <point x="293" y="647"/>
      <point x="319" y="599"/>
      <point x="319" y="532" type="curve"/>
      <point x="319" y="464"/>
      <point x="296" y="413"/>
      <point x="234" y="413" type="curve"/>
      <point x="171" y="413"/>
      <point x="147" y="465"/>
      <point x="147" y="533" type="curve"/>
      <point x="94" y="533"/>
      <point x="113" y="533"/>
      <point x="60" y="533" type="curve"/>
      <point x="60" y="416"/>
      <point x="120" y="338"/>
      <point x="233" y="338" type="curve"/>
      <point x="347" y="338"/>
      <point x="408" y="416"/>
    </contour>
  </outline>
</glyph>
<glyph name="plusminus" format="1">
  <advance width="668"/>
  <unicode hex="00B1"/>
  <outline>
    <contour>
      <point x="63" y="36" type="line"/>
      <point x="606" y="36" type="line"/>
      <point x="606" y="124" type="line"/>
      <point x="63" y="124" type="line"/>
    </contour>
    <contour>
      <point x="63" y="269" type="curve"/>
      <point x="606" y="269" type="line"/>
      <point x="606" y="356"/>
      <point x="606" y="269"/>
      <point x="606" y="356" type="curve"/>
      <point x="63" y="356" type="line"/>
      <point x="63" y="269"/>
      <point x="63" y="356"/>
    </contour>
    <contour>
      <point x="384" y="37" type="curve"/>
      <point x="384" y="583" type="line"/>
      <point x="280" y="583"/>
      <point x="390" y="583"/>
      <point x="286" y="583" type="curve"/>
      <point x="286" y="37" type="line"/>
      <point x="390" y="37"/>
      <point x="280" y="37"/>
    </contour>
  </outline>
</glyph>
<glyph name="twosuperior" format="1">
  <advance width="458"/>
  <unicode hex="00B2"/>
  <outline>
    <contour>
      <point x="237" y="762" type="move" name="_top"/>
    </contour>
    <contour>
      <point x="227" y="333" type="move" name="_bottom"/>
    </contour>
    <contour>
      <point x="396" y="333" type="curve"/>
      <point x="396" y="376"/>
      <point x="396" y="412"/>
      <point x="396" y="456" type="curve"/>
      <point x="319" y="456"/>
      <point x="405" y="456"/>
      <point x="328" y="456" type="curve"/>
      <point x="328" y="435"/>
      <point x="328" y="422"/>
      <point x="328" y="402" type="curve"/>
      <point x="407" y="336"/>
      <point x="316" y="399"/>
    </contour>
    <contour>
      <point x="68" y="333" type="curve"/>
      <point x="184" y="333"/>
      <point x="299" y="333"/>
      <point x="396" y="333" type="curve"/>
      <point x="316" y="399"/>
      <point x="407" y="336"/>
      <point x="328" y="402" type="curve"/>
      <point x="245" y="402"/>
      <point x="152" y="402"/>
      <point x="68" y="402" type="curve"/>
      <point x="68" y="333"/>
      <point x="68" y="402"/>
    </contour>
    <contour>
      <point x="150" y="634" type="curve"/>
      <point x="168" y="668"/>
      <point x="188" y="693"/>
      <point x="227" y="693" type="curve"/>
      <point x="267" y="693"/>
      <point x="290" y="667"/>
      <point x="290" y="627" type="curve"/>
      <point x="290" y="586"/>
      <point x="264" y="565"/>
      <point x="236" y="538" type="curve"/>
      <point x="180" y="492"/>
      <point x="123" y="447"/>
      <point x="68" y="402" type="curve"/>
      <point x="72" y="334"/>
      <point x="69" y="402"/>
      <point x="73" y="334" type="curve"/>
      <point x="148" y="386"/>
      <point x="229" y="433"/>
      <point x="289" y="483" type="curve"/>
      <point x="338" y="529"/>
      <point x="377" y="563"/>
      <point x="377" y="630" type="curve"/>
      <point x="377" y="714"/>
      <point x="319" y="762"/>
      <point x="233" y="762" type="curve"/>
      <point x="163" y="762"/>
      <point x="113" y="735"/>
      <point x="86" y="664" type="curve"/>
      <point x="150" y="634"/>
      <point x="86" y="664"/>
    </contour>
  </outline>
</glyph>
<glyph name="acute" format="1">
  <advance width="398"/>
  <unicode hex="00B4"/>
  <outline>
    <contour>
      <point x="92" y="591" type="move" name="_top"/>
    </contour>
    <contour>
      <point x="138" y="590" type="line"/>
      <point x="267" y="756" type="line"/>
      <point x="136" y="756" type="line"/>
      <point x="37" y="590" type="line"/>
    </contour>
  </outline>
</glyph>
<glyph name="periodcentered" format="1">
  <advance width="246"/>
  <unicode hex="00B7"/>
  <outline>
    <contour>
      <point x="180" y="440" type="curve"/>
      <point x="180" y="475"/>
      <point x="157" y="493"/>
      <point x="122" y="493" type="curve"/>
      <point x="88" y="493"/>
      <point x="65" y="474"/>
      <point x="65" y="440" type="curve"/>
      <point x="178" y="440"/>
      <point x="67" y="440"/>
      <point x="180" y="440" type="curve"/>
      <point x="180" y="404"/>
      <point x="157" y="388"/>
      <point x="121" y="388" type="curve"/>
      <point x="88" y="388"/>
      <point x="65" y="405"/>
      <point x="65" y="440" type="curve"/>
      <point x="178" y="440"/>
      <point x="67" y="440"/>
    </contour>
  </outline>
</glyph>
<glyph name="onesuperior" format="1">
  <advance width="364"/>
  <unicode hex="00B9"/>
  <outline>
    <contour>
      <point x="198" y="751" type="move" name="_top"/>
    </contour>
    <contour>
      <point x="206" y="333" type="move" name="_bottom"/>
    </contour>
    <contour>
      <point x="161" y="333" type="curve"/>
      <point x="208" y="333"/>
      <point x="257" y="333"/>
      <point x="304" y="333" type="curve"/>
      <point x="304" y="403"/>
      <point x="304" y="331"/>
      <point x="304" y="401" type="curve"/>
      <point x="287" y="401"/>
      <point x="268" y="401"/>
      <point x="250" y="401" type="curve"/>
      <point x="161" y="331"/>
      <point x="250" y="403"/>
    </contour>
    <contour>
      <point x="250" y="401" type="curve"/>
      <point x="202" y="401"/>
      <point x="152" y="401"/>
      <point x="104" y="401" type="curve"/>
      <point x="104" y="331"/>
      <point x="104" y="403"/>
      <point x="104" y="333" type="curve"/>
      <point x="122" y="333"/>
      <point x="142" y="333"/>
      <point x="161" y="333" type="curve"/>
      <point x="250" y="403"/>
      <point x="161" y="331"/>
    </contour>
    <contour>
      <point x="100" y="603" type="line"/>
      <point x="250" y="749" type="line"/>
      <point x="161" y="752" type="line"/>
      <point x="52" y="653" type="line"/>
    </contour>
    <contour>
      <point x="250" y="401" type="curve"/>
      <point x="250" y="752" type="line"/>
      <point x="161" y="752" type="line"/>
      <point x="161" y="333" type="line"/>
      <point x="250" y="403"/>
      <point x="161" y="331"/>
    </contour>
  </outline>
</glyph>
<glyph name="guillemotright" format="1">
  <advance width="541"/>
  <unicode hex="00BB"/>
  <outline>
    <contour>
      <point x="288" y="456" type="curve"/>
      <point x="321" y="433"/>
      <point x="452" y="354"/>
      <point x="485" y="332" type="curve"/>
      <point x="485" y="244"/>
      <point x="485" y="323"/>
      <point x="485" y="234" type="curve"/>
      <point x="452" y="257"/>
      <point x="321" y="341"/>
      <point x="288" y="363" type="curve"/>
      <point x="288" y="451"/>
      <point x="288" y="368"/>
    </contour>
    <contour>
      <point x="288" y="205" type="curve"/>
      <point x="320" y="227"/>
      <point x="452" y="309"/>
      <point x="485" y="332" type="curve"/>
      <point x="485" y="244"/>
      <point x="485" y="323"/>
      <point x="485" y="234" type="curve"/>
      <point x="452" y="212"/>
      <point x="320" y="135"/>
      <point x="288" y="113" type="curve"/>
      <point x="288" y="200"/>
      <point x="288" y="117"/>
    </contour>
    <contour>
      <point x="79" y="456" type="curve"/>
      <point x="112" y="433"/>
      <point x="243" y="354"/>
      <point x="276" y="332" type="curve"/>
      <point x="276" y="244"/>
      <point x="276" y="323"/>
      <point x="276" y="234" type="curve"/>
      <point x="243" y="257"/>
      <point x="112" y="341"/>
      <point x="79" y="363" type="curve"/>
      <point x="79" y="451"/>
      <point x="79" y="368"/>
    </contour>
    <contour>
      <point x="79" y="205" type="curve"/>
      <point x="111" y="227"/>
      <point x="243" y="309"/>
      <point x="276" y="332" type="curve"/>
      <point x="276" y="244"/>
      <point x="276" y="323"/>
      <point x="276" y="234" type="curve"/>
      <point x="243" y="212"/>
      <point x="111" y="135"/>
      <point x="79" y="113" type="curve"/>
      <point x="79" y="200"/>
      <point x="79" y="117"/>
    </contour>
  </outline>
</glyph>
<glyph name="onequarter" format="1">
  <advance width="911"/>
  <unicode hex="00BC"/>
  <outline>
    <contour>
      <point x="318" y="-55" type="line"/>
      <point x="696" y="724" type="line"/>
      <point x="600" y="724" type="line"/>
      <point x="222" y="-55" type="line"/>
    </contour>
    <contour>
      <point x="145" y="306" type="curve"/>
      <point x="192" y="306"/>
      <point x="241" y="306"/>
      <point x="289" y="306" type="curve"/>
      <point x="289" y="375"/>
      <point x="289" y="304"/>
      <point x="289" y="373" type="curve"/>
      <point x="271" y="373"/>
      <point x="252" y="373"/>
      <point x="235" y="373" type="curve"/>
      <point x="145" y="304"/>
      <point x="235" y="375"/>
    </contour>
    <contour>
      <point x="235" y="373" type="curve"/>
      <point x="187" y="373"/>
      <point x="137" y="373"/>
      <point x="89" y="373" type="curve"/>
      <point x="89" y="304"/>
      <point x="89" y="375"/>
      <point x="89" y="306" type="curve"/>
      <point x="107" y="306"/>
      <point x="127" y="306"/>
      <point x="145" y="306" type="curve"/>
      <point x="235" y="375"/>
      <point x="145" y="304"/>
    </contour>
    <contour>
      <point x="84" y="575" type="line"/>
      <point x="235" y="722" type="line"/>
      <point x="145" y="725" type="line"/>
      <point x="37" y="626" type="line"/>
    </contour>
    <contour>
      <point x="235" y="373" type="curve"/>
      <point x="235" y="725" type="line"/>
      <point x="145" y="725" type="line"/>
      <point x="145" y="306" type="line"/>
      <point x="235" y="375"/>
      <point x="145" y="304"/>
    </contour>
    <contour>
      <point x="876" y="131" type="line"/>
      <point x="528" y="131" type="line"/>
      <point x="528" y="63" type="line"/>
      <point x="876" y="63" type="line"/>
    </contour>
    <contour>
      <point x="558" y="68" type="line"/>
      <point x="779" y="369" type="line"/>
      <point x="711" y="383" type="line"/>
      <point x="528" y="131" type="line"/>
    </contour>
    <contour>
      <point x="800" y="-53" type="line"/>
      <point x="800" y="383" type="line"/>
      <point x="711" y="383" type="line"/>
      <point x="711" y="-53" type="line"/>
    </contour>
    <contour>
      <point x="756" y="8" type="line"/>
      <point x="654" y="8" type="line"/>
      <point x="654" y="-54" type="line"/>
      <point x="756" y="-54" type="line"/>
    </contour>
    <contour>
      <point x="756" y="-54" type="line"/>
      <point x="856" y="-54" type="line"/>
      <point x="856" y="8" type="line"/>
      <point x="756" y="8" type="line"/>
    </contour>
  </outline>
</glyph>
<glyph name="onehalf" format="1">
  <advance width="975"/>
  <unicode hex="00BD"/>
  <outline>
    <contour>
      <point x="340" y="-55" type="line"/>
      <point x="718" y="724" type="line"/>
      <point x="622" y="724" type="line"/>
      <point x="244" y="-55" type="line"/>
    </contour>
    <contour>
      <point x="144" y="306" type="curve"/>
      <point x="191" y="306"/>
      <point x="240" y="306"/>
      <point x="288" y="306" type="curve"/>
      <point x="288" y="375"/>
      <point x="288" y="304"/>
      <point x="288" y="373" type="curve"/>
      <point x="270" y="373"/>
      <point x="251" y="373"/>
      <point x="234" y="373" type="curve"/>
      <point x="144" y="304"/>
      <point x="234" y="375"/>
    </contour>
    <contour>
      <point x="234" y="373" type="curve"/>
      <point x="186" y="373"/>
      <point x="136" y="373"/>
      <point x="88" y="373" type="curve"/>
      <point x="88" y="304"/>
      <point x="88" y="375"/>
      <point x="88" y="306" type="curve"/>
      <point x="106" y="306"/>
      <point x="125" y="306"/>
      <point x="144" y="306" type="curve"/>
      <point x="234" y="375"/>
      <point x="144" y="304"/>
    </contour>
    <contour>
      <point x="83" y="575" type="line"/>
      <point x="234" y="722" type="line"/>
      <point x="144" y="725" type="line"/>
      <point x="36" y="626" type="line"/>
    </contour>
    <contour>
      <point x="234" y="373" type="curve"/>
      <point x="234" y="725" type="line"/>
      <point x="144" y="725" type="line"/>
      <point x="144" y="306" type="line"/>
      <point x="234" y="375"/>
      <point x="144" y="304"/>
    </contour>
    <contour>
      <point x="938" y="-54" type="curve"/>
      <point x="938" y="-11"/>
      <point x="938" y="25"/>
      <point x="938" y="69" type="curve"/>
      <point x="861" y="69"/>
      <point x="947" y="69"/>
      <point x="871" y="69" type="curve"/>
      <point x="871" y="49"/>
      <point x="871" y="36"/>
      <point x="871" y="16" type="curve"/>
      <point x="950" y="-51"/>
      <point x="859" y="13"/>
    </contour>
    <contour>
      <point x="611" y="-54" type="curve"/>
      <point x="727" y="-54"/>
      <point x="841" y="-54"/>
      <point x="938" y="-54" type="curve"/>
      <point x="859" y="13"/>
      <point x="950" y="-51"/>
      <point x="871" y="16" type="curve"/>
      <point x="787" y="16"/>
      <point x="694" y="16"/>
      <point x="611" y="16" type="curve"/>
      <point x="611" y="-54"/>
      <point x="611" y="16"/>
    </contour>
    <contour>
      <point x="692" y="247" type="curve"/>
      <point x="711" y="281"/>
      <point x="730" y="306"/>
      <point x="769" y="306" type="curve"/>
      <point x="810" y="306"/>
      <point x="833" y="280"/>
      <point x="833" y="240" type="curve"/>
      <point x="833" y="200"/>
      <point x="807" y="179"/>
      <point x="778" y="151" type="curve"/>
      <point x="722" y="105"/>
      <point x="666" y="60"/>
      <point x="611" y="16" type="curve"/>
      <point x="615" y="-53"/>
      <point x="611" y="16"/>
      <point x="615" y="-53" type="curve"/>
      <point x="691" y="-1"/>
      <point x="771" y="47"/>
      <point x="831" y="96" type="curve"/>
      <point x="881" y="142"/>
      <point x="920" y="176"/>
      <point x="920" y="243" type="curve"/>
      <point x="920" y="328"/>
      <point x="862" y="376"/>
      <point x="775" y="376" type="curve"/>
      <point x="706" y="376"/>
      <point x="656" y="348"/>
      <point x="629" y="277" type="curve"/>
      <point x="692" y="247"/>
      <point x="629" y="277"/>
    </contour>
  </outline>
</glyph>
<glyph name="threequarters" format="1">
  <advance width="931"/>
  <unicode hex="00BE"/>
  <outline>
    <contour>
      <point x="344" y="-55" type="line"/>
      <point x="723" y="724" type="line"/>
      <point x="626" y="724" type="line"/>
      <point x="248" y="-55" type="line"/>
    </contour>
    <contour>
      <point x="93" y="620" type="curve"/>
      <point x="114" y="641"/>
      <point x="137" y="655"/>
      <point x="163" y="655" type="curve"/>
      <point x="202" y="655"/>
      <point x="227" y="636"/>
      <point x="227" y="599" type="curve"/>
      <point x="227" y="556"/>
      <point x="178" y="543"/>
      <point x="126" y="540" type="curve"/>
      <point x="126" y="481"/>
      <point x="126" y="540"/>
      <point x="126" y="481" type="curve"/>
      <point x="231" y="484"/>
      <point x="318" y="513"/>
      <point x="318" y="605" type="curve"/>
      <point x="318" y="686"/>
      <point x="258" y="724"/>
      <point x="172" y="724" type="curve"/>
      <point x="122" y="724"/>
      <point x="76" y="702"/>
      <point x="45" y="666" type="curve"/>
      <point x="93" y="620"/>
      <point x="45" y="666"/>
    </contour>
    <contour>
      <point x="42" y="326" type="curve"/>
      <point x="78" y="303"/>
      <point x="114" y="290"/>
      <point x="156" y="290" type="curve"/>
      <point x="259" y="288"/>
      <point x="333" y="325"/>
      <point x="331" y="419" type="curve"/>
      <point x="331" y="514"/>
      <point x="235" y="528"/>
      <point x="126" y="532" type="curve"/>
      <point x="126" y="480"/>
      <point x="126" y="532"/>
      <point x="126" y="480" type="curve"/>
      <point x="189" y="477"/>
      <point x="241" y="463"/>
      <point x="241" y="417" type="curve"/>
      <point x="241" y="376"/>
      <point x="209" y="356"/>
      <point x="165" y="357" type="curve"/>
      <point x="137" y="357"/>
      <point x="111" y="364"/>
      <point x="84" y="379" type="curve"/>
      <point x="42" y="326"/>
      <point x="84" y="379"/>
    </contour>
    <contour>
      <point x="899" y="131" type="line"/>
      <point x="551" y="131" type="line"/>
      <point x="551" y="63" type="line"/>
      <point x="899" y="63" type="line"/>
    </contour>
    <contour>
      <point x="581" y="68" type="line"/>
      <point x="801" y="369" type="line"/>
      <point x="734" y="383" type="line"/>
      <point x="551" y="131" type="line"/>
    </contour>
    <contour>
      <point x="823" y="-53" type="line"/>
      <point x="823" y="383" type="line"/>
      <point x="734" y="383" type="line"/>
      <point x="734" y="-53" type="line"/>
    </contour>
    <contour>
      <point x="778" y="8" type="line"/>
      <point x="677" y="8" type="line"/>
      <point x="677" y="-54" type="line"/>
      <point x="778" y="-54" type="line"/>
    </contour>
    <contour>
      <point x="778" y="-54" type="line"/>
      <point x="879" y="-54" type="line"/>
      <point x="879" y="8" type="line"/>
      <point x="778" y="8" type="line"/>
    </contour>
  </outline>
</glyph>
<glyph name="questiondown" format="1">
  <advance width="502"/>
  <unicode hex="00BF"/>
  <outline>
    <contour>
      <point x="321" y="360" type="curve"/>
      <point x="321" y="397"/>
      <point x="321" y="466"/>
      <point x="321" y="503" type="curve"/>
      <point x="224" y="503"/>
      <point x="321" y="503"/>
      <point x="224" y="503" type="curve"/>
      <point x="224" y="466"/>
      <point x="224" y="397"/>
      <point x="224" y="360" type="curve"/>
      <point x="321" y="360"/>
      <point x="224" y="360"/>
    </contour>
    <contour>
      <point x="404" y="132" type="line"/>
      <point x="372" y="96"/>
      <point x="333" y="71"/>
      <point x="279" y="71" type="curve"/>
      <point x="198" y="71"/>
      <point x="151" y="124"/>
      <point x="151" y="206" type="curve"/>
      <point x="151" y="299"/>
      <point x="212" y="360"/>
      <point x="310" y="360" type="curve"/>
      <point x="310" y="392"/>
      <point x="311" y="406"/>
      <point x="311" y="438" type="curve"/>
      <point x="155" y="438"/>
      <point x="52" y="350"/>
      <point x="52" y="206" type="curve"/>
      <point x="52" y="69"/>
      <point x="141" y="-14"/>
      <point x="273" y="-14" type="curve"/>
      <point x="354" y="-14"/>
      <point x="413" y="16"/>
      <point x="459" y="68" type="curve"/>
    </contour>
    <contour>
      <point x="214" y="687" type="curve"/>
      <point x="214" y="652"/>
      <point x="239" y="634"/>
      <point x="272" y="634" type="curve"/>
      <point x="307" y="634"/>
      <point x="329" y="654"/>
      <point x="329" y="687" type="curve"/>
      <point x="214" y="687"/>
      <point x="329" y="687"/>
      <point x="214" y="687" type="curve"/>
      <point x="214" y="724"/>
      <point x="239" y="740"/>
      <point x="272" y="740" type="curve"/>
      <point x="307" y="740"/>
      <point x="329" y="721"/>
      <point x="329" y="687" type="curve"/>
      <point x="214" y="687"/>
      <point x="329" y="687"/>
    </contour>
  </outline>
</glyph>
<glyph name="Aacute" format="1">
  <advance width="743"/>
  <unicode hex="00C1"/>
  <outline>
    <contour>
      <point x="117" y="80" type="curve"/>
      <point x="-21" y="80"/>
      <point x="128" y="80"/>
      <point x="-10" y="80" type="curve"/>
      <point x="-10" y="0"/>
      <point x="-10" y="80"/>
      <point x="-10" y="0" type="curve"/>
      <point x="35" y="0"/>
      <point x="72" y="0"/>
      <point x="117" y="0" type="curve"/>
      <point x="117" y="80"/>
      <point x="117" y="0"/>
    </contour>
    <contour>
      <point x="117" y="0" type="curve"/>
      <point x="173" y="0"/>
      <point x="112" y="0"/>
      <point x="278" y="0" type="curve"/>
      <point x="278" y="80"/>
      <point x="278" y="0"/>
      <point x="278" y="80" type="curve"/>
      <point x="112" y="80"/>
      <point x="283" y="80"/>
      <point x="117" y="80" type="curve"/>
      <point x="117" y="0"/>
      <point x="117" y="80"/>
    </contour>
    <contour>
      <point x="602" y="0" type="curve"/>
      <point x="648" y="0"/>
      <point x="684" y="0"/>
      <point x="730" y="0" type="curve"/>
      <point x="730" y="80"/>
      <point x="730" y="0"/>
      <point x="730" y="80" type="curve"/>
      <point x="593" y="80"/>
      <point x="740" y="80"/>
      <point x="602" y="80" type="curve"/>
      <point x="602" y="0"/>
      <point x="602" y="80"/>
    </contour>
    <contour>
      <point x="602" y="80" type="curve"/>
      <point x="436" y="80"/>
      <point x="608" y="80"/>
      <point x="442" y="80" type="curve"/>
      <point x="442" y="0"/>
      <point x="442" y="80"/>
      <point x="442" y="0" type="curve"/>
      <point x="497" y="0"/>
      <point x="547" y="0"/>
      <point x="602" y="0" type="curve"/>
      <point x="602" y="80"/>
      <point x="602" y="0"/>
    </contour>
    <contour>
      <point x="509" y="292" type="curve"/>
      <point x="416" y="292"/>
      <point x="322" y="292"/>
      <point x="228" y="292" type="curve"/>
      <point x="186" y="208"/>
      <point x="228" y="292"/>
      <point x="186" y="208" type="curve"/>
      <point x="304" y="208"/>
      <point x="423" y="208"/>
      <point x="542" y="208" type="curve"/>
      <point x="509" y="292"/>
      <point x="542" y="208"/>
    </contour>
    <contour>
      <point x="667" y="0" type="curve"/>
      <point x="586" y="241"/>
      <point x="502" y="481"/>
      <point x="422" y="722" type="curve"/>
      <point x="328" y="722"/>
      <point x="422" y="722"/>
      <point x="328" y="722" type="curve"/>
      <point x="406" y="482"/>
      <point x="480" y="240"/>
      <point x="558" y="0" type="curve"/>
      <point x="667" y="0"/>
      <point x="558" y="0"/>
    </contour>
    <contour>
      <point x="163" y="0" type="curve"/>
      <point x="251" y="240"/>
      <point x="332" y="482"/>
      <point x="420" y="722" type="curve"/>
      <point x="326" y="722"/>
      <point x="420" y="722"/>
      <point x="326" y="722" type="curve"/>
      <point x="237" y="480"/>
      <point x="139" y="242"/>
      <point x="50" y="0" type="curve"/>
      <point x="163" y="0"/>
      <point x="50" y="0"/>
    </contour>
    <contour>
      <point x="417" y="795" type="line"/>
      <point x="547" y="961" type="line"/>
      <point x="417" y="961" type="line"/>
      <point x="317" y="795" type="line"/>
    </contour>
  </outline>
</glyph>
<glyph name="Atilde" format="1">
  <advance width="743"/>
  <unicode hex="00C3"/>
  <outline>
    <contour>
      <point x="117" y="80" type="curve"/>
      <point x="-21" y="80"/>
      <point x="128" y="80"/>
      <point x="-10" y="80" type="curve"/>
      <point x="-10" y="0"/>
      <point x="-10" y="80"/>
      <point x="-10" y="0" type="curve"/>
      <point x="35" y="0"/>
      <point x="72" y="0"/>
      <point x="117" y="0" type="curve"/>
      <point x="117" y="80"/>
      <point x="117" y="0"/>
    </contour>
    <contour>
      <point x="117" y="0" type="curve"/>
      <point x="173" y="0"/>
      <point x="112" y="0"/>
      <point x="278" y="0" type="curve"/>
      <point x="278" y="80"/>
      <point x="278" y="0"/>
      <point x="278" y="80" type="curve"/>
      <point x="112" y="80"/>
      <point x="283" y="80"/>
      <point x="117" y="80" type="curve"/>
      <point x="117" y="0"/>
      <point x="117" y="80"/>
    </contour>
    <contour>
      <point x="602" y="0" type="curve"/>
      <point x="648" y="0"/>
      <point x="684" y="0"/>
      <point x="730" y="0" type="curve"/>
      <point x="730" y="80"/>
      <point x="730" y="0"/>
      <point x="730" y="80" type="curve"/>
      <point x="593" y="80"/>
      <point x="740" y="80"/>
      <point x="602" y="80" type="curve"/>
      <point x="602" y="0"/>
      <point x="602" y="80"/>
    </contour>
    <contour>
      <point x="602" y="80" type="curve"/>
      <point x="436" y="80"/>
      <point x="608" y="80"/>
      <point x="442" y="80" type="curve"/>
      <point x="442" y="0"/>
      <point x="442" y="80"/>
      <point x="442" y="0" type="curve"/>
      <point x="497" y="0"/>
      <point x="547" y="0"/>
      <point x="602" y="0" type="curve"/>
      <point x="602" y="80"/>
      <point x="602" y="0"/>
    </contour>
    <contour>
      <point x="509" y="292" type="curve"/>
      <point x="416" y="292"/>
      <point x="322" y="292"/>
      <point x="228" y="292" type="curve"/>
      <point x="186" y="208"/>
      <point x="228" y="292"/>
      <point x="186" y="208" type="curve"/>
      <point x="304" y="208"/>
      <point x="423" y="208"/>
      <point x="542" y="208" type="curve"/>
      <point x="509" y="292"/>
      <point x="542" y="208"/>
    </contour>
    <contour>
      <point x="667" y="0" type="curve"/>
      <point x="586" y="241"/>
      <point x="502" y="481"/>
      <point x="422" y="722" type="curve"/>
      <point x="328" y="722"/>
      <point x="422" y="722"/>
      <point x="328" y="722" type="curve"/>
      <point x="406" y="482"/>
      <point x="480" y="240"/>
      <point x="558" y="0" type="curve"/>
      <point x="667" y="0"/>
      <point x="558" y="0"/>
    </contour>
    <contour>
      <point x="163" y="0" type="curve"/>
      <point x="251" y="240"/>
      <point x="332" y="482"/>
      <point x="420" y="722" type="curve"/>
      <point x="326" y="722"/>
      <point x="420" y="722"/>
      <point x="326" y="722" type="curve"/>
      <point x="237" y="480"/>
      <point x="139" y="242"/>
      <point x="50" y="0" type="curve"/>
      <point x="163" y="0"/>
      <point x="50" y="0"/>
    </contour>
    <contour>
      <point x="499" y="962" type="curve"/>
      <point x="484" y="920"/>
      <point x="471" y="893"/>
      <point x="445" y="893" type="curve"/>
      <point x="415" y="893"/>
      <point x="399" y="905"/>
      <point x="377" y="926" type="curve"/>
      <point x="349" y="952"/>
      <point x="329" y="967"/>
      <point x="292" y="967" type="curve"/>
      <point x="222" y="967"/>
      <point x="189" y="907"/>
      <point x="168" y="837" type="curve"/>
      <point x="246" y="797"/>
      <point x="168" y="838"/>
      <point x="246" y="797" type="curve"/>
      <point x="261" y="843"/>
      <point x="277" y="868"/>
      <point x="308" y="868" type="curve"/>
      <point x="335" y="868"/>
      <point x="347" y="855"/>
      <point x="366" y="837" type="curve"/>
      <point x="398" y="807"/>
      <point x="420" y="793"/>
      <point x="461" y="793" type="curve"/>
      <point x="532" y="793"/>
      <point x="558" y="852"/>
      <point x="581" y="923" type="curve"/>
      <point x="499" y="961"/>
      <point x="581" y="922"/>
    </contour>
  </outline>
</glyph>
<glyph name="Adieresis" format="1">
  <advance width="743"/>
  <unicode hex="00C4"/>
  <outline>
    <contour>
      <point x="117" y="80" type="curve"/>
      <point x="-21" y="80"/>
      <point x="128" y="80"/>
      <point x="-10" y="80" type="curve"/>
      <point x="-10" y="0"/>
      <point x="-10" y="80"/>
      <point x="-10" y="0" type="curve"/>
      <point x="35" y="0"/>
      <point x="72" y="0"/>
      <point x="117" y="0" type="curve"/>
      <point x="117" y="80"/>
      <point x="117" y="0"/>
    </contour>
    <contour>
      <point x="117" y="0" type="curve"/>
      <point x="173" y="0"/>
      <point x="112" y="0"/>
      <point x="278" y="0" type="curve"/>
      <point x="278" y="80"/>
      <point x="278" y="0"/>
      <point x="278" y="80" type="curve"/>
      <point x="112" y="80"/>
      <point x="283" y="80"/>
      <point x="117" y="80" type="curve"/>
      <point x="117" y="0"/>
      <point x="117" y="80"/>
    </contour>
    <contour>
      <point x="602" y="0" type="curve"/>
      <point x="648" y="0"/>
      <point x="684" y="0"/>
      <point x="730" y="0" type="curve"/>
      <point x="730" y="80"/>
      <point x="730" y="0"/>
      <point x="730" y="80" type="curve"/>
      <point x="593" y="80"/>
      <point x="740" y="80"/>
      <point x="602" y="80" type="curve"/>
      <point x="602" y="0"/>
      <point x="602" y="80"/>
    </contour>
    <contour>
      <point x="602" y="80" type="curve"/>
      <point x="436" y="80"/>
      <point x="608" y="80"/>
      <point x="442" y="80" type="curve"/>
      <point x="442" y="0"/>
      <point x="442" y="80"/>
      <point x="442" y="0" type="curve"/>
      <point x="497" y="0"/>
      <point x="547" y="0"/>
      <point x="602" y="0" type="curve"/>
      <point x="602" y="80"/>
      <point x="602" y="0"/>
    </contour>
    <contour>
      <point x="509" y="292" type="curve"/>
      <point x="416" y="292"/>
      <point x="322" y="292"/>
      <point x="228" y="292" type="curve"/>
      <point x="186" y="208"/>
      <point x="228" y="292"/>
      <point x="186" y="208" type="curve"/>
      <point x="304" y="208"/>
      <point x="423" y="208"/>
      <point x="542" y="208" type="curve"/>
      <point x="509" y="292"/>
      <point x="542" y="208"/>
    </contour>
    <contour>
      <point x="667" y="0" type="curve"/>
      <point x="586" y="241"/>
      <point x="502" y="481"/>
      <point x="422" y="722" type="curve"/>
      <point x="328" y="722"/>
      <point x="422" y="722"/>
      <point x="328" y="722" type="curve"/>
      <point x="406" y="482"/>
      <point x="480" y="240"/>
      <point x="558" y="0" type="curve"/>
      <point x="667" y="0"/>
      <point x="558" y="0"/>
    </contour>
    <contour>
      <point x="163" y="0" type="curve"/>
      <point x="251" y="240"/>
      <point x="332" y="482"/>
      <point x="420" y="722" type="curve"/>
      <point x="326" y="722"/>
      <point x="420" y="722"/>
      <point x="326" y="722" type="curve"/>
      <point x="237" y="480"/>
      <point x="139" y="242"/>
      <point x="50" y="0" type="curve"/>
      <point x="163" y="0"/>
      <point x="50" y="0"/>
    </contour>
    <contour>
      <point x="343" y="845" type="curve"/>
      <point x="343" y="880"/>
      <point x="318" y="898"/>
      <point x="284" y="898" type="curve"/>
      <point x="251" y="898"/>
      <point x="228" y="878"/>
      <point x="228" y="845" type="curve"/>
      <point x="341" y="845"/>
      <point x="230" y="845"/>
      <point x="343" y="845" type="curve"/>
      <point x="343" y="808"/>
      <point x="318" y="792"/>
      <point x="284" y="792" type="curve"/>
      <point x="250" y="792"/>
      <point x="228" y="810"/>
      <point x="228" y="845" type="curve"/>
      <point x="341" y="845"/>
      <point x="230" y="845"/>
    </contour>
    <contour>
      <point x="516" y="845" type="curve"/>
      <point x="516" y="880"/>
      <point x="491" y="898"/>
      <point x="457" y="898" type="curve"/>
      <point x="423" y="898"/>
      <point x="401" y="878"/>
      <point x="401" y="845" type="curve"/>
      <point x="514" y="845"/>
      <point x="403" y="845"/>
      <point x="516" y="845" type="curve"/>
      <point x="516" y="808"/>
      <point x="492" y="792"/>
      <point x="457" y="792" type="curve"/>
      <point x="423" y="792"/>
      <point x="401" y="810"/>
      <point x="401" y="845" type="curve"/>
      <point x="514" y="845"/>
      <point x="403" y="845"/>
    </contour>
  </outline>
</glyph>
<glyph name="Edieresis" format="1">
  <advance width="619"/>
  <unicode hex="00CB"/>
  <outline>
    <contour>
      <point x="576" y="40" type="curve"/>
      <point x="576" y="160"/>
      <point x="576" y="37"/>
      <point x="576" y="157" type="curve"/>
      <point x="494" y="157"/>
      <point x="576" y="157"/>
      <point x="494" y="157" type="curve"/>
      <point x="494" y="37"/>
      <point x="494" y="160"/>
      <point x="494" y="40" type="curve"/>
      <point x="576" y="40"/>
      <point x="494" y="40"/>
    </contour>
    <contour>
      <point x="464" y="682" type="curve"/>
      <point x="464" y="562"/>
      <point x="464" y="685"/>
      <point x="464" y="565" type="curve"/>
      <point x="546" y="565"/>
      <point x="464" y="565"/>
      <point x="546" y="565" type="curve"/>
      <point x="546" y="685"/>
      <point x="546" y="562"/>
      <point x="546" y="682" type="curve"/>
      <point x="464" y="682"/>
      <point x="546" y="682"/>
    </contour>
    <contour>
      <point x="196" y="80" type="curve"/>
      <point x="52" y="80"/>
      <point x="201" y="80"/>
      <point x="58" y="80" type="curve"/>
      <point x="58" y="0"/>
      <point x="58" y="80"/>
      <point x="58" y="0" type="curve"/>
      <point x="105" y="0"/>
      <point x="148" y="0"/>
      <point x="196" y="0" type="curve"/>
      <point x="196" y="80"/>
      <point x="196" y="0"/>
    </contour>
    <contour>
      <point x="196" y="722" type="curve"/>
      <point x="148" y="722"/>
      <point x="105" y="722"/>
      <point x="58" y="722" type="curve"/>
      <point x="58" y="642"/>
      <point x="58" y="722"/>
      <point x="58" y="642" type="curve"/>
      <point x="201" y="642"/>
      <point x="52" y="642"/>
      <point x="196" y="642" type="curve"/>
      <point x="196" y="722"/>
      <point x="196" y="642"/>
    </contour>
    <contour>
      <point x="199" y="333" type="curve"/>
      <point x="296" y="333"/>
      <point x="393" y="333"/>
      <point x="490" y="333" type="curve"/>
      <point x="490" y="413"/>
      <point x="490" y="333"/>
      <point x="490" y="413" type="curve"/>
      <point x="393" y="413"/>
      <point x="296" y="413"/>
      <point x="199" y="413" type="curve"/>
      <point x="199" y="333"/>
      <point x="199" y="413"/>
    </contour>
    <contour>
      <point x="185" y="642" type="curve"/>
      <point x="306" y="642"/>
      <point x="425" y="642"/>
      <point x="546" y="642" type="curve"/>
      <point x="546" y="722"/>
      <point x="546" y="642"/>
      <point x="546" y="722" type="curve"/>
      <point x="425" y="722"/>
      <point x="306" y="722"/>
      <point x="185" y="722" type="curve"/>
      <point x="185" y="642"/>
      <point x="185" y="722"/>
    </contour>
    <contour>
      <point x="247" y="0" type="curve"/>
      <point x="247" y="722" type="line"/>
      <point x="143" y="722"/>
      <point x="247" y="722"/>
      <point x="143" y="722" type="curve"/>
      <point x="143" y="481"/>
      <point x="143" y="241"/>
      <point x="143" y="0" type="curve"/>
      <point x="247" y="0"/>
      <point x="143" y="0"/>
    </contour>
    <contour>
      <point x="185" y="0" type="curve"/>
      <point x="315" y="0"/>
      <point x="445" y="0"/>
      <point x="576" y="0" type="curve"/>
      <point x="576" y="80"/>
      <point x="576" y="0"/>
      <point x="576" y="80" type="curve"/>
      <point x="445" y="80"/>
      <point x="315" y="80"/>
      <point x="185" y="80" type="curve"/>
      <point x="185" y="0"/>
      <point x="185" y="80"/>
    </contour>
    <contour>
      <point x="294" y="845" type="curve"/>
      <point x="294" y="880"/>
      <point x="269" y="898"/>
      <point x="235" y="898" type="curve"/>
      <point x="201" y="898"/>
      <point x="179" y="878"/>
      <point x="179" y="845" type="curve"/>
      <point x="292" y="845"/>
      <point x="181" y="845"/>
      <point x="294" y="845" type="curve"/>
      <point x="294" y="808"/>
      <point x="270" y="792"/>
      <point x="235" y="792" type="curve"/>
      <point x="201" y="792"/>
      <point x="179" y="810"/>
      <point x="179" y="845" type="curve"/>
      <point x="292" y="845"/>
      <point x="181" y="845"/>
    </contour>
    <contour>
      <point x="467" y="845" type="curve"/>
      <point x="467" y="880"/>
      <point x="442" y="898"/>
      <point x="408" y="898" type="curve"/>
      <point x="374" y="898"/>
      <point x="352" y="878"/>
      <point x="352" y="845" type="curve"/>
      <point x="465" y="845"/>
      <point x="355" y="845"/>
      <point x="467" y="845" type="curve"/>
      <point x="467" y="808"/>
      <point x="443" y="792"/>
      <point x="408" y="792" type="curve"/>
      <point x="374" y="792"/>
      <point x="352" y="810"/>
      <point x="352" y="845" type="curve"/>
      <point x="465" y="845"/>
      <point x="355" y="845"/>
    </contour>
  </outline>
</glyph>
<glyph name="Igrave" format="1">
  <advance width="360"/>
  <unicode hex="00CC"/>
  <outline>
    <contour>
      <point x="181" y="722" type="curve"/>
      <point x="132" y="722"/>
      <point x="93" y="722"/>
      <point x="43" y="722" type="curve"/>
      <point x="43" y="642"/>
      <point x="43" y="722"/>
      <point x="43" y="642" type="curve"/>
      <point x="192" y="642"/>
      <point x="33" y="642"/>
      <point x="181" y="642" type="curve"/>
      <point x="181" y="722"/>
      <point x="181" y="642"/>
    </contour>
    <contour>
      <point x="181" y="642" type="curve"/>
      <point x="330" y="642"/>
      <point x="171" y="642"/>
      <point x="320" y="642" type="curve"/>
      <point x="320" y="722"/>
      <point x="320" y="642"/>
      <point x="320" y="722" type="curve"/>
      <point x="270" y="722"/>
      <point x="231" y="722"/>
      <point x="181" y="722" type="curve"/>
      <point x="181" y="642"/>
      <point x="181" y="722"/>
    </contour>
    <contour>
      <point x="181" y="0" type="curve"/>
      <point x="231" y="0"/>
      <point x="270" y="0"/>
      <point x="320" y="0" type="curve"/>
      <point x="320" y="80"/>
      <point x="320" y="0"/>
      <point x="320" y="80" type="curve"/>
      <point x="171" y="80"/>
      <point x="330" y="80"/>
      <point x="181" y="80" type="curve"/>
      <point x="181" y="0"/>
      <point x="181" y="80"/>
    </contour>
    <contour>
      <point x="181" y="80" type="curve"/>
      <point x="33" y="80"/>
      <point x="192" y="80"/>
      <point x="43" y="80" type="curve"/>
      <point x="43" y="0"/>
      <point x="43" y="80"/>
      <point x="43" y="0" type="curve"/>
      <point x="93" y="0"/>
      <point x="132" y="0"/>
      <point x="181" y="0" type="curve"/>
      <point x="181" y="80"/>
      <point x="181" y="0"/>
    </contour>
    <contour>
      <point x="232" y="0" type="curve"/>
      <point x="232" y="241"/>
      <point x="232" y="481"/>
      <point x="232" y="722" type="curve"/>
      <point x="129" y="722"/>
      <point x="232" y="722"/>
      <point x="129" y="722" type="curve"/>
      <point x="129" y="481"/>
      <point x="129" y="241"/>
      <point x="129" y="0" type="curve"/>
      <point x="232" y="0"/>
      <point x="129" y="0"/>
    </contour>
    <contour>
      <point x="235" y="796" type="line"/>
      <point x="135" y="962" type="line"/>
      <point x="5" y="962" type="line"/>
      <point x="135" y="796" type="line"/>
    </contour>
  </outline>
</glyph>
<glyph name="Iacute" format="1">
  <advance width="361"/>
  <unicode hex="00CD"/>
  <outline>
    <contour>
      <point x="180" y="722" type="curve"/>
      <point x="130" y="722"/>
      <point x="91" y="722"/>
      <point x="42" y="722" type="curve"/>
      <point x="42" y="642"/>
      <point x="42" y="722"/>
      <point x="42" y="642" type="curve"/>
      <point x="190" y="642"/>
      <point x="31" y="642"/>
      <point x="180" y="642" type="curve"/>
      <point x="180" y="722"/>
      <point x="180" y="642"/>
    </contour>
    <contour>
      <point x="180" y="642" type="curve"/>
      <point x="329" y="642"/>
      <point x="170" y="642"/>
      <point x="318" y="642" type="curve"/>
      <point x="318" y="722"/>
      <point x="318" y="642"/>
      <point x="318" y="722" type="curve"/>
      <point x="268" y="722"/>
      <point x="229" y="722"/>
      <point x="180" y="722" type="curve"/>
      <point x="180" y="642"/>
      <point x="180" y="722"/>
    </contour>
    <contour>
      <point x="180" y="0" type="curve"/>
      <point x="229" y="0"/>
      <point x="268" y="0"/>
      <point x="318" y="0" type="curve"/>
      <point x="318" y="80"/>
      <point x="318" y="0"/>
      <point x="318" y="80" type="curve"/>
      <point x="170" y="80"/>
      <point x="329" y="80"/>
      <point x="180" y="80" type="curve"/>
      <point x="180" y="0"/>
      <point x="180" y="80"/>
    </contour>
    <contour>
      <point x="180" y="80" type="curve"/>
      <point x="31" y="80"/>
      <point x="190" y="80"/>
      <point x="42" y="80" type="curve"/>
      <point x="42" y="0"/>
      <point x="42" y="80"/>
      <point x="42" y="0" type="curve"/>
      <point x="91" y="0"/>
      <point x="130" y="0"/>
      <point x="180" y="0" type="curve"/>
      <point x="180" y="80"/>
      <point x="180" y="0"/>
    </contour>
    <contour>
      <point x="231" y="0" type="curve"/>
      <point x="231" y="241"/>
      <point x="231" y="481"/>
      <point x="231" y="722" type="curve"/>
      <point x="127" y="722"/>
      <point x="231" y="722"/>
      <point x="127" y="722" type="curve"/>
      <point x="127" y="481"/>
      <point x="127" y="241"/>
      <point x="127" y="0" type="curve"/>
      <point x="231" y="0"/>
      <point x="127" y="0"/>
    </contour>
    <contour>
      <point x="226" y="795" type="line"/>
      <point x="355" y="961" type="line"/>
      <point x="225" y="961" type="line"/>
      <point x="125" y="795" type="line"/>
    </contour>
  </outline>
</glyph>
<glyph name="Icircumflex" format="1">
  <advance width="360"/>
  <unicode hex="00CE"/>
  <outline>
    <contour>
      <point x="178" y="722" type="curve"/>
      <point x="128" y="722"/>
      <point x="88" y="722"/>
      <point x="39" y="722" type="curve"/>
      <point x="39" y="642"/>
      <point x="39" y="722"/>
      <point x="39" y="642" type="curve"/>
      <point x="189" y="642"/>
      <point x="29" y="642"/>
      <point x="178" y="642" type="curve"/>
      <point x="178" y="722"/>
      <point x="178" y="642"/>
    </contour>
    <contour>
      <point x="178" y="642" type="curve"/>
      <point x="327" y="642"/>
      <point x="168" y="642"/>
      <point x="316" y="642" type="curve"/>
      <point x="316" y="722"/>
      <point x="316" y="642"/>
      <point x="316" y="722" type="curve"/>
      <point x="266" y="722"/>
      <point x="227" y="722"/>
      <point x="178" y="722" type="curve"/>
      <point x="178" y="642"/>
      <point x="178" y="722"/>
    </contour>
    <contour>
      <point x="178" y="0" type="curve"/>
      <point x="227" y="0"/>
      <point x="266" y="0"/>
      <point x="316" y="0" type="curve"/>
      <point x="316" y="80"/>
      <point x="316" y="0"/>
      <point x="316" y="80" type="curve"/>
      <point x="168" y="80"/>
      <point x="327" y="80"/>
      <point x="178" y="80" type="curve"/>
      <point x="178" y="0"/>
      <point x="178" y="80"/>
    </contour>
    <contour>
      <point x="178" y="80" type="curve"/>
      <point x="29" y="80"/>
      <point x="189" y="80"/>
      <point x="39" y="80" type="curve"/>
      <point x="39" y="0"/>
      <point x="39" y="80"/>
      <point x="39" y="0" type="curve"/>
      <point x="88" y="0"/>
      <point x="128" y="0"/>
      <point x="178" y="0" type="curve"/>
      <point x="178" y="80"/>
      <point x="178" y="0"/>
    </contour>
    <contour>
      <point x="229" y="0" type="curve"/>
      <point x="229" y="241"/>
      <point x="229" y="481"/>
      <point x="229" y="722" type="curve"/>
      <point x="125" y="722"/>
      <point x="229" y="722"/>
      <point x="125" y="722" type="curve"/>
      <point x="125" y="481"/>
      <point x="125" y="241"/>
      <point x="125" y="0" type="curve"/>
      <point x="229" y="0"/>
      <point x="125" y="0"/>
    </contour>
    <contour>
      <point x="94" y="796" type="line"/>
      <point x="224" y="962" type="line"/>
      <point x="94" y="962" type="line"/>
      <point x="-6" y="796" type="line"/>
    </contour>
    <contour>
      <point x="362" y="796" type="line"/>
      <point x="262" y="962" type="line"/>
      <point x="132" y="962" type="line"/>
      <point x="261" y="796" type="line"/>
    </contour>
  </outline>
</glyph>
<glyph name="Idieresis" format="1">
  <advance width="361"/>
  <unicode hex="00CF"/>
  <outline>
    <contour>
      <point x="182" y="722" type="curve"/>
      <point x="132" y="722"/>
      <point x="93" y="722"/>
      <point x="43" y="722" type="curve"/>
      <point x="43" y="642"/>
      <point x="43" y="722"/>
      <point x="43" y="642" type="curve"/>
      <point x="192" y="642"/>
      <point x="32" y="642"/>
      <point x="182" y="642" type="curve"/>
      <point x="182" y="722"/>
      <point x="182" y="642"/>
    </contour>
    <contour>
      <point x="182" y="642" type="curve"/>
      <point x="330" y="642"/>
      <point x="171" y="642"/>
      <point x="319" y="642" type="curve"/>
      <point x="319" y="722"/>
      <point x="319" y="642"/>
      <point x="319" y="722" type="curve"/>
      <point x="270" y="722"/>
      <point x="230" y="722"/>
      <point x="182" y="722" type="curve"/>
      <point x="182" y="642"/>
      <point x="182" y="722"/>
    </contour>
    <contour>
      <point x="182" y="0" type="curve"/>
      <point x="230" y="0"/>
      <point x="270" y="0"/>
      <point x="319" y="0" type="curve"/>
      <point x="319" y="80"/>
      <point x="319" y="0"/>
      <point x="319" y="80" type="curve"/>
      <point x="171" y="80"/>
      <point x="330" y="80"/>
      <point x="182" y="80" type="curve"/>
      <point x="182" y="0"/>
      <point x="182" y="80"/>
    </contour>
    <contour>
      <point x="182" y="80" type="curve"/>
      <point x="32" y="80"/>
      <point x="192" y="80"/>
      <point x="43" y="80" type="curve"/>
      <point x="43" y="0"/>
      <point x="43" y="80"/>
      <point x="43" y="0" type="curve"/>
      <point x="93" y="0"/>
      <point x="132" y="0"/>
      <point x="182" y="0" type="curve"/>
      <point x="182" y="80"/>
      <point x="182" y="0"/>
    </contour>
    <contour>
      <point x="232" y="0" type="curve"/>
      <point x="232" y="241"/>
      <point x="232" y="481"/>
      <point x="232" y="722" type="curve"/>
      <point x="129" y="722"/>
      <point x="232" y="722"/>
      <point x="129" y="722" type="curve"/>
      <point x="129" y="481"/>
      <point x="129" y="241"/>
      <point x="129" y="0" type="curve"/>
      <point x="232" y="0"/>
      <point x="129" y="0"/>
    </contour>
    <contour>
      <point x="153" y="845" type="curve"/>
      <point x="153" y="880"/>
      <point x="129" y="898"/>
      <point x="95" y="898" type="curve"/>
      <point x="61" y="898"/>
      <point x="38" y="878"/>
      <point x="38" y="845" type="curve"/>
      <point x="151" y="845"/>
      <point x="40" y="845"/>
      <point x="153" y="845" type="curve"/>
      <point x="153" y="808"/>
      <point x="129" y="792"/>
      <point x="94" y="792" type="curve"/>
      <point x="60" y="792"/>
      <point x="38" y="810"/>
      <point x="38" y="845" type="curve"/>
      <point x="151" y="845"/>
      <point x="40" y="845"/>
    </contour>
    <contour>
      <point x="326" y="845" type="curve"/>
      <point x="326" y="880"/>
      <point x="301" y="898"/>
      <point x="267" y="898" type="curve"/>
      <point x="233" y="898"/>
      <point x="211" y="878"/>
      <point x="211" y="845" type="curve"/>
      <point x="324" y="845"/>
      <point x="213" y="845"/>
      <point x="326" y="845" type="curve"/>
      <point x="326" y="808"/>
      <point x="301" y="792"/>
      <point x="267" y="792" type="curve"/>
      <point x="232" y="792"/>
      <point x="211" y="810"/>
      <point x="211" y="845" type="curve"/>
      <point x="324" y="845"/>
      <point x="213" y="845"/>
    </contour>
  </outline>
</glyph>
<glyph name="Eth" format="1">
  <advance width="751"/>
  <unicode hex="00D0"/>
  <outline>
    <contour>
      <point x="197" y="80" type="curve"/>
      <point x="53" y="80"/>
      <point x="202" y="80"/>
      <point x="59" y="80" type="curve"/>
      <point x="59" y="0"/>
      <point x="59" y="80"/>
      <point x="59" y="0" type="curve"/>
      <point x="106" y="0"/>
      <point x="149" y="0"/>
      <point x="197" y="0" type="curve"/>
      <point x="197" y="80"/>
      <point x="197" y="0"/>
    </contour>
    <contour>
      <point x="197" y="722" type="curve"/>
      <point x="149" y="722"/>
      <point x="106" y="722"/>
      <point x="59" y="722" type="curve"/>
      <point x="59" y="642"/>
      <point x="59" y="722"/>
      <point x="59" y="642" type="curve"/>
      <point x="202" y="642"/>
      <point x="53" y="642"/>
      <point x="197" y="642" type="curve"/>
      <point x="197" y="722"/>
      <point x="197" y="642"/>
    </contour>
    <contour>
      <point x="143" y="722" type="curve"/>
      <point x="143" y="481"/>
      <point x="143" y="241"/>
      <point x="143" y="0" type="curve"/>
      <point x="247" y="0"/>
      <point x="143" y="0"/>
      <point x="247" y="0" type="curve"/>
      <point x="247" y="241"/>
      <point x="247" y="481"/>
      <point x="247" y="722" type="curve"/>
      <point x="143" y="722"/>
      <point x="247" y="722"/>
    </contour>
    <contour>
      <point x="197" y="0" type="curve"/>
      <point x="254" y="0"/>
      <point x="307" y="0"/>
      <point x="365" y="0" type="curve"/>
      <point x="585" y="0"/>
      <point x="695" y="129"/>
      <point x="695" y="354" type="curve"/>
      <point x="695" y="586"/>
      <point x="585" y="722"/>
      <point x="359" y="722" type="curve"/>
      <point x="304" y="722"/>
      <point x="252" y="722"/>
      <point x="197" y="722" type="curve"/>
      <point x="197" y="646"/>
      <point x="197" y="718"/>
      <point x="197" y="642" type="curve"/>
      <point x="251" y="642"/>
      <point x="300" y="642"/>
      <point x="354" y="642" type="curve"/>
      <point x="523" y="642"/>
      <point x="592" y="530"/>
      <point x="592" y="352" type="curve"/>
      <point x="592" y="187"/>
      <point x="530" y="80"/>
      <point x="374" y="80" type="curve"/>
      <point x="313" y="80"/>
      <point x="258" y="80"/>
      <point x="197" y="80" type="curve"/>
      <point x="197" y="4"/>
      <point x="197" y="76"/>
    </contour>
    <contour>
      <point x="84" y="328" type="curve"/>
      <point x="186" y="328"/>
      <point x="287" y="328"/>
      <point x="388" y="328" type="curve"/>
      <point x="388" y="416"/>
      <point x="388" y="328"/>
      <point x="388" y="416" type="curve"/>
      <point x="287" y="416"/>
      <point x="186" y="416"/>
      <point x="84" y="416" type="curve"/>
      <point x="84" y="328"/>
      <point x="84" y="416"/>
    </contour>
  </outline>
</glyph>
<glyph name="Oacute" format="1">
  <advance width="726"/>
  <unicode hex="00D3"/>
  <outline>
    <contour>
      <point x="161" y="360" type="curve"/>
      <point x="161" y="519"/>
      <point x="212" y="643"/>
      <point x="360" y="643" type="curve"/>
      <point x="506" y="643"/>
      <point x="566" y="522"/>
      <point x="566" y="363" type="curve"/>
      <point x="566" y="204"/>
      <point x="513" y="79"/>
      <point x="366" y="79" type="curve"/>
      <point x="218" y="79"/>
      <point x="161" y="200"/>
      <point x="161" y="360" type="curve"/>
      <point x="56" y="360"/>
      <point x="161" y="360"/>
      <point x="56" y="360" type="curve"/>
      <point x="56" y="146"/>
      <point x="158" y="-5"/>
      <point x="361" y="-5" type="curve"/>
      <point x="566" y="-5"/>
      <point x="669" y="147"/>
      <point x="669" y="363" type="curve"/>
      <point x="669" y="575"/>
      <point x="568" y="727"/>
      <point x="365" y="727" type="curve"/>
      <point x="161" y="727"/>
      <point x="56" y="575"/>
      <point x="56" y="360" type="curve"/>
      <point x="161" y="360"/>
      <point x="56" y="360"/>
    </contour>
    <contour>
      <point x="409" y="795" type="line"/>
      <point x="540" y="961" type="line"/>
      <point x="409" y="961" type="line"/>
      <point x="310" y="795" type="line"/>
    </contour>
  </outline>
</glyph>
<glyph name="multiply" format="1">
  <advance width="593"/>
  <unicode hex="00D7"/>
  <outline>
    <contour>
      <point x="121" y="70" type="line"/>
      <point x="531" y="491" type="line"/>
      <point x="471" y="551" type="line"/>
      <point x="61" y="130" type="line"/>
    </contour>
    <contour>
      <point x="532" y="129" type="line"/>
      <point x="121" y="549" type="line"/>
      <point x="61" y="489" type="line"/>
      <point x="472" y="69" type="line"/>
    </contour>
  </outline>
</glyph>
<glyph name="germandbls" format="1">
  <advance width="592"/>
  <unicode hex="00DF"/>
  <outline>
    <contour>
      <point x="162" y="81" type="curve"/>
      <point x="25" y="81"/>
      <point x="165" y="81"/>
      <point x="28" y="81" type="curve"/>
      <point x="28" y="0"/>
      <point x="28" y="81"/>
      <point x="28" y="0" type="curve"/>
      <point x="74" y="0"/>
      <point x="117" y="0"/>
      <point x="162" y="0" type="curve"/>
      <point x="162" y="81"/>
      <point x="162" y="0"/>
    </contour>
    <contour>
      <point x="162" y="0" type="curve"/>
      <point x="207" y="0"/>
      <point x="244" y="0"/>
      <point x="290" y="0" type="curve"/>
      <point x="290" y="81"/>
      <point x="290" y="0"/>
      <point x="290" y="81" type="curve"/>
      <point x="155" y="81"/>
      <point x="297" y="81"/>
      <point x="162" y="81" type="curve"/>
      <point x="162" y="0"/>
      <point x="162" y="81"/>
    </contour>
    <contour>
      <point x="213" y="0" type="curve"/>
      <point x="213" y="200"/>
      <point x="213" y="398"/>
      <point x="213" y="598" type="curve"/>
      <point x="110" y="598"/>
      <point x="213" y="598"/>
      <point x="110" y="598" type="curve"/>
      <point x="110" y="398"/>
      <point x="110" y="200"/>
      <point x="110" y="0" type="curve"/>
      <point x="213" y="0"/>
      <point x="110" y="0"/>
    </contour>
    <contour>
      <point x="213" y="598" type="curve"/>
      <point x="213" y="667"/>
      <point x="246" y="718"/>
      <point x="312" y="718" type="curve"/>
      <point x="380" y="718"/>
      <point x="423" y="676"/>
      <point x="423" y="603" type="curve"/>
      <point x="423" y="530"/>
      <point x="374" y="488"/>
      <point x="299" y="488" type="curve"/>
      <point x="299" y="420"/>
      <point x="299" y="488"/>
      <point x="299" y="420" type="curve"/>
      <point x="429" y="420"/>
      <point x="522" y="483"/>
      <point x="522" y="607" type="curve"/>
      <point x="522" y="729"/>
      <point x="441" y="799"/>
      <point x="318" y="799" type="curve"/>
      <point x="191" y="799"/>
      <point x="110" y="723"/>
      <point x="110" y="598" type="curve"/>
      <point x="213" y="598"/>
      <point x="110" y="598"/>
    </contour>
    <contour>
      <point x="394" y="79" type="curve"/>
      <point x="494" y="104"/>
      <point x="551" y="169"/>
      <point x="551" y="282" type="curve"/>
      <point x="551" y="416"/>
      <point x="453" y="488"/>
      <point x="299" y="488" type="curve"/>
      <point x="299" y="420"/>
      <point x="299" y="488"/>
      <point x="299" y="420" type="curve"/>
      <point x="382" y="420"/>
      <point x="452" y="372"/>
      <point x="452" y="282" type="curve"/>
      <point x="452" y="215"/>
      <point x="417" y="175"/>
      <point x="365" y="160" type="curve"/>
      <point x="394" y="79"/>
      <point x="365" y="160"/>
    </contour>
  </outline>
</glyph>
